<svg width="19" height="21" viewBox="0 0 19 21" fill="none" xmlns="http://www.w3.org/2000/svg">
<path d="M13.848 0.571045C12.695 0.638045 11.3714 1.28039 10.5844 2.09839C9.87335 2.84239 9.31238 3.94736 9.54138 5.01636C10.7944 5.04936 12.0521 4.39037 12.8051 3.55737C13.5081 2.77837 14.041 1.69104 13.848 0.571045ZM13.9164 5.0144C12.1074 5.0144 11.351 6.12573 10.098 6.12573C8.80902 6.12573 7.63068 5.08472 6.07068 5.08472C3.94868 5.08572 0.723022 7.05137 0.723022 11.6824C0.723022 15.8954 4.54068 20.571 6.69568 20.571C8.00468 20.584 8.32202 19.748 10.098 19.739C11.876 19.726 12.2597 20.582 13.5707 20.571C15.0467 20.56 16.1994 18.9381 17.0414 17.6531C17.6454 16.7331 17.8937 16.2634 18.3617 15.2234C14.8887 14.3434 14.1977 8.74272 18.3617 7.58472C17.5757 6.24372 15.2814 5.0144 13.9164 5.0144Z" fill="#A4A6A8"/>
</svg>
