<svg width="27" height="21" viewBox="0 0 27 21" fill="none" xmlns="http://www.w3.org/2000/svg">
<path d="M22.4218 2.34528C20.7359 1.56448 18.9569 1.00721 17.1292 0.687357C17.1127 0.684543 17.0957 0.686974 17.0805 0.694315C17.0654 0.701656 17.0529 0.713548 17.0447 0.728354C16.8156 1.13832 16.5621 1.67457 16.385 2.09437C14.4149 1.79265 12.4109 1.79265 10.4408 2.09437C10.2432 1.62671 10.0197 1.17065 9.77131 0.728354C9.76297 0.71371 9.75044 0.701955 9.73536 0.694638C9.72027 0.68732 9.70335 0.684782 9.68681 0.687357C7.8587 1.00549 6.07935 1.56305 4.39424 2.34528C4.37982 2.35083 4.36776 2.36126 4.36012 2.37479C0.989901 7.45678 0.0652859 12.4141 0.518656 17.3092C0.520281 17.3321 0.534906 17.3551 0.552781 17.3699C2.51531 18.8369 4.71045 19.957 7.04459 20.6824C7.06107 20.6877 7.07878 20.6875 7.09514 20.6819C7.11151 20.6763 7.12567 20.6655 7.13559 20.6513C7.63608 19.9625 8.08133 19.236 8.46482 18.4719C8.47282 18.4561 8.47555 18.4382 8.47262 18.4208C8.4697 18.4033 8.46126 18.3873 8.44857 18.3751C8.44018 18.3671 8.43021 18.361 8.41932 18.3571C7.71922 18.0855 7.04117 17.7593 6.39134 17.3813C6.37319 17.371 6.3597 17.3539 6.35365 17.3338C6.3476 17.3136 6.34946 17.2919 6.35884 17.2731C6.36437 17.2609 6.37273 17.2502 6.38322 17.242C6.51972 17.1386 6.65622 17.0304 6.78622 16.9222C6.7977 16.9129 6.81148 16.9069 6.82608 16.9048C6.84067 16.9028 6.85554 16.9048 6.86909 16.9107C11.1249 18.872 15.7317 18.872 19.9356 16.9107C19.9496 16.9046 19.965 16.9024 19.9802 16.9044C19.9954 16.9064 20.0097 16.9126 20.0217 16.9222C20.1517 17.0304 20.2882 17.1386 20.4247 17.242C20.4358 17.2501 20.4446 17.2609 20.4506 17.2734C20.4565 17.2858 20.4592 17.2996 20.4586 17.3134C20.4579 17.3272 20.4539 17.3407 20.4469 17.3525C20.4398 17.3644 20.43 17.3743 20.4182 17.3813C19.7699 17.7628 19.0909 18.0886 18.3886 18.3554C18.3774 18.3595 18.3672 18.366 18.3588 18.3745C18.3504 18.3831 18.3439 18.3933 18.3398 18.4046C18.3361 18.4156 18.3346 18.4272 18.3354 18.4387C18.3363 18.4503 18.3394 18.4616 18.3447 18.4719C18.7347 19.2344 19.1816 19.9625 19.6723 20.6513C19.6822 20.6655 19.6964 20.6763 19.7128 20.6819C19.7291 20.6875 19.7468 20.6877 19.7633 20.6824C22.1014 19.9593 24.3001 18.839 26.2649 17.3699C26.2747 17.363 26.2829 17.354 26.2888 17.3435C26.2947 17.333 26.2982 17.3212 26.299 17.3092C26.8418 11.65 25.3906 6.7336 22.4543 2.37643C22.4513 2.36924 22.4469 2.36275 22.4413 2.35738C22.4357 2.35201 22.4291 2.34789 22.4218 2.34528ZM9.10019 14.3279C7.81808 14.3279 6.76347 13.1406 6.76347 11.6844C6.76347 10.2265 7.79858 9.03927 9.10019 9.03927C10.4116 9.03927 11.4564 10.2364 11.4369 11.6844C11.4369 13.1406 10.4018 14.3279 9.10019 14.3279ZM17.7386 14.3279C16.4581 14.3279 15.4019 13.1406 15.4019 11.6844C15.4019 10.2265 16.437 9.03927 17.7386 9.03927C19.05 9.03927 20.0965 10.2364 20.0753 11.6844C20.0753 13.1406 19.05 14.3279 17.7386 14.3279Z" fill="#A4A6A8"/>
</svg>
