<svg width="21" height="21" viewBox="0 0 21 21" fill="none" xmlns="http://www.w3.org/2000/svg">
<path fill-rule="evenodd" clip-rule="evenodd" d="M10.6772 0.571045C13.1072 0.571045 13.4612 0.584045 14.4852 0.631045C15.5492 0.680045 16.2762 0.849045 16.9122 1.09605C17.5797 1.34692 18.1844 1.7404 18.6842 2.24904C19.1928 2.74882 19.5863 3.35355 19.8372 4.02104C20.0842 4.65704 20.2532 5.38404 20.3022 6.44804C20.3502 7.51504 20.3622 7.85504 20.3622 10.571V10.651C20.3622 13.294 20.3502 13.638 20.3022 14.694C20.2532 15.758 20.0842 16.485 19.8372 17.121C19.5863 17.7885 19.1928 18.3933 18.6842 18.893C18.1844 19.4017 17.5797 19.7952 16.9122 20.046C16.2762 20.293 15.5492 20.462 14.4852 20.511C13.4182 20.559 13.0782 20.571 10.3622 20.571H10.2822C7.63918 20.571 7.29518 20.559 6.23918 20.511C5.17518 20.462 4.44818 20.293 3.81218 20.046C3.14468 19.7952 2.53996 19.4017 2.04018 18.893C1.53154 18.3933 1.13806 17.7885 0.887183 17.121C0.640183 16.485 0.471183 15.758 0.422183 14.694C0.375183 13.67 0.362183 13.315 0.362183 10.886V10.256C0.362183 7.82605 0.375183 7.47204 0.422183 6.44804C0.471183 5.38404 0.640183 4.65704 0.887183 4.02104C1.13806 3.35355 1.53154 2.74882 2.04018 2.24904C2.53996 1.7404 3.14468 1.34692 3.81218 1.09605C4.44818 0.849045 5.17518 0.680045 6.23918 0.631045C7.26318 0.584045 7.61818 0.571045 10.0472 0.571045H10.6772ZM10.5962 2.37304H10.1282C7.67218 2.37304 7.34418 2.38404 6.32118 2.43104C5.34618 2.47604 4.81718 2.63804 4.46418 2.77504C3.99718 2.95704 3.66418 3.17305 3.31418 3.52305C2.96418 3.87304 2.74818 4.20605 2.56618 4.67305C2.42918 5.02605 2.26618 5.55505 2.22218 6.53005C2.17518 7.55305 2.16418 7.88104 2.16418 10.337V10.805C2.16418 13.261 2.17518 13.589 2.22218 14.612C2.26718 15.587 2.42918 16.116 2.56618 16.469C2.74818 16.935 2.96518 17.269 3.31418 17.619C3.66418 17.969 3.99718 18.185 4.46418 18.367C4.81718 18.504 5.34618 18.667 6.32118 18.711C7.37518 18.759 7.69118 18.769 10.3622 18.769H10.4422C13.0392 18.769 13.3592 18.759 14.4022 18.711C15.3782 18.666 15.9072 18.504 16.2602 18.367C16.7262 18.185 17.0602 17.969 17.4102 17.619C17.7602 17.269 17.9762 16.936 18.1582 16.469C18.2952 16.116 18.4582 15.587 18.5022 14.612C18.5502 13.557 18.5602 13.242 18.5602 10.571V10.491C18.5602 7.89404 18.5502 7.57405 18.5022 6.53104C18.4572 5.55505 18.2952 5.02605 18.1582 4.67305C17.998 4.23861 17.7423 3.84564 17.4102 3.52305C17.0876 3.1909 16.6946 2.9353 16.2602 2.77504C15.9072 2.63804 15.3782 2.47504 14.4032 2.43104C13.3802 2.38404 13.0522 2.37304 10.5962 2.37304ZM10.3622 5.43604C11.0365 5.43604 11.7043 5.56887 12.3273 5.82692C12.9503 6.08498 13.5163 6.46322 13.9932 6.94005C14.47 7.41688 14.8482 7.98296 15.1063 8.60597C15.3644 9.22897 15.4972 9.89671 15.4972 10.571C15.4972 11.2454 15.3644 11.9131 15.1063 12.5361C14.8482 13.1591 14.47 13.7252 13.9932 14.202C13.5163 14.6789 12.9503 15.0571 12.3273 15.3152C11.7043 15.5732 11.0365 15.706 10.3622 15.706C9.0003 15.706 7.69419 15.165 6.73119 14.202C5.76819 13.239 5.22718 11.9329 5.22718 10.571C5.22718 9.20916 5.76819 7.90305 6.73119 6.94005C7.69419 5.97705 9.0003 5.43604 10.3622 5.43604ZM10.3622 7.23804C9.47822 7.23804 8.63046 7.5892 8.0054 8.21426C7.38034 8.83932 7.02918 9.68708 7.02918 10.571C7.02918 11.455 7.38034 12.3028 8.0054 12.9278C8.63046 13.5529 9.47822 13.904 10.3622 13.904C11.2461 13.904 12.0939 13.5529 12.719 12.9278C13.344 12.3028 13.6952 11.455 13.6952 10.571C13.6952 9.68708 13.344 8.83932 12.719 8.21426C12.0939 7.5892 11.2461 7.23804 10.3622 7.23804ZM15.7002 4.03304C16.0184 4.03304 16.3237 4.15947 16.5487 4.38452C16.7738 4.60956 16.9002 4.91479 16.9002 5.23305C16.9002 5.5513 16.7738 5.85653 16.5487 6.08157C16.3237 6.30662 16.0184 6.43304 15.7002 6.43304C15.3819 6.43304 15.0767 6.30662 14.8517 6.08157C14.6266 5.85653 14.5002 5.5513 14.5002 5.23305C14.5002 4.91479 14.6266 4.60956 14.8517 4.38452C15.0767 4.15947 15.3819 4.03304 15.7002 4.03304Z" fill="#A4A6A8"/>
</svg>
