<svg width="25" height="21" viewBox="0 0 25 21" fill="none" xmlns="http://www.w3.org/2000/svg">
<path fill-rule="evenodd" clip-rule="evenodd" d="M18.7461 20.3502C19.0681 20.5782 19.4831 20.6352 19.8531 20.4952C20.2231 20.3542 20.4951 20.0382 20.5771 19.6552C21.4461 15.5712 23.5541 5.23419 24.3451 1.51919C24.4051 1.23919 24.3051 0.948193 24.0851 0.761193C23.8651 0.574193 23.5601 0.520193 23.2881 0.621193C19.0951 2.17319 6.18209 7.01819 0.904092 8.97119C0.569092 9.09519 0.351092 9.41719 0.362092 9.77019C0.374092 10.1242 0.612092 10.4312 0.955092 10.5342C3.32209 11.2422 6.42909 12.2272 6.42909 12.2272C6.42909 12.2272 7.88109 16.6122 8.63809 18.8422C8.73309 19.1222 8.95209 19.3422 9.24109 19.4182C9.52909 19.4932 9.83709 19.4142 10.0521 19.2112C11.2681 18.0632 13.1481 16.2882 13.1481 16.2882C13.1481 16.2882 16.7201 18.9072 18.7461 20.3502ZM7.73609 11.6732L9.41509 17.2112L9.78809 13.7042C9.78809 13.7042 16.2751 7.85319 19.9731 4.51819C20.0811 4.42019 20.0961 4.25619 20.0061 4.14119C19.9171 4.02619 19.7531 3.99919 19.6301 4.07719C15.3441 6.81419 7.73609 11.6732 7.73609 11.6732Z" fill="#A4A6A8"/>
</svg>
