<svg width="21" height="17" viewBox="0 0 21 17" fill="none" xmlns="http://www.w3.org/2000/svg">
<path d="M6.6523 16.6977C14.1993 16.6977 18.3273 10.4447 18.3273 5.02273C18.3273 4.84473 18.3273 4.66773 18.3153 4.49273C19.1185 3.91126 19.8116 3.19135 20.3623 2.36673C19.6134 2.69874 18.8189 2.9165 18.0053 3.01273C18.8619 2.49979 19.5031 1.69308 19.8093 0.742734C19.004 1.22062 18.123 1.55746 17.2043 1.73873C16.5857 1.0805 15.7673 0.644569 14.8759 0.498439C13.9845 0.352309 13.0698 0.504133 12.2734 0.930403C11.477 1.35667 10.8434 2.03361 10.4706 2.85639C10.0978 3.67918 10.0067 4.60192 10.2113 5.48173C8.57989 5.39998 6.98391 4.97606 5.52695 4.2375C4.06999 3.49895 2.78463 2.46226 1.7543 1.19473C1.22962 2.09794 1.06889 3.16715 1.30484 4.1847C1.54079 5.20224 2.15567 6.09161 3.0243 6.67173C2.37156 6.65284 1.73294 6.47723 1.1623 6.15973V6.21173C1.16269 7.15903 1.4907 8.07704 2.0907 8.81009C2.6907 9.54314 3.52577 10.0461 4.4543 10.2337C3.85012 10.3984 3.2162 10.4224 2.6013 10.3037C2.86347 11.1192 3.37398 11.8323 4.06143 12.3433C4.74888 12.8544 5.57888 13.1377 6.4353 13.1537C5.58442 13.8223 4.61009 14.3166 3.56803 14.6083C2.52597 14.9 1.43663 14.9834 0.362305 14.8537C2.23891 16.0581 4.42249 16.6968 6.6523 16.6937" fill="#A4A6A8"/>
</svg>
