<svg width="12" height="9" viewBox="0 0 12 9" fill="none" xmlns="http://www.w3.org/2000/svg">
<path d="M7.13854 0.766453L11.6697 6.88512C12.2044 7.60739 11.7698 8.73713 10.9583 8.73713H1.89596C1.71433 8.73731 1.53651 8.67563 1.38379 8.55947C1.23106 8.44332 1.10991 8.2776 1.03485 8.08218C0.959777 7.88676 0.933973 7.66991 0.960523 7.4576C0.987073 7.2453 1.06485 7.04654 1.18454 6.88512L5.7157 0.767569C5.80438 0.647663 5.91374 0.551562 6.03644 0.485716C6.15915 0.41987 6.29235 0.385803 6.42712 0.385803C6.56188 0.385803 6.69509 0.41987 6.81779 0.485716C6.9405 0.551562 7.04986 0.647663 7.13854 0.767569V0.766453Z" fill="#0075FF"/>
</svg>
