<svg width="3" height="13" viewBox="0 0 3 13" fill="none" xmlns="http://www.w3.org/2000/svg">
<path d="M0.881836 1.38453C0.881836 1.65978 0.99118 1.92376 1.18581 2.1184C1.38045 2.31303 1.64443 2.42237 1.91968 2.42237C2.19494 2.42237 2.45892 2.31303 2.65355 2.1184C2.84819 1.92376 2.95753 1.65978 2.95753 1.38453C2.95753 1.10927 2.84819 0.845292 2.65355 0.650658C2.45892 0.456024 2.19494 0.34668 1.91968 0.34668C1.64443 0.34668 1.38045 0.456024 1.18581 0.650658C0.99118 0.845292 0.881836 1.10927 0.881836 1.38453ZM0.881836 6.57376C0.881836 6.84902 0.99118 7.113 1.18581 7.30763C1.38045 7.50226 1.64443 7.61161 1.91968 7.61161C2.19494 7.61161 2.45892 7.50226 2.65355 7.30763C2.84819 7.113 2.95753 6.84902 2.95753 6.57376C2.95753 6.29851 2.84819 6.03453 2.65355 5.83989C2.45892 5.64526 2.19494 5.53591 1.91968 5.53591C1.64443 5.53591 1.38045 5.64526 1.18581 5.83989C0.99118 6.03453 0.881836 6.29851 0.881836 6.57376ZM0.881836 11.763C0.881836 12.0382 0.99118 12.3022 1.18581 12.4969C1.38045 12.6915 1.64443 12.8008 1.91968 12.8008C2.19494 12.8008 2.45892 12.6915 2.65355 12.4969C2.84819 12.3022 2.95753 12.0382 2.95753 11.763C2.95753 11.4877 2.84819 11.2238 2.65355 11.0291C2.45892 10.8345 2.19494 10.7251 1.91968 10.7251C1.64443 10.7251 1.38045 10.8345 1.18581 11.0291C0.99118 11.2238 0.881836 11.4877 0.881836 11.763Z" fill="#F3F5F8" fill-opacity="0.5"/>
</svg>
