<svg width="11" height="11" viewBox="0 0 11 11" fill="none" xmlns="http://www.w3.org/2000/svg">
<path d="M6.44779 3.56479H1.26079C0.688663 3.56479 0.223389 4.03006 0.223389 4.60219V9.78919C0.223389 10.3613 0.688663 10.8266 1.26079 10.8266H6.44779C7.01992 10.8266 7.4852 10.3613 7.4852 9.78919V4.60219C7.4852 4.03006 7.01992 3.56479 6.44779 3.56479Z" fill="white"/>
<path d="M9.55985 0.452576H4.37285C4.09771 0.452576 3.83385 0.561873 3.6393 0.756423C3.44475 0.950974 3.33545 1.21484 3.33545 1.48998V2.52738H7.48505C7.76019 2.52738 8.02406 2.63667 8.21861 2.83123C8.41316 3.02578 8.52245 3.28964 8.52245 3.56478V7.71438H9.55985C9.83499 7.71438 10.0989 7.60508 10.2934 7.41053C10.488 7.21598 10.5973 6.95212 10.5973 6.67698V1.48998C10.5973 1.21484 10.488 0.950974 10.2934 0.756423C10.0989 0.561873 9.83499 0.452576 9.55985 0.452576Z" fill="white"/>
</svg>
