<svg width="7" height="5" viewBox="0 0 7 5" fill="none" xmlns="http://www.w3.org/2000/svg">
<path d="M3.21697 4.21578L0.89513 1.08047C0.621118 0.710366 0.843814 0.131469 1.25967 0.131469L5.90335 0.13147C5.99642 0.131376 6.08754 0.162982 6.1658 0.222504C6.24406 0.282025 6.30614 0.36694 6.3446 0.467077C6.38307 0.567215 6.39629 0.678331 6.38269 0.78712C6.36908 0.895909 6.32923 0.997758 6.26789 1.08047L3.94605 4.21521C3.90061 4.27665 3.84458 4.32589 3.7817 4.35963C3.71882 4.39337 3.65057 4.41083 3.58151 4.41083C3.51246 4.41083 3.4442 4.39337 3.38132 4.35963C3.31845 4.32589 3.26241 4.27665 3.21697 4.2152L3.21697 4.21578Z" fill="#F3F5F8" fill-opacity="0.5"/>
</svg>
