<svg width="12" height="10" viewBox="0 0 12 10" fill="none" xmlns="http://www.w3.org/2000/svg">
<path d="M5.57683 1.26134L0.959774 7.496C0.414892 8.23196 0.857729 9.38312 1.68468 9.38312H10.9188C11.1039 9.3833 11.2851 9.32045 11.4407 9.20209C11.5963 9.08373 11.7197 8.91488 11.7962 8.71575C11.8727 8.51662 11.899 8.29567 11.872 8.07934C11.8449 7.86301 11.7657 7.66048 11.6437 7.496L7.02664 1.26248C6.93628 1.1403 6.82484 1.04237 6.69981 0.975281C6.57478 0.908186 6.43905 0.873474 6.30173 0.873474C6.16441 0.873474 6.02868 0.908186 5.90365 0.975281C5.77862 1.04237 5.66719 1.1403 5.57683 1.26248V1.26134Z" fill="#00A82F"/>
</svg>
