<svg width="13" height="12" viewBox="0 0 13 12" fill="none" xmlns="http://www.w3.org/2000/svg">
<path fill-rule="evenodd" clip-rule="evenodd" d="M4.56065 0.552407C4.58952 0.422537 4.66181 0.306392 4.76558 0.22314C4.86935 0.139888 4.99841 0.0945053 5.13145 0.0944824H7.47078C7.60382 0.0945053 7.73288 0.139888 7.83665 0.22314C7.94043 0.306392 8.01271 0.422537 8.04158 0.552407L8.29891 1.71096C8.53284 1.82208 8.75566 1.95074 8.96562 2.09695L10.099 1.7402C10.2259 1.7003 10.3627 1.70486 10.4866 1.75313C10.6106 1.8014 10.7144 1.8905 10.7809 2.00572L11.9506 4.03158C12.0172 4.14682 12.0424 4.28131 12.0222 4.41283C12.002 4.54436 11.9376 4.66507 11.8395 4.75502L10.964 5.558C10.9849 5.81412 10.9849 6.07152 10.964 6.32764L11.8395 7.13062C11.9376 7.22057 12.002 7.34128 12.0222 7.47281C12.0424 7.60433 12.0172 7.73882 11.9506 7.85406L10.7809 9.87992C10.7144 9.99514 10.6106 10.0842 10.4866 10.1325C10.3627 10.1808 10.2259 10.1853 10.099 10.1454L8.9662 9.78869C8.75566 9.9349 8.53284 10.0636 8.29949 10.1747L8.04217 11.3326C8.01339 11.4627 7.94107 11.5791 7.83716 11.6625C7.73326 11.7458 7.60401 11.7912 7.47078 11.7912H5.13145C4.99841 11.7911 4.86935 11.7458 4.76558 11.6625C4.66181 11.5792 4.58952 11.4631 4.56065 11.3332L4.30332 10.1747C4.06939 10.0636 3.84657 9.9349 3.63661 9.78869L2.50321 10.1454C2.37629 10.1853 2.23956 10.1808 2.11559 10.1325C1.99162 10.0842 1.8878 9.99514 1.82129 9.87992L0.651623 7.85406C0.585077 7.73882 0.55982 7.60433 0.580022 7.47281C0.600225 7.34128 0.664679 7.22057 0.762741 7.13062L1.63824 6.32764C1.61735 6.07152 1.61735 5.81412 1.63824 5.558L0.762741 4.75561C0.664679 4.66565 0.600225 4.54495 0.580022 4.41342C0.55982 4.28189 0.585077 4.1474 0.651623 4.03217L1.82129 2.0063C1.8878 1.89108 1.99162 1.80199 2.11559 1.75371C2.23956 1.70544 2.37629 1.70088 2.50321 1.74079L3.63603 2.09754C3.84657 1.95133 4.06939 1.82267 4.30274 1.71155L4.56007 0.553577L4.56065 0.552407ZM8.4691 5.18663C8.57563 5.07633 8.63458 4.9286 8.63324 4.77526C8.63191 4.62192 8.5704 4.47523 8.46197 4.3668C8.35354 4.25837 8.20685 4.19686 8.05351 4.19553C7.90017 4.19419 7.75244 4.25314 7.64214 4.35967L5.71628 6.28553L4.96009 5.52934C4.84979 5.42281 4.70206 5.36386 4.54872 5.36519C4.39538 5.36653 4.2487 5.42803 4.14026 5.53647C4.03183 5.6449 3.97032 5.79158 3.96899 5.94492C3.96766 6.09827 4.02661 6.246 4.13314 6.3563L5.30281 7.52596C5.41248 7.6356 5.56121 7.6972 5.71628 7.6972C5.87136 7.6972 6.02009 7.6356 6.12976 7.52596L8.4691 5.18663Z" fill="#0075FF"/>
</svg>
