<svg width="10" height="10" viewBox="0 0 10 10" fill="none" xmlns="http://www.w3.org/2000/svg">
<path d="M4.68363 9.49556C5.83283 9.49556 6.93495 9.03904 7.74756 8.22644C8.56016 7.41383 9.01667 6.31171 9.01667 5.16251C9.01667 4.01332 8.56016 2.91119 7.74756 2.09859C6.93495 1.28598 5.83283 0.829468 4.68363 0.829468C3.53444 0.829468 2.43231 1.28598 1.61971 2.09859C0.807102 2.91119 0.350586 4.01332 0.350586 5.16251C0.350586 6.31171 0.807102 7.41383 1.61971 8.22644C2.43231 9.03904 3.53444 9.49556 4.68363 9.49556ZM5.18735 4.39773L4.64572 6.9461C4.6078 7.13026 4.66142 7.23479 4.81037 7.23479C4.91545 7.23479 5.07415 7.19688 5.18193 7.10155L5.13427 7.32687C4.97882 7.51427 4.63597 7.65076 4.34078 7.65076C3.96001 7.65076 3.79806 7.42219 3.90314 6.93635L4.30286 5.05798C4.33753 4.89928 4.30611 4.84187 4.14742 4.80341L3.90314 4.75954L3.94755 4.55318L5.18789 4.39773H5.18735ZM4.68363 3.80844C4.53998 3.80844 4.40222 3.75137 4.30064 3.6498C4.19906 3.54822 4.142 3.41045 4.142 3.26681C4.142 3.12316 4.19906 2.98539 4.30064 2.88381C4.40222 2.78224 4.53998 2.72517 4.68363 2.72517C4.82728 2.72517 4.96505 2.78224 5.06662 2.88381C5.1682 2.98539 5.22526 3.12316 5.22526 3.26681C5.22526 3.41045 5.1682 3.54822 5.06662 3.6498C4.96505 3.75137 4.82728 3.80844 4.68363 3.80844Z" fill="#F3F5F8" fill-opacity="0.5"/>
</svg>
