<svg width="34" height="44" viewBox="0 0 34 44" fill="none" xmlns="http://www.w3.org/2000/svg">
<path d="M27.8699 18.2973L29.3488 17.4492L32.6238 15.5532C32.8662 15.4135 33.1107 15.2788 33.3512 15.1351C33.375 15.1179 33.4036 15.1087 33.433 15.1087C33.4624 15.1087 33.491 15.1179 33.5148 15.1351C33.6146 15.197 33.7144 15.2579 33.8242 15.3147C33.8514 15.3269 33.8747 15.3466 33.8911 15.3715C33.9076 15.3965 33.9165 15.4256 33.917 15.4554C33.917 15.5423 33.926 15.6291 33.926 15.7169V32.7603C33.926 33.0487 33.926 33.3381 33.926 33.6275C33.9322 33.6781 33.9221 33.7295 33.8972 33.774C33.8722 33.8185 33.8337 33.8539 33.7873 33.875C30.2841 35.8926 26.7823 37.913 23.2818 39.936L17.2427 43.4225C16.9653 43.5831 16.6849 43.7388 16.4115 43.9055C16.3758 43.9322 16.3324 43.9466 16.2878 43.9466C16.2432 43.9466 16.1998 43.9322 16.164 43.9055C13.8843 42.5836 11.6025 41.2638 9.31871 39.9459C6.79479 38.4864 4.27153 37.0259 1.74893 35.5643C1.44359 35.3877 1.15022 35.1961 0.843874 35.0145C0.78207 34.9788 0.730957 34.9273 0.695857 34.8651C0.660758 34.803 0.642955 34.7326 0.644301 34.6613C0.644301 34.6204 0.644301 34.5784 0.644301 34.5375V15.2409C0.638471 15.1584 0.644182 15.0754 0.661266 14.9944C0.690214 14.9197 0.73714 14.8533 0.797888 14.8011C0.858635 14.7489 0.931326 14.7125 1.00952 14.6951C1.04138 14.6955 1.07235 14.7056 1.09833 14.724L5.67951 17.3773L7.71615 18.5528C7.75207 18.5738 7.78899 18.5897 7.82591 18.6087C8.00153 18.6466 8.13225 18.7703 8.28792 18.8472C8.79782 19.1395 9.30773 19.4309 9.81564 19.7283C9.85556 19.7492 9.89447 19.7712 9.93339 19.7961C10.121 19.9049 10.3116 20.0087 10.4962 20.1224C10.5291 20.1424 10.561 20.1614 10.596 20.1823C10.7037 20.2452 10.8175 20.2991 10.9233 20.3659C10.9462 20.3779 10.9682 20.3919 10.9901 20.4058C12.1227 21.0534 13.2503 21.71 14.3829 22.3616C14.8871 22.6517 15.3907 22.9421 15.8936 23.2328C15.9106 23.2427 15.9275 23.2547 15.9435 23.2657C16.1191 23.3655 16.2968 23.4653 16.4704 23.5651C16.5612 23.6209 16.6799 23.6519 16.6769 23.7926C16.6819 23.8405 16.6769 23.8924 16.6769 23.9363C16.6769 24.3474 16.6829 24.7585 16.6769 25.1696C16.6804 25.2228 16.6804 25.2761 16.6769 25.3293C16.6859 26.0218 16.6999 26.7153 16.6769 27.4058C16.633 28.6671 16.6709 29.9274 16.654 31.1867C16.657 31.2462 16.657 31.3058 16.654 31.3653C16.654 31.521 16.661 31.6777 16.654 31.8323C16.647 31.968 16.5991 31.993 16.4764 31.9321L16.4644 31.9261C16.0164 31.6687 16.0752 31.7675 16.0762 31.2905C16.0802 30.141 16.0802 28.9918 16.0762 27.8429C16.0762 27.0695 16.0692 26.2962 16.0762 25.5219C16.0727 25.47 16.0727 25.418 16.0762 25.3662C16.0702 25.01 16.0762 24.6537 16.0762 24.2985C16.0623 24.2476 16.0193 24.2276 15.9764 24.2057C15.8846 24.1468 15.7868 24.0969 15.693 24.042C15.5593 23.9562 15.4176 23.8834 15.2819 23.8015C15.259 23.7886 15.237 23.7746 15.2151 23.7606C14.0176 23.0781 12.8272 22.3846 11.6337 21.6961C11.1188 21.3987 10.6033 21.102 10.0871 20.806C10.0647 20.7932 10.0431 20.7792 10.0222 20.7641C9.94437 20.7142 9.85855 20.6772 9.78171 20.6254C9.74978 20.6074 9.71685 20.5884 9.68193 20.5685C9.5093 20.4687 9.34066 20.3689 9.16703 20.2781C9.12812 20.2552 9.0922 20.2282 9.05128 20.2083L7.49063 19.3102C7.33197 19.2204 7.17331 19.1296 7.01664 19.0348C6.39997 18.6995 5.79825 18.3363 5.19056 17.988C4.0031 17.3048 2.81598 16.6193 1.62919 15.9314C1.49248 15.8526 1.48051 15.8586 1.48051 16.0043C1.48051 18.0911 1.48051 20.1777 1.48051 22.2638C1.48051 22.2818 1.48051 22.3008 1.48051 22.3187C1.48051 23.1709 1.4855 24.0231 1.48051 24.8752C1.48051 25.752 1.48051 26.6292 1.48051 27.5066C1.47253 27.5884 1.47452 27.6713 1.47452 27.7541C1.47452 29.8868 1.47452 32.0193 1.47452 34.1514C1.46722 34.2373 1.4861 34.3234 1.52866 34.3984C1.57123 34.4734 1.6355 34.5337 1.71301 34.5715C2.86787 35.2367 4.02339 35.9019 5.17958 36.5672L8.44358 38.4521C9.57915 39.1074 10.7144 39.7637 11.8493 40.4209C11.9963 40.5054 12.1437 40.5896 12.2913 40.6734C13.4688 41.3609 14.6513 42.0405 15.8577 42.738C15.8577 42.2031 15.8577 41.6972 15.8527 41.1903C15.8527 40.0627 15.8527 38.9361 15.8527 37.8085C15.8527 37.7906 15.8527 37.7726 15.8527 37.7536C15.8627 37.599 15.9056 37.569 16.0403 37.6439C16.4734 37.8844 16.4305 37.8195 16.4325 38.2665C16.4325 38.7655 16.4325 39.2564 16.4325 39.7514C16.4325 39.901 16.4674 40.0098 16.6141 40.0667C16.8466 40.1585 16.9214 40.3261 16.9074 40.5756C16.8865 40.9688 16.9074 41.3629 16.8975 41.7571C16.8895 42.1233 16.8975 42.4905 16.8975 42.8547C16.8975 42.9914 16.9104 42.9994 17.0242 42.9325C17.6878 42.5424 18.3583 42.1632 19.0199 41.776C20.5067 40.9139 21.9925 40.0477 23.4833 39.1906C24.7147 38.4821 25.9501 37.7786 27.1754 37.0561C28.5535 36.2429 29.9455 35.4546 31.3285 34.6493C31.8514 34.3449 32.3783 34.0506 32.9002 33.7402C32.959 33.7063 33.0239 33.6774 33.0518 33.6065C33.0636 33.5478 33.067 33.4876 33.0618 33.4279C33.0618 29.9893 33.0618 26.5503 33.0618 23.111C33.0618 20.9706 33.0618 18.8292 33.0618 16.6878C33.0707 16.6247 33.066 16.5603 33.0478 16.4992C32.995 16.4613 32.961 16.5092 32.9251 16.5301C32.055 17.0271 31.1868 17.526 30.3207 18.0269C29.8417 18.303 29.3621 18.5794 28.8818 18.8562C28.7441 18.934 28.6054 19.0118 28.4697 19.0946L28.4367 19.1136L28.3858 19.1435L25.3713 20.8828C24.4147 21.4356 23.4581 21.9884 22.5015 22.5413C21.791 22.9534 21.0795 23.3615 20.369 23.7726C19.6585 24.1837 18.9521 24.5939 18.2416 24.999C18.0809 25.0908 18.042 25.0658 18.036 24.8852C18.036 24.8034 18.036 24.7206 18.036 24.6378V24.4881C18.036 24.3554 18.036 24.2226 18.036 24.0889C18.0325 24.041 18.0433 23.9931 18.0669 23.9512C18.0905 23.9093 18.1259 23.8753 18.1687 23.8534C18.5586 23.6226 18.9497 23.3954 19.3422 23.1719C19.3851 23.1546 19.4262 23.1332 19.465 23.108C19.5428 23.0621 19.6196 23.0152 19.6965 22.9673C20.9438 22.2475 22.1911 21.5278 23.4384 20.808C24.4583 20.2186 25.4787 19.6292 26.4999 19.0398L27.4179 18.5109C27.5287 18.448 27.6404 18.3862 27.7492 18.3183C27.7856 18.297 27.8285 18.2896 27.8699 18.2973Z" fill="#072E5F"/>
<path d="M27.4288 18.5468C27.0606 18.7613 26.6934 18.9768 26.3252 19.1894L20.8369 22.3576L19.7533 22.9823C19.7343 22.9932 19.7114 22.9992 19.6914 23.0082C19.681 22.9777 19.6776 22.9454 19.6814 22.9134C19.6852 22.8815 19.6961 22.8508 19.7133 22.8236C20.0636 21.9914 19.8341 21.0843 19.2214 20.4497C18.6387 19.851 17.9242 19.4768 17.1349 19.2173C16.4472 19.0029 15.7376 18.8663 15.0194 18.8102C14.4808 18.7615 13.9388 18.7652 13.4009 18.8212C13.0676 18.8541 12.7373 18.909 12.403 18.9469C12.31 18.9492 12.2208 18.9846 12.1516 19.0467C12.0737 19.0467 12.0847 18.9818 12.0837 18.9369C12.0627 18.3023 11.8442 17.7305 11.5269 17.1907C11.4956 17.1452 11.4736 17.094 11.462 17.04C11.462 16.9692 11.5049 16.9402 11.5618 16.9043C11.6616 16.8484 11.7554 16.7855 11.8612 16.7376C11.9207 16.7159 11.9708 16.6742 12.0028 16.6196C12.0349 16.5649 12.0469 16.5008 12.0368 16.4383C12.0267 16.3526 12.029 16.2659 12.0438 16.1808C12.0681 16.1415 12.078 16.0949 12.0717 16.0491C12.079 15.6692 12.1251 15.2911 12.2094 14.9205C12.3351 14.3798 12.5481 13.8631 12.8401 13.3908C12.9802 13.1576 13.1746 12.9618 13.4069 12.82C13.5262 12.7406 13.6695 12.7054 13.812 12.7203C13.8679 12.7281 13.9217 12.7471 13.9702 12.7763C14.0186 12.8054 14.0606 12.844 14.0938 12.8897C14.127 12.9354 14.1506 12.9874 14.1632 13.0425C14.1758 13.0975 14.1772 13.1546 14.1672 13.2102C14.1233 13.4978 14.013 13.7711 13.8449 14.0085C13.6691 14.2715 13.4785 14.5244 13.2741 14.7659C13.0305 15.0705 12.8254 15.4039 12.6635 15.7587C12.6545 15.7798 12.6472 15.8015 12.6415 15.8236C12.6545 15.9374 12.5806 16.0312 12.5707 16.1399C12.5544 16.2014 12.5473 16.265 12.5497 16.3285C12.7413 16.2407 12.9139 16.129 13.0895 16.0292L17.1399 13.6922C17.4263 13.5275 17.7146 13.3669 17.996 13.1932C18.0312 13.1684 18.0732 13.1551 18.1163 13.1551C18.1593 13.1551 18.2013 13.1684 18.2365 13.1932C19.4579 13.9011 20.6803 14.6075 21.9037 15.3127C23.2461 16.087 24.5882 16.8617 25.93 17.6367C26.386 17.9002 26.8441 18.1626 27.2981 18.43C27.353 18.454 27.4268 18.4689 27.4288 18.5468Z" fill="#58D3E3"/>
<path d="M11.4831 17.034C11.6414 17.2967 11.7799 17.5709 11.8972 17.8543C12.0251 18.1884 12.1018 18.54 12.1247 18.897C12.1192 18.9472 12.125 18.998 12.1417 19.0457C12.1521 19.0533 12.1609 19.063 12.1674 19.0742C12.1739 19.0853 12.1781 19.0977 12.1796 19.1106C12.1956 19.2932 12.1866 19.4768 12.1856 19.6594C12.1861 19.6993 12.1821 19.7391 12.1736 19.7781C12.0638 20.0915 11.8583 20.1374 11.5958 19.9069C11.5775 19.8866 11.5608 19.8649 11.546 19.842L11.523 19.8101L11.511 19.7961C11.393 19.65 11.2865 19.4948 11.1927 19.3321C11.1727 19.2932 11.1468 19.2573 11.1249 19.2193C10.8466 18.694 10.4332 18.2524 9.92742 17.9401C9.81557 17.8922 9.71747 17.817 9.64203 17.7216C9.61708 17.6796 9.57917 17.6437 9.58615 17.5878C9.47339 17.2645 9.48636 16.9312 9.51131 16.597C9.51364 16.5192 9.50896 16.4414 9.49734 16.3645C9.49719 16.3523 9.49432 16.3403 9.48894 16.3293C9.48356 16.3184 9.4758 16.3088 9.46624 16.3013C9.45668 16.2937 9.44555 16.2884 9.43366 16.2857C9.42178 16.283 9.40944 16.283 9.39755 16.2856C9.30678 16.2959 9.21763 16.3173 9.13212 16.3495C8.89388 16.4448 8.6642 16.5603 8.4456 16.6948C8.37739 16.7416 8.29891 16.7715 8.21677 16.7817C8.13464 16.792 8.05124 16.7823 7.9736 16.7536C7.77403 16.6818 7.57446 16.6079 7.38088 16.5381C7.17267 16.4666 6.95591 16.423 6.73626 16.4084C6.32115 16.3754 5.90504 16.3525 5.48993 16.3196C5.30671 16.314 5.12467 16.2882 4.94709 16.2427C4.88953 16.2277 4.83394 16.2059 4.78145 16.1779C4.73671 16.1561 4.69857 16.1228 4.67095 16.0814C4.64333 16.04 4.62722 15.992 4.62427 15.9423C4.62133 15.8927 4.63165 15.8431 4.65419 15.7988C4.67672 15.7544 4.71066 15.7168 4.75251 15.6899C4.84999 15.6216 4.96031 15.5737 5.07682 15.5492C5.51588 15.4365 5.95593 15.3307 6.388 15.193C6.75821 15.0732 7.12942 14.9555 7.50262 14.8477C7.97429 14.7243 8.46583 14.6961 8.94852 14.7649C9.16497 14.8026 9.38562 14.81 9.60411 14.7868C9.71125 14.7718 9.81216 14.7275 9.89578 14.6589C9.97939 14.5902 10.0425 14.4998 10.0781 14.3977C10.1781 14.1411 10.2451 13.8728 10.2777 13.5994C10.3448 13.068 10.4621 12.5441 10.6279 12.0347C10.7979 11.5374 10.9941 11.0495 11.2157 10.5729C11.4174 10.1468 11.6439 9.733 11.8942 9.33353C11.9112 9.30659 11.9261 9.27865 11.9411 9.25071C11.9426 9.23336 11.9463 9.21626 11.9521 9.19982C11.961 9.17756 11.9721 9.15617 11.985 9.13596C12.2449 8.73395 12.5253 8.3456 12.8252 7.97245C12.8961 7.88165 12.9889 7.81479 13.0597 7.72498C13.2111 7.61476 13.3509 7.48938 13.4768 7.35078C13.8834 6.97423 14.329 6.64206 14.806 6.35991C15.2241 6.10445 15.6561 5.87395 16.0832 5.63546C16.1516 5.59714 16.2226 5.56379 16.2958 5.53567C16.3196 5.52868 16.34 5.51304 16.3529 5.49181C16.3658 5.47059 16.3704 5.44531 16.3656 5.42092C16.3546 5.27008 16.3339 5.12009 16.3038 4.97188C16.2449 4.65157 16.169 4.33525 16.0842 4.02192C15.9849 3.68789 15.8398 3.36921 15.6531 3.07495C15.4071 2.68843 15.2062 2.27493 15.0544 1.84259C14.9738 1.60357 14.9277 1.35424 14.9177 1.10218C14.9114 0.955272 14.943 0.809207 15.0095 0.678087C15.0491 0.599809 15.1141 0.537366 15.194 0.501078C15.2738 0.464789 15.3636 0.45683 15.4486 0.478515C15.5828 0.507958 15.7124 0.555632 15.8338 0.620211C16.2828 0.848721 16.7318 1.07025 17.1689 1.3257C17.5853 1.57894 17.9352 1.92788 18.1897 2.34352C18.3683 2.62092 18.516 2.91529 18.6767 3.20268C18.8591 3.54043 19.059 3.8685 19.2754 4.18557C19.2893 4.19954 19.2993 4.19455 19.3073 4.17958C19.3956 3.80529 19.4474 3.42332 19.462 3.03903C19.471 2.86939 19.468 2.69975 19.474 2.53012C19.4728 2.19559 19.524 1.86295 19.6256 1.54423C19.7145 1.27236 19.8836 1.03374 20.1106 0.859698C20.2072 0.780925 20.3264 0.734812 20.4509 0.72798C20.5107 0.72143 20.5709 0.735321 20.6219 0.767391C20.6728 0.799462 20.7113 0.847823 20.7313 0.904601C20.7533 0.954871 20.771 1.00695 20.7841 1.06027C20.8839 1.48835 21.0326 1.90346 21.1534 2.32655C21.3813 3.13144 21.5596 3.94956 21.6872 4.7763C21.7426 5.14879 21.7426 5.52741 21.6872 5.89989C21.6613 6.0855 21.6623 6.08749 21.8269 6.16932C22.2939 6.40277 22.7479 6.66126 23.187 6.94366C23.6455 7.23738 24.0769 7.57132 24.4762 7.94152C24.7437 8.19098 25.0101 8.44045 25.2605 8.70987C25.6437 9.11684 25.9878 9.55883 26.2883 10.03C26.5381 10.4252 26.7512 10.8424 26.925 11.2764C26.9445 11.3271 26.9756 11.3725 27.0158 11.4091C27.1165 11.6564 27.1976 11.9114 27.2583 12.1714C27.2193 12.2084 27.2483 12.2483 27.2583 12.2862C27.329 12.6088 27.3572 12.9392 27.3421 13.2691C27.3351 13.3689 27.3161 13.4687 27.3072 13.5685C27.2779 13.7434 27.2603 13.9201 27.2543 14.0973C27.2692 14.4625 26.9978 14.737 26.5977 14.7958C26.3743 14.8221 26.1485 14.8184 25.9261 14.7848C25.4268 14.7161 24.9411 14.5707 24.4862 14.3538C24.0382 14.1542 23.6001 13.9367 23.16 13.7221C22.6611 13.4776 22.1542 13.2382 21.6403 13.0236C21.1514 12.8181 20.6544 12.6315 20.1555 12.4518C19.6985 12.2872 19.2425 12.1246 18.7735 11.9998C17.9302 11.7751 17.0551 11.6945 16.185 11.7613C15.485 11.8041 14.7944 11.9449 14.1334 12.1794C13.5693 12.3763 13.0328 12.6446 12.5368 12.9777C12.1609 13.2416 11.8413 13.5778 11.5968 13.9666C11.3737 14.3038 11.2232 14.6837 11.1548 15.0822C11.0871 15.5183 11.1105 15.9638 11.2236 16.3904C11.2406 16.4563 11.2606 16.5221 11.2795 16.59C11.3831 16.7188 11.4531 16.8714 11.4831 17.034Z" fill="#343A42"/>
<path d="M13.0537 7.72705C13.0917 7.76896 13.0438 7.78293 13.0258 7.80089C12.8283 8.01512 12.6444 8.2414 12.475 8.47844C12.3183 8.67801 12.1756 8.89355 12.0399 9.10609C12.0263 9.12999 12.0067 9.14993 11.983 9.16397C11.973 9.17395 11.9681 9.18992 11.9561 9.1989C11.9441 9.20788 11.9162 9.19889 11.9012 9.21785L9.7568 10.4522C7.36193 11.8366 4.9654 13.2219 2.56721 14.6083C2.52636 14.6395 2.4764 14.6563 2.42502 14.6563C2.37364 14.6563 2.32368 14.6395 2.28282 14.6083C2.10221 14.4915 1.91162 14.3898 1.72302 14.28C1.75237 14.2435 1.79097 14.2156 1.83478 14.1992L12.9559 7.77794C12.9869 7.75699 13.0208 7.74302 13.0537 7.72705Z" fill="#072E5F"/>
<path d="M27.4289 18.5468C27.2817 18.4382 27.1255 18.3424 26.9619 18.2604C26.456 17.9611 25.9481 17.6707 25.4402 17.3783L23.9035 16.4942C23.4634 16.2407 23.0244 15.9843 22.5833 15.7298L21.2502 14.9625L20.1246 14.3129L18.7805 13.5365C18.5809 13.4248 18.3893 13.315 18.1967 13.1993C18.1775 13.1847 18.154 13.1768 18.1298 13.1768C18.1057 13.1768 18.0822 13.1847 18.063 13.1993C17.5411 13.5056 17.0172 13.807 16.4944 14.1093L14.9686 14.9854L13.4529 15.8526C13.1445 16.0312 12.8352 16.2078 12.5039 16.3984C12.512 16.197 12.5602 15.9992 12.6456 15.8167C12.6528 15.8182 12.6603 15.8182 12.6676 15.8167C12.6729 15.817 12.6782 15.8158 12.6828 15.8131C12.6874 15.8104 12.6911 15.8065 12.6935 15.8017L15.6951 14.0684C16.4055 13.6573 17.1164 13.2472 17.8275 12.838C17.8912 12.7933 17.9631 12.7615 18.039 12.7442C18.1575 12.7258 18.2786 12.7506 18.3803 12.8141C19.8877 13.6876 21.3962 14.559 22.9056 15.4285L27.837 18.2764C27.8484 18.2838 27.8594 18.2918 27.87 18.3003C27.7243 18.3842 27.5816 18.477 27.4289 18.5468Z" fill="#2676B7"/>
<path d="M27.2573 12.1795C27.2423 12.1525 27.2144 12.1326 27.2064 12.0997C27.1504 11.8931 27.0838 11.6896 27.0068 11.49C26.9968 11.462 26.9869 11.4381 27.0158 11.4171C27.0553 11.4289 27.0924 11.4475 27.1256 11.472L32.3374 14.4805C32.3763 14.5025 32.4122 14.5284 32.4471 14.5514C32.4312 14.6063 32.3883 14.6183 32.3543 14.6382C32.2596 14.6951 32.1598 14.738 32.07 14.8058C32.0318 14.8366 31.9843 14.8534 31.9352 14.8534C31.8862 14.8534 31.8387 14.8366 31.8005 14.8058C31.137 14.4157 30.4694 14.0335 29.8048 13.6483L27.401 12.2613C27.3511 12.2384 27.3092 12.2084 27.2573 12.1795Z" fill="#072E5F"/>
<path d="M8.83768 14.4306C8.7379 14.1931 8.56128 14.0314 8.45151 13.8319C8.35148 13.6554 8.19763 13.5155 8.01245 13.4327C7.89618 13.3764 7.78529 13.3096 7.68116 13.2331C7.55974 13.1486 7.47098 13.025 7.4297 12.8829C7.41212 12.8278 7.41087 12.7688 7.4261 12.713C7.44133 12.6573 7.47238 12.6071 7.51552 12.5686C7.55751 12.5287 7.61059 12.5025 7.66777 12.4934C7.72496 12.4843 7.78355 12.4928 7.83583 12.5177C7.98309 12.5832 8.11045 12.6865 8.20504 12.817C8.41179 13.0877 8.57137 13.3913 8.67703 13.7151C8.7524 13.8973 8.81215 14.0856 8.85564 14.2779C8.86593 14.3028 8.86967 14.3299 8.86653 14.3566C8.86338 14.3833 8.85346 14.4088 8.83768 14.4306Z" fill="#58D3E3"/>
<path d="M9.59209 17.5869C9.67366 17.729 9.79698 17.8426 9.94533 17.9122C9.69387 18.0779 9.42445 18.2116 9.166 18.3662C8.86664 18.5409 8.57527 18.7135 8.26792 18.8742L7.82288 18.6087L9.59209 17.5869Z" fill="#2676B7"/>
<path d="M11.483 17.0341C11.4043 16.8946 11.3375 16.7487 11.2834 16.598C11.3544 16.5744 11.4216 16.5408 11.483 16.4982C11.6686 16.3931 11.8536 16.2877 12.0378 16.1819C12.0481 16.1912 12.0559 16.2029 12.0606 16.216C12.0653 16.229 12.0667 16.243 12.0648 16.2567C12.0648 16.3066 12.0648 16.3565 12.0648 16.4074C12.0648 16.7207 12.1067 16.6199 11.8462 16.7866C11.7574 16.8435 11.6636 16.8864 11.5708 16.9423C11.5319 16.9612 11.488 16.9782 11.483 17.0341Z" fill="#2676B7"/>
<path d="M11.9011 9.21819C11.9066 9.20838 11.9145 9.2001 11.924 9.1941C11.9336 9.1881 11.9444 9.18458 11.9557 9.18384C11.9614 9.18888 11.9653 9.19575 11.9666 9.20329C11.9678 9.21084 11.9665 9.21859 11.9627 9.22526C11.9577 9.23839 11.9526 9.25051 11.9355 9.25355L11.9011 9.21819Z" fill="#B7BFCC"/>
<path d="M19.3053 4.17761C19.3053 4.19358 19.3112 4.21254 19.2893 4.21254C19.2673 4.21254 19.2733 4.19657 19.2733 4.1836L19.3053 4.17761Z" fill="#9DA0A4"/>
<path d="M12.6944 15.7988C12.694 15.8017 12.6929 15.8046 12.6912 15.8071C12.6896 15.8096 12.6873 15.8116 12.6847 15.8131C12.6821 15.8146 12.6792 15.8155 12.6762 15.8157C12.6733 15.8159 12.6703 15.8154 12.6675 15.8143C12.6682 15.8115 12.6695 15.8089 12.6712 15.8066C12.673 15.8043 12.6752 15.8023 12.6777 15.8009C12.6802 15.7994 12.6829 15.7985 12.6858 15.7981C12.6887 15.7978 12.6916 15.798 12.6944 15.7988Z" fill="#58D3E3"/>
<path d="M16.1092 27.8539C16.1092 27.9227 16.1092 27.9916 16.1092 28.0594C16.1092 29.2189 16.1092 30.3785 16.1092 31.537C16.1005 31.5836 16.1087 31.6318 16.1322 31.6729C16.1558 31.7141 16.1933 31.7455 16.2379 31.7615C16.3567 31.8144 16.4664 31.8892 16.6051 31.969C16.6051 31.7555 16.6051 31.5699 16.6121 31.3763C17.0392 31.1169 17.4773 30.8774 17.9093 30.6249C18.7775 30.12 19.6476 29.6201 20.5168 29.1182C21.9946 28.267 23.4694 27.4108 24.9493 26.5636C25.0001 26.5347 25.049 26.4948 25.1149 26.5157C25.7715 26.8849 26.4201 27.2661 27.0717 27.6433C27.1356 27.6812 27.2204 27.7032 27.2344 27.797C27.2136 27.905 27.1737 28.0084 27.1166 28.1023C26.7953 28.8188 26.5389 29.5602 26.2614 30.2926C25.9062 31.2326 25.532 32.1646 25.0141 33.0298C24.5911 33.7446 24.1023 34.4184 23.5542 35.0425C23.2958 35.3328 23.0354 35.6232 22.756 35.8936C22.2751 36.3528 21.759 36.7736 21.2123 37.1519C20.4419 37.6908 19.6596 38.2127 18.9481 38.8303C18.3254 39.3673 17.7975 40.0052 17.3865 40.7173C17.1997 41.0692 17.0367 41.4333 16.8985 41.807C16.894 41.812 16.8878 41.8153 16.8811 41.8164C16.8744 41.8175 16.8675 41.8163 16.8616 41.8129C16.8616 41.3509 16.8556 40.8879 16.8616 40.4259C16.8673 40.3765 16.8568 40.3266 16.8316 40.2838C16.8064 40.2409 16.7678 40.2074 16.7219 40.1884C16.6481 40.1525 16.5812 40.1026 16.5064 40.0697C16.4664 40.0532 16.433 40.0238 16.4117 39.9862C16.3904 39.9486 16.3822 39.9049 16.3886 39.8621C16.3886 39.2634 16.3886 38.6707 16.3936 38.075C16.4033 38.0183 16.3924 37.96 16.363 37.9106C16.3335 37.8612 16.2874 37.824 16.2329 37.8055C16.1255 37.7522 16.0209 37.6933 15.9196 37.6289C15.8747 37.6728 15.8917 37.7287 15.8917 37.7716C15.8917 38.5599 15.8917 39.3482 15.8917 40.1355C15.8917 40.5018 15.8917 40.869 15.8867 41.2332C15.8118 41.2831 15.735 41.2332 15.6592 41.2332C15.28 41.2462 14.8998 41.2332 14.5196 41.2531C14.0075 41.2764 13.5002 41.1461 13.0627 40.8789C12.6636 40.6474 12.3263 40.3381 11.9731 40.0457C11.3414 39.5229 10.9044 38.8483 10.4254 38.1957C10.0262 37.6361 9.59538 37.0997 9.13515 36.5891C8.68218 36.0906 8.18079 35.6384 7.63836 35.239C7.27714 34.9786 6.87999 34.775 6.49681 34.5495C5.75579 34.1116 5.17536 33.4469 4.84136 32.6536C4.56794 32.0329 4.40729 31.3793 4.25362 30.7227C4.24863 30.7004 4.24863 30.6772 4.25362 30.6549C4.27058 30.585 4.32646 30.5551 4.38234 30.5202C6.03547 29.5689 7.68759 28.6162 9.33872 27.6623C9.45692 27.5824 9.58339 27.5155 9.71591 27.4627C9.78023 27.4664 9.84187 27.4898 9.89253 27.5296C11.9075 28.6897 13.9209 29.8519 15.9326 31.0161C15.9603 31.0371 15.9929 31.0505 16.0274 31.055C16.0703 31.0131 16.0503 30.9552 16.0503 30.9043C16.0503 29.9464 16.0503 28.9874 16.0503 28.0285C16.0503 27.9786 16.0164 27.8938 16.1092 27.8539Z" fill="#1964A1"/>
<path d="M16.8585 41.8129L16.8794 41.8069C16.9582 41.9536 16.9014 42.1063 16.9143 42.2639C16.9158 42.3007 16.911 42.3375 16.9004 42.3727C16.9004 42.4016 16.9283 42.3857 16.9094 42.3877C16.8904 42.3897 16.8984 42.3877 16.9004 42.3787C16.9745 42.0217 17.1179 41.6826 17.3225 41.3808C17.7116 40.7552 18.2265 40.2413 18.7883 39.7723C19.6096 39.0877 20.5376 38.5848 21.5165 38.1657C22.454 37.7666 23.314 37.2056 24.057 36.5083C24.8728 35.7397 25.5419 34.8291 26.0318 33.821C26.4729 32.928 26.854 32.0089 27.2442 31.0939C27.6254 30.1958 27.9806 29.2977 28.4247 28.4286C28.7611 27.7552 29.1864 27.13 29.689 26.5696C30.5072 25.6705 31.5952 25.0612 32.7893 24.8333C32.8572 24.8193 32.926 24.8203 32.9949 24.8113C33.0448 24.8054 33.0897 24.8113 33.0837 24.8792C33.0837 27.7624 33.0837 30.6445 33.0837 33.5257C33.0935 33.5798 33.0887 33.6357 33.0697 33.6873C32.5375 33.9953 32.0053 34.3037 31.4731 34.6123C30.128 35.3897 28.7789 36.159 27.4388 36.9463C26.1735 37.6897 24.8992 38.4152 23.6309 39.1526C22.3627 39.89 21.1004 40.6185 19.8391 41.3479C18.947 41.8648 18.0539 42.381 17.1598 42.8966C17.0686 42.9597 16.9705 43.0123 16.8674 43.0532C16.8545 42.6331 16.8555 42.223 16.8585 41.8129Z" fill="#4D99DA"/>
<path d="M28.4197 19.1036H28.4447C28.622 19.1783 28.7918 19.2698 28.9516 19.3771C30.149 20.0756 31.3594 20.7631 32.5598 21.4636C32.6746 21.5304 32.7933 21.5903 32.9061 21.6632C32.9431 21.6798 32.9746 21.7068 32.9966 21.7408C33.0187 21.7749 33.0304 21.8146 33.0304 21.8552C33.0304 21.8958 33.0187 21.9356 32.9966 21.9697C32.9746 22.0037 32.9431 22.0307 32.9061 22.0473C32.2196 22.4545 31.5251 22.8456 30.8345 23.2448C29.9697 23.7457 29.1049 24.2446 28.2401 24.7416C27.2509 25.3123 26.2617 25.8828 25.2725 26.4529C25.2292 26.487 25.1781 26.5096 25.1238 26.5187C25.0508 26.5252 24.9777 26.508 24.9152 26.4698C24.0497 25.9776 23.1866 25.481 22.3258 24.98C21.738 24.6408 21.1523 24.2995 20.5636 23.9652C20.5077 23.9333 20.4508 23.9024 20.3989 23.8654C20.364 23.8405 20.3141 23.8155 20.354 23.7567L22.697 22.4016L27.2193 19.7912C27.6071 19.567 27.9959 19.3431 28.3858 19.1196C28.3982 19.117 28.4098 19.1115 28.4197 19.1036Z" fill="#58D3E3"/>
<path d="M20.3541 23.7566C20.3541 23.8005 20.381 23.8195 20.4149 23.8394C20.7875 24.0516 21.1597 24.2655 21.5315 24.481C21.8439 24.6617 22.1542 24.8443 22.4665 25.0249C22.7948 25.2155 23.1241 25.4031 23.4524 25.5927L24.604 26.2562C24.7347 26.3321 24.8664 26.4049 24.9951 26.4827C25.0316 26.502 25.0729 26.5099 25.1139 26.5057C25.1198 26.5117 25.1228 26.5177 25.1198 26.5237C25.1168 26.5296 25.1198 26.5316 25.1139 26.5316C25.0782 26.5335 25.0438 26.5449 25.0141 26.5646C24.4646 26.8839 23.9141 27.2022 23.3626 27.5195C22.8517 27.8139 22.3388 28.1053 21.8279 28.3996C21.3878 28.6531 20.9498 28.9105 20.5107 29.165C20.1265 29.3865 19.7404 29.6061 19.3562 29.8276C18.9171 30.081 18.4791 30.3385 18.039 30.5919C17.7027 30.7915 17.3635 30.9781 17.0262 31.1707L16.7538 31.3304C16.7147 31.3629 16.6648 31.3793 16.6141 31.3763C16.6141 30.1479 16.6011 28.9185 16.6221 27.6902C16.636 26.9019 16.6221 26.1135 16.637 25.3252C16.7486 25.2541 16.87 25.1997 16.9973 25.1636C17.3136 25.0325 17.6206 24.8802 17.9163 24.7076C17.937 24.6898 17.9612 24.6764 17.9873 24.6684C18.0133 24.6603 18.0408 24.6577 18.068 24.6607C18.0829 24.7854 18.059 24.9141 18.0879 25.0598L20.3541 23.7566Z" fill="#3BA2BE"/>
<path d="M7.49657 19.2902C7.79593 19.4608 8.09528 19.6284 8.39464 19.8001C8.62116 19.9298 8.84567 20.0635 9.07019 20.1992C8.98927 20.2748 8.90064 20.3417 8.80576 20.3988C8.46143 20.658 8.15598 20.9651 7.8987 21.3108C7.58753 21.7136 7.41278 22.205 7.39978 22.7138C7.40159 23.2006 7.5707 23.672 7.87875 24.049C8.26194 24.5191 8.74629 24.8967 9.29571 25.1536C9.77306 25.3866 10.2752 25.565 10.7925 25.6855C11.3039 25.8109 11.8269 25.8835 12.3532 25.902C12.409 25.902 12.4769 25.883 12.5098 25.9549C11.969 26.2183 11.4631 26.5446 10.9392 26.841C10.6139 27.0256 10.2886 27.2112 9.96627 27.4028C9.89157 27.4644 9.7966 27.4961 9.69985 27.4916C9.57711 27.4916 9.4903 27.4028 9.3935 27.3469C7.91999 26.4974 6.44682 25.6472 4.97398 24.7964C3.85304 24.1498 2.73311 23.5038 1.61418 22.8585L1.57825 22.8376C1.4645 22.7667 1.4625 22.7438 1.57825 22.6719C1.79778 22.5382 2.0243 22.4165 2.24682 22.2877C3.41432 21.6152 4.58182 20.9416 5.74931 20.2671C5.92793 20.1673 6.10555 20.0585 6.28716 19.9607C6.37497 19.9138 6.39992 19.861 6.32907 19.7791C6.27894 19.708 6.22029 19.6434 6.15444 19.5865C5.93192 19.4049 5.6645 19.3211 5.39807 19.2363C5.22493 19.1905 5.06205 19.1123 4.91809 19.0058C4.85382 18.9539 4.80084 18.8893 4.76243 18.8162C4.7266 18.7609 4.70692 18.6966 4.7056 18.6307C4.70429 18.5648 4.72139 18.4998 4.75499 18.4431C4.78858 18.3864 4.83734 18.3402 4.89577 18.3097C4.9542 18.2791 5.01999 18.2655 5.08574 18.2704C5.39208 18.2823 5.63955 18.42 5.88402 18.5767C6.16968 18.77 6.41253 19.02 6.59749 19.3111C6.63641 19.384 6.67732 19.4558 6.71624 19.5287C6.80405 19.6923 6.79208 19.6644 6.93777 19.5845C7.08345 19.5047 7.21317 19.4189 7.35487 19.3441C7.40177 19.3111 7.44169 19.2772 7.49657 19.2902Z" fill="#58D3E3"/>
<path d="M12.2864 40.7103C12.0893 40.6141 11.8974 40.5075 11.7116 40.391C10.7736 39.8508 9.83697 39.3103 8.90164 38.7695L6.13956 37.1729L3.17492 35.4626C2.65902 35.1632 2.14412 34.8639 1.62723 34.5695C1.56591 34.5387 1.51492 34.4906 1.48053 34.4313C1.44614 34.3719 1.42984 34.3037 1.43365 34.2352C1.43764 32.173 1.43764 30.1107 1.43365 28.0485C1.43365 27.8838 1.43365 27.7182 1.43365 27.5495C1.5045 27.5076 1.55638 27.5625 1.60927 27.5904C1.94755 27.7701 2.16308 28.0624 2.3427 28.3887C2.61387 28.9104 2.81229 29.4667 2.93243 30.0422C3.09808 30.7407 3.25275 31.4472 3.51918 32.1187C3.72972 32.6506 3.99017 33.1525 4.39829 33.5666C4.70463 33.877 5.08881 34.0446 5.48596 34.1913C6.19465 34.4493 6.84836 34.8386 7.41283 35.3388C8.16821 36.0084 8.80983 36.7807 9.4335 37.5671C9.88952 38.1408 10.3425 38.7186 10.8255 39.2704C11.227 39.7363 11.6728 40.1621 12.1567 40.5417C12.2195 40.5866 12.2944 40.6195 12.2864 40.7103Z" fill="#4D99DA"/>
<path d="M6.17341 19.5626C6.27319 19.5866 6.30512 19.6854 6.36001 19.7552C6.46678 19.8889 6.45979 19.8929 6.31411 19.9787L4.06293 21.276C3.36443 21.6751 2.66593 22.0782 1.96742 22.4854C1.81774 22.5712 1.66806 22.656 1.50142 22.7488L1.93549 22.9993L3.83941 24.0969C4.35031 24.3963 4.86421 24.6846 5.37512 24.98C5.92693 25.2983 6.47276 25.6196 7.02758 25.938C7.46397 26.1901 7.9007 26.4415 8.33777 26.6923L9.69586 27.4727C9.70583 27.4777 9.70982 27.4836 9.70683 27.4896C9.70384 27.4956 9.70085 27.4986 9.69785 27.4986C9.55383 27.5949 9.40422 27.6825 9.24981 27.761C8.96742 27.9297 8.68103 28.0923 8.39664 28.26L7.43371 28.8128C7.10242 29.0044 6.77113 29.199 6.43584 29.3906C6.05267 29.6121 5.66849 29.8326 5.28331 30.0521L4.3583 30.579C4.32126 30.5972 4.29115 30.627 4.27248 30.6638C4.19764 30.6499 4.20962 30.582 4.19764 30.5341C4.08089 30.0352 3.97612 29.5313 3.87932 29.0273C3.73497 28.2174 3.46992 27.4336 3.09301 26.7023C2.72081 25.9968 2.23485 25.3931 1.54034 24.976C1.4988 24.9563 1.46406 24.9247 1.44055 24.8852C1.44055 24.8443 1.44055 24.8024 1.44055 24.7615V22.2938C1.48672 22.2304 1.55009 22.1815 1.62316 22.1531C3.00719 21.3478 4.39621 20.5495 5.78224 19.7472C5.90598 19.6754 6.01774 19.5686 6.17341 19.5626Z" fill="#2676B7"/>
<path d="M9.69885 27.4976C9.69885 27.4886 9.69885 27.4806 9.69885 27.4716C9.84753 27.4577 9.9563 27.3579 10.079 27.29C10.4293 27.0905 10.7775 26.8909 11.1248 26.6913L12.0508 26.1545C12.1376 26.1036 12.2264 26.0547 12.3113 26.0018C12.3724 25.9686 12.4414 25.9528 12.5108 25.9559C12.5789 25.9162 12.6592 25.903 12.7363 25.919C13.4273 25.9335 14.1183 25.8864 14.8009 25.7783C15.1901 25.7174 15.5733 25.6256 15.9544 25.5288C16.0051 25.5066 16.062 25.5031 16.1151 25.5188C16.1211 26.2982 16.1221 27.0785 16.1151 27.8578C16.0762 27.9067 16.0931 27.9636 16.0931 28.0175C16.0931 29.0074 16.0931 29.9972 16.0931 30.9871V31.1458C15.9772 31.1091 15.868 31.0539 15.7698 30.9821C15.3707 30.7556 14.9715 30.5221 14.5724 30.2906C14.1962 30.0721 13.822 29.8525 13.4458 29.635C13.1095 29.4404 12.7703 29.2498 12.434 29.0563C12.0538 28.8367 11.6756 28.6142 11.2954 28.3937C10.9791 28.2101 10.6618 28.0295 10.3445 27.8468C10.1818 27.753 10.0212 27.6572 9.85851 27.5644C9.81168 27.5292 9.7568 27.5063 9.69885 27.4976Z" fill="#3BA2BE"/>
<path d="M1.4426 24.8853C1.70466 25.0169 1.94549 25.1871 2.15707 25.3902C2.69392 25.8891 3.06512 26.4968 3.3545 27.1624C3.55628 27.6187 3.71302 28.0936 3.8225 28.5803C3.93326 29.0793 4.03105 29.5902 4.13882 30.0941C4.17212 30.2867 4.21745 30.477 4.27453 30.6639C4.35037 31.046 4.45714 31.4192 4.56291 31.7934C4.67834 32.1988 4.83412 32.5916 5.02792 32.9659C5.35651 33.6056 5.85955 34.1391 6.47881 34.5046C6.8091 34.7042 7.14039 34.8978 7.47068 35.0944C7.7039 35.2403 7.92543 35.4041 8.13326 35.5843C8.40805 35.8127 8.67021 36.0559 8.91858 36.3128C9.39828 36.8114 9.84179 37.3436 10.2457 37.9053C10.571 38.3544 10.9033 38.7974 11.2296 39.2455C11.4049 39.4747 11.6035 39.6851 11.8224 39.8731C12.0668 40.0947 12.3073 40.3212 12.5697 40.5207C12.9449 40.8051 13.3431 41.0486 13.8061 41.1584C14.0737 41.219 14.3486 41.2408 14.6223 41.2232C15.0414 41.2023 15.4645 41.1713 15.8836 41.2432V42.7799C15.8348 42.7989 15.8038 42.7629 15.7699 42.744L12.4769 40.8411C12.4101 40.8021 12.3472 40.7562 12.2824 40.7143C12.219 40.6233 12.137 40.5468 12.0419 40.4898C11.7069 40.2269 11.3939 39.9373 11.1059 39.6237C10.8674 39.3652 10.6339 39.1028 10.4074 38.8254C10.0272 38.3644 9.65699 37.8944 9.28479 37.4284C9.09121 37.1859 8.88565 36.9504 8.68607 36.7119C8.35159 36.3116 7.99513 35.9302 7.61836 35.5694C7.05185 35.0128 6.37836 34.577 5.63861 34.2881C5.44602 34.2153 5.25343 34.1424 5.06583 34.0576C4.7263 33.9064 4.42717 33.6774 4.19271 33.389C3.88177 32.9919 3.63651 32.5476 3.46626 32.0728C3.27335 31.5499 3.1173 31.0141 2.99927 30.4693C2.90547 30.0652 2.81566 29.658 2.68394 29.2639C2.5428 28.7944 2.31689 28.3547 2.01737 27.9666C1.86662 27.7745 1.66356 27.63 1.43262 27.5505C1.43262 27.5136 1.42664 27.4777 1.42664 27.4408C1.42664 26.6298 1.42664 25.8186 1.42664 25.007C1.43562 24.9671 1.44061 24.9262 1.4426 24.8853Z" fill="#62B1F8"/>
<path d="M6.17335 19.5627L2.62995 21.6083C2.2308 21.8378 1.83432 22.0663 1.4405 22.2938C1.4405 22.2429 1.43451 22.194 1.43451 22.1431C1.43451 20.0809 1.43451 18.0187 1.43451 15.9564C1.42727 15.9049 1.43136 15.8525 1.44648 15.8027C1.49444 15.8162 1.53946 15.8386 1.5792 15.8686L6.96765 18.9819C6.99459 18.9979 7.02353 19.0119 7.05147 19.0268C7.07941 19.0418 7.07242 19.0647 7.05147 19.0757C6.90378 19.1755 6.76309 19.2923 6.57948 19.3262C6.49666 19.2264 6.41683 19.1176 6.33002 19.0188C6.07104 18.7137 5.73762 18.4807 5.36209 18.3423C5.25365 18.3042 5.13814 18.2906 5.02382 18.3024C4.97693 18.3042 4.93114 18.3171 4.89012 18.3398C4.84911 18.3626 4.81403 18.3948 4.78772 18.4336C4.7614 18.4724 4.74458 18.5169 4.73862 18.5635C4.73266 18.61 4.73772 18.6573 4.75339 18.7015C4.80338 18.852 4.91104 18.9766 5.05275 19.0478C5.15635 19.1065 5.26655 19.1527 5.38105 19.1855C5.60626 19.2475 5.82408 19.3339 6.03066 19.4429C6.08554 19.4739 6.15439 19.4918 6.17335 19.5627Z" fill="white"/>
<path d="M10.086 20.782L11.4561 21.5683L15.197 23.7267C15.2083 23.7341 15.219 23.7425 15.229 23.7516C15.0836 23.8633 14.9212 23.9509 14.748 24.0111C14.3226 24.1935 13.8771 24.3251 13.4208 24.4032C12.8976 24.5001 12.3645 24.5336 11.8332 24.503C11.0619 24.4601 10.3135 24.3034 9.63795 23.8973C9.17594 23.6209 8.81971 23.2487 8.72092 22.6879C8.66604 22.3806 8.76683 22.1091 8.90553 21.8477C9.12805 21.4286 9.48529 21.1442 9.87844 20.8987C9.94419 20.854 10.0136 20.8149 10.086 20.782Z" fill="#58D3E3"/>
<path d="M25.1138 26.5296V26.5037L25.957 26.0137L27.0995 25.3551L28.3069 24.6636L29.651 23.8873L30.9962 23.1119C31.4372 22.8585 31.8776 22.6044 32.3173 22.3496L32.8871 22.0173C33.0458 21.9245 33.0478 21.7788 32.8871 21.684C32.6875 21.5643 32.483 21.4495 32.2814 21.3328L30.9483 20.5644L29.5912 19.7811L28.4935 19.1494C28.4728 19.1394 28.4563 19.1224 28.4466 19.1015C28.5065 19.0167 28.6133 19.0018 28.6921 18.9409C28.7448 18.9071 28.8002 18.8777 28.8577 18.8531C28.9179 18.8558 28.9758 18.8771 29.0234 18.9139C30.3056 19.6534 31.5859 20.3978 32.8701 21.1352C32.8981 21.1511 32.925 21.1691 32.954 21.1821C32.9979 21.202 33.0248 21.1911 33.0308 21.1412C33.0333 21.0953 33.0333 21.0493 33.0308 21.0035V16.6129C33.0275 16.5487 33.0322 16.4843 33.0448 16.4213C33.0647 16.4013 33.0887 16.3993 33.0947 16.4293C33.0982 16.4704 33.0982 16.5118 33.0947 16.553C33.0947 18.0831 33.0947 19.6148 33.0947 21.1481C33.0947 25.2726 33.0947 29.3951 33.0947 33.5156C33.0947 33.5725 33.1196 33.6354 33.0677 33.6843C33.0677 32.0924 33.0677 30.5004 33.0677 28.9085V25.0019C33.0677 24.943 33.0677 24.8831 33.0627 24.8233C33.0317 24.7667 33.0211 24.7011 33.0328 24.6377C33.0328 24.1647 33.0328 23.6927 33.0328 23.2207C33.0328 23.0211 33.0029 22.9932 32.8073 23.0261C32.3086 23.1069 31.8227 23.2531 31.3624 23.4612C30.6532 23.7871 30.0038 24.23 29.4415 24.7714C28.5836 25.5905 27.8746 26.5524 27.346 27.6143C27.3111 27.6841 27.3011 27.7779 27.2043 27.8029C27.2043 27.759 27.1684 27.744 27.1364 27.7251L26.2952 27.2361L25.1657 26.5885C25.1421 26.5754 25.1238 26.5546 25.1138 26.5296Z" fill="#2676B7"/>
<path d="M33.0459 16.4243C33.0564 16.4287 33.0654 16.4362 33.0715 16.4458C33.0775 16.4555 33.0805 16.4668 33.0798 16.4782C33.0798 16.5151 33.0798 16.552 33.0798 16.589V21.1163C33.0855 21.1674 33.0818 21.2191 33.0688 21.2689C33.0129 21.2849 32.976 21.242 32.9351 21.219C32.2 20.7959 31.4656 20.3719 30.7318 19.9468L28.9457 18.914C28.9117 18.8999 28.8808 18.8792 28.8549 18.8531C28.9287 18.8082 29.0015 18.7613 29.0774 18.7174L32.969 16.4662C32.997 16.4513 33.0219 16.4383 33.0459 16.4243Z" fill="white"/>
<path d="M12.1545 19.6783C12.1545 19.4857 12.1545 19.2941 12.1545 19.1015C12.2508 19.0477 12.3586 19.0179 12.4689 19.0147C13.1657 18.9016 13.8715 18.8525 14.5773 18.868C14.9252 18.8796 15.2723 18.9092 15.6171 18.9569C16.3384 19.0431 17.0439 19.2309 17.7126 19.5147C18.1972 19.7147 18.643 19.998 19.0298 20.3519C19.4629 20.763 19.7712 21.2499 19.8121 21.8676C19.8447 22.3196 19.7261 22.7697 19.4748 23.1469C19.4474 23.175 19.4129 23.1953 19.3751 23.2057C19.347 23.2155 19.3169 23.2177 19.2877 23.2123C19.2584 23.2069 19.2311 23.194 19.2084 23.1748C18.94 23.0191 18.6676 22.8695 18.4031 22.7058C18.3614 22.6744 18.3108 22.6568 18.2586 22.6556C18.2063 22.6543 18.155 22.6695 18.1118 22.6988C17.998 22.7677 17.8823 22.8315 17.7665 22.8984C17.7236 22.9224 17.6767 22.9703 17.6228 22.9124C17.642 22.8231 17.6739 22.7371 17.7176 22.6569C17.9371 22.0003 17.8274 21.4156 17.3564 20.8987C16.8854 20.3818 16.3126 20.1004 15.675 19.9008C15.1075 19.7379 14.524 19.6375 13.9347 19.6015C13.3859 19.5536 12.8481 19.6284 12.3082 19.6923C12.2493 19.6953 12.1994 19.7182 12.1545 19.6783Z" fill="#58D3E3"/>
<path d="M15.8866 23.2617C15.6052 23.119 15.3378 22.9514 15.0644 22.7947C13.7047 22.0124 12.3449 21.2284 10.9851 20.4428C10.9783 20.4366 10.972 20.4299 10.9662 20.4228C11.054 20.345 11.1658 20.344 11.2745 20.323C11.7567 20.1913 12.2536 20.1206 12.7534 20.1125C13.0787 20.1125 13.405 20.0915 13.7293 20.1394C14.4377 20.2452 15.1263 20.4038 15.725 20.8259C16.0018 21.0094 16.2244 21.2637 16.3696 21.5624C16.4925 21.8325 16.5172 22.1371 16.4395 22.4235C16.3588 22.7274 16.1966 23.0034 15.9705 23.2218C15.9472 23.2433 15.918 23.2572 15.8866 23.2617Z" fill="#58D3E3"/>
<path d="M9.17496 20.2592C9.35458 20.349 9.52621 20.4527 9.69684 20.5585C9.67988 20.6194 9.622 20.6363 9.57809 20.6663C9.16786 20.9301 8.81933 21.2793 8.55629 21.6901C8.36427 22.0059 8.28126 22.3761 8.32002 22.7436C8.35878 23.1112 8.51716 23.4559 8.77082 23.7247C9.30069 24.2855 9.96826 24.5919 10.6947 24.7884C11.201 24.9173 11.7194 24.9932 12.2414 25.015C12.8588 25.042 13.4773 25.0001 14.0854 24.8902C14.1167 24.8816 14.1501 24.8848 14.1792 24.8992C14.2082 24.9491 14.1643 24.9661 14.1363 24.983C13.6943 25.2415 13.2532 25.5039 12.8032 25.7494C12.7944 25.7523 12.7854 25.7543 12.7762 25.7554C12.9658 25.7554 13.1544 25.7554 13.344 25.7554C13.3667 25.7518 13.39 25.7528 13.4123 25.7585C13.4346 25.7642 13.4555 25.7743 13.4737 25.7883C13.4638 25.8621 13.4029 25.8502 13.357 25.8522C12.9723 25.8597 12.5876 25.8457 12.2045 25.8103C11.7704 25.7781 11.3392 25.7147 10.9142 25.6207C10.5427 25.5388 10.1778 25.4294 9.82257 25.2934C9.36158 25.1239 8.92917 24.8849 8.54032 24.5849C8.18524 24.3215 7.8954 23.9801 7.69313 23.587C7.55903 23.3196 7.4873 23.0252 7.48333 22.726C7.47935 22.4268 7.54324 22.1307 7.67018 21.8597C7.95857 21.1942 8.46847 20.7311 9.03526 20.312C9.07777 20.2852 9.1253 20.2672 9.17496 20.2592Z" fill="#58D3E3"/>
<path d="M11.6068 19.8679C11.6563 19.9139 11.7117 19.9532 11.7715 19.9847C11.9341 20.0555 12.0399 20.0186 12.1147 19.8599C12.1257 19.836 12.1257 19.806 12.1487 19.7871C12.1607 19.7676 12.1776 19.7517 12.1978 19.7408C12.2179 19.73 12.2405 19.7246 12.2634 19.7252C12.7488 19.6594 13.2385 19.6303 13.7283 19.6384C14.2178 19.65 14.705 19.7088 15.1831 19.814C15.6404 19.9104 16.0821 20.0699 16.4953 20.288C16.9803 20.5475 17.3934 20.8817 17.6359 21.3986C17.7374 21.6177 17.7867 21.8574 17.7799 22.0987C17.7732 22.3401 17.7106 22.5766 17.597 22.7896C17.5427 22.926 17.4608 23.0497 17.3565 23.1529C17.096 23.2527 16.8725 23.4163 16.629 23.545C16.5702 23.576 16.5173 23.6298 16.4415 23.5889C16.2658 23.4891 16.0902 23.3963 15.9226 23.2896C16.0482 23.1565 16.164 23.0145 16.2688 22.8645C16.657 22.2428 16.5682 21.6172 16.0762 21.1092C15.6472 20.6642 15.1083 20.4277 14.5236 20.275C13.9567 20.1221 13.3701 20.0548 12.7833 20.0755C12.5049 20.0874 12.2285 20.1224 11.9511 20.1603C11.5968 20.2092 11.2526 20.3189 10.9083 20.3918L10.583 20.2032C10.8027 20.0916 11.0348 20.0065 11.2745 19.9497C11.3817 19.9094 11.4932 19.8819 11.6068 19.8679Z" fill="#58D3E3"/>
<path d="M9.7846 20.6113C9.87062 20.6488 9.95227 20.6957 10.0281 20.751C9.97419 20.8508 9.86443 20.8808 9.77961 20.9366C9.52041 21.1 9.28757 21.3019 9.08908 21.5353C8.85525 21.7982 8.71675 22.1321 8.69593 22.4833C8.68859 22.7046 8.74099 22.9239 8.8476 23.118C9.05 23.4756 9.35149 23.767 9.71574 23.9572C10.1529 24.1897 10.6246 24.3504 11.1127 24.4331C11.464 24.4981 11.8203 24.5315 12.1775 24.5329C12.6216 24.5384 13.0651 24.4972 13.5006 24.4102C14.0941 24.3039 14.6668 24.1035 15.197 23.8165C15.2255 23.8016 15.2561 23.7911 15.2878 23.7855C15.4309 23.8577 15.5695 23.9383 15.7029 24.027C15.7129 24.0869 15.661 24.1048 15.6251 24.1268C15.3197 24.2964 15.0264 24.492 14.711 24.6407C14.6731 24.6587 14.739 24.6746 14.711 24.6906C14.6428 24.7375 14.5639 24.7666 14.4815 24.7754C13.9835 24.8795 13.4786 24.9479 12.9708 24.98C12.3119 25.0145 11.6514 24.9605 11.007 24.8193C10.3867 24.7068 9.79688 24.4655 9.27569 24.1108C8.88552 23.8374 8.56721 23.5021 8.41354 23.0361C8.25986 22.5701 8.35366 22.146 8.58118 21.7389C8.83962 21.2739 9.23677 20.9406 9.66984 20.6512C9.70392 20.6281 9.7435 20.6143 9.7846 20.6113Z" fill="#58D3E3"/>
<path d="M17.6299 22.9264C17.7966 22.8336 17.9682 22.7468 18.1288 22.647C18.1666 22.622 18.2113 22.6095 18.2565 22.6111C18.3018 22.6127 18.3454 22.6284 18.3813 22.656C18.6747 22.8306 18.971 23.0003 19.2644 23.1749C19.2952 23.192 19.3292 23.2025 19.3642 23.2058C18.97 23.4373 18.5769 23.6718 18.1797 23.8993C18.1416 23.9156 18.1099 23.9439 18.0896 23.98C18.0692 24.0161 18.0612 24.0579 18.067 24.0989C18.075 24.2316 18.067 24.3643 18.067 24.498C18.0318 24.54 17.9896 24.5755 17.9422 24.6028C17.5832 24.8194 17.2063 25.0051 16.8157 25.1576C16.7588 25.1806 16.7009 25.2175 16.6331 25.1876C16.6331 24.7665 16.6331 24.3454 16.6331 23.9243C16.7209 23.8454 16.8107 23.7696 16.9055 23.6978C17.1443 23.5009 17.354 23.2711 17.5281 23.0152C17.5561 22.9763 17.5651 22.9204 17.6299 22.9264Z" fill="#3BA2BE"/>
<path d="M8.27185 18.874C8.28981 18.8271 8.33272 18.8092 8.37164 18.7862L9.77962 17.973C9.82742 17.9371 9.88463 17.916 9.94427 17.9121C10.4632 18.2115 10.8324 18.6525 11.1317 19.1594C11.1405 19.1754 11.1478 19.1921 11.1537 19.2093C11.1029 19.256 11.0405 19.288 10.9731 19.3021C10.6013 19.4193 10.2385 19.563 9.88739 19.7322C9.86203 19.7427 9.8356 19.7504 9.80856 19.7552L8.66402 19.1006L8.27185 18.874Z" fill="#58D3E3"/>
<path d="M13.4708 25.7932H12.7294C12.9612 25.6274 13.2035 25.4767 13.4548 25.3422C13.7003 25.2015 13.9428 25.0568 14.1872 24.9141C14.2009 24.8958 14.2185 24.8806 14.2386 24.8697C14.2588 24.8589 14.2811 24.8526 14.304 24.8513C14.891 24.7306 15.4608 24.5375 16.0004 24.2765C16.0288 24.2619 16.0595 24.2522 16.0912 24.2476C16.1321 24.2715 16.1171 24.3124 16.1171 24.3473C16.1171 24.6906 16.1171 25.0329 16.1171 25.3761C16.081 25.4116 16.0352 25.4356 15.9854 25.445C15.4768 25.5847 14.9594 25.6903 14.4367 25.7613C14.1722 25.7996 13.9056 25.8223 13.6384 25.8292C13.6095 25.8345 13.5798 25.8341 13.551 25.8279C13.5222 25.8218 13.495 25.81 13.4708 25.7932Z" fill="#3BA2BE"/>
<path d="M13.4707 25.7932C14.0504 25.7755 14.6273 25.7071 15.195 25.5887C15.4854 25.5288 15.7708 25.449 16.0582 25.3791C16.0765 25.3776 16.0948 25.3776 16.1131 25.3791C16.1131 25.425 16.1131 25.4719 16.1131 25.5188C15.8177 25.6083 15.518 25.6826 15.215 25.7414C15.0035 25.7763 14.7949 25.8302 14.5814 25.8551C14.3678 25.8801 14.1273 25.909 13.9008 25.929C13.4393 25.9634 12.9763 25.9724 12.5138 25.9559C12.4996 25.9454 12.4834 25.938 12.4663 25.9341C12.4491 25.9301 12.4313 25.9297 12.414 25.9329C12.2144 25.9389 12.0149 25.893 11.8153 25.886C11.488 25.8731 11.1777 25.7733 10.8563 25.7334C10.748 25.715 10.6415 25.6873 10.538 25.6506C10.2387 25.5568 9.94629 25.4659 9.65791 25.3512C9.33169 25.2191 9.0192 25.0553 8.72491 24.8622C8.42518 24.6658 8.15617 24.426 7.92662 24.1508C7.67772 23.8503 7.50304 23.4955 7.41671 23.115C7.34995 22.7922 7.3647 22.4578 7.45962 22.1421C7.5362 21.8644 7.65899 21.6016 7.82284 21.3647C8.03924 21.0516 8.29895 20.7707 8.59419 20.5305C8.71294 20.4307 8.83667 20.3369 8.9634 20.2471C8.99644 20.2229 9.0354 20.2081 9.07616 20.2042C9.11583 20.2178 9.1522 20.2396 9.18293 20.2681C9.12408 20.3253 9.05677 20.3731 8.98335 20.4098C8.7759 20.5587 8.58008 20.7231 8.39761 20.9017C8.16109 21.124 7.96166 21.3828 7.80688 21.6681C7.59107 22.0439 7.49467 22.4765 7.53047 22.9084C7.55642 23.1401 7.6219 23.3655 7.72405 23.575C7.85326 23.8379 8.02676 24.0765 8.23696 24.2805C8.41079 24.4488 8.59949 24.6011 8.80075 24.7355C9.02535 24.8825 9.25861 25.0158 9.49925 25.1347C9.59904 25.1855 9.7088 25.2225 9.81457 25.2654C10.1339 25.3907 10.4617 25.4934 10.7955 25.5727C11.0779 25.6416 11.3672 25.6895 11.6546 25.7394C11.7754 25.7603 11.9001 25.7573 12.0228 25.7683C12.4534 25.8175 12.8868 25.8375 13.3201 25.8282C13.3739 25.8142 13.4268 25.8312 13.4707 25.7932Z" fill="#A8F2FD"/>
<path d="M19.4669 23.1469C19.439 23.121 19.4589 23.1 19.4719 23.0751C19.6204 22.8171 19.7161 22.5322 19.7533 22.2369C19.8059 21.803 19.711 21.364 19.4839 20.9905C19.3545 20.7696 19.1946 20.568 19.0089 20.3918C18.8044 20.2026 18.5807 20.0354 18.3413 19.8929C18.1003 19.7435 17.8473 19.6144 17.5849 19.5067C17.253 19.3654 16.9086 19.2555 16.5561 19.1784C16.3955 19.1445 16.2388 19.0896 16.0762 19.0667C15.8227 19.0327 15.5713 18.9928 15.3178 18.9599C14.7985 18.9052 14.2758 18.8899 13.7541 18.914C13.5075 18.9203 13.2615 18.9427 13.0177 18.9809C12.7293 19.0238 12.44 19.0627 12.1506 19.1026L12.1416 19.0457C12.1416 18.9719 12.1895 18.9459 12.2564 18.9369C12.3831 18.92 12.5088 18.903 12.6345 18.8811C12.9179 18.8312 13.2043 18.8052 13.4897 18.7753C13.8676 18.7357 14.248 18.727 14.6273 18.7494C15.069 18.7755 15.509 18.8251 15.9454 18.898C16.2915 18.9567 16.6339 19.0347 16.9713 19.1315C17.3013 19.2242 17.6228 19.3451 17.9322 19.4928C18.3757 19.7002 18.783 19.9775 19.1386 20.314C19.3646 20.5278 19.5526 20.7785 19.6944 21.0554C19.8324 21.329 19.9067 21.6302 19.9119 21.9365C19.9283 22.2572 19.8678 22.5771 19.7353 22.8695C19.7163 22.9161 19.7013 22.9641 19.6904 23.0132C19.6219 23.0671 19.5468 23.112 19.4669 23.1469Z" fill="#A8F2FD"/>
<path d="M16.0881 24.2476C16.0253 24.3354 15.9195 24.3543 15.8307 24.3952C15.5155 24.5417 15.1888 24.6619 14.8538 24.7545C14.6332 24.8153 14.4097 24.8612 14.1872 24.9141C14.0862 24.9237 13.9861 24.9411 13.8878 24.966C13.5655 24.997 13.2452 25.0468 12.9199 25.0538C12.7702 25.0703 12.6194 25.0753 12.4689 25.0688C12.1925 25.0329 11.9111 25.0688 11.6377 24.999C11.5379 24.975 11.4381 24.984 11.3383 24.968C11.0046 24.9174 10.6758 24.8386 10.3554 24.7325C10.0003 24.6173 9.66152 24.4566 9.34757 24.2545C9.03167 24.0596 8.75981 23.8009 8.54929 23.4952C8.34265 23.1944 8.24415 22.8324 8.26989 22.4684C8.29116 22.1897 8.37691 21.9199 8.52035 21.6801C8.77953 21.2621 9.13072 20.9089 9.54715 20.6473C9.59604 20.6144 9.64693 20.5874 9.70181 20.5585C9.73519 20.5682 9.76546 20.5864 9.78963 20.6114C9.62797 20.7311 9.45734 20.8359 9.30367 20.9666C8.95941 21.259 8.65606 21.5823 8.49241 22.0153C8.39655 22.2486 8.36192 22.5026 8.39178 22.753C8.42164 23.0034 8.51502 23.2421 8.66304 23.4463C8.93405 23.8266 9.2969 24.1321 9.71778 24.3344C10.0149 24.4852 10.3265 24.6055 10.6478 24.6936C10.9716 24.7863 11.3028 24.8511 11.6377 24.8872C11.9722 24.9347 12.3096 24.9593 12.6475 24.961C12.8471 24.961 13.0566 24.9341 13.2612 24.9181C13.4657 24.9022 13.6523 24.8862 13.8459 24.8533C14.1397 24.8179 14.4296 24.7558 14.7121 24.6677C14.7223 24.6524 14.7355 24.6393 14.7509 24.6294C14.7664 24.6194 14.7837 24.6127 14.8019 24.6098C15.1589 24.511 15.5071 24.3825 15.8427 24.2256C15.8841 24.2054 15.9293 24.1939 15.9754 24.1917C16.0174 24.1996 16.0564 24.219 16.0881 24.2476Z" fill="#A8F2FD"/>
<path d="M17.6298 22.9264C17.5171 23.0861 17.4043 23.2447 17.2766 23.3934C17.1041 23.5753 16.9165 23.7422 16.7158 23.8923C16.6947 23.9103 16.6677 23.9198 16.64 23.9193C16.6325 23.8743 16.6325 23.8285 16.64 23.7836C16.7114 23.7009 16.794 23.6287 16.8854 23.569C17.0027 23.4681 17.1124 23.3587 17.2137 23.2417C17.2467 23.2048 17.2706 23.1569 17.3265 23.1479C17.5208 22.9118 17.6541 22.6315 17.7147 22.3317C17.7471 22.1195 17.745 21.9035 17.7087 21.692C17.6772 21.55 17.6204 21.4148 17.541 21.2929C17.3376 20.9503 17.0519 20.664 16.7098 20.4597C16.5106 20.3308 16.299 20.2222 16.0782 20.1354C15.807 20.0152 15.5226 19.9271 15.231 19.8729C15.1542 19.863 15.0823 19.832 15.0065 19.8161C14.3349 19.6704 13.6544 19.6684 12.9738 19.6873C12.7922 19.6991 12.6115 19.7228 12.433 19.7582C12.3382 19.7742 12.2394 19.7442 12.1496 19.7921C12.1415 19.7557 12.1436 19.7177 12.1556 19.6824C12.4829 19.6238 12.8135 19.5851 13.1455 19.5666C13.2961 19.5546 13.4448 19.5456 13.5965 19.5476C13.8062 19.5501 14.0155 19.5661 14.2231 19.5955C14.305 19.6075 14.3868 19.6015 14.4686 19.6135C14.762 19.6524 15.0534 19.7073 15.3418 19.7692C15.5064 19.8068 15.6684 19.8551 15.8267 19.9139C16.1374 20.0204 16.4361 20.1592 16.7178 20.328C17.1027 20.5527 17.4243 20.8713 17.6528 21.254C17.7823 21.4757 17.8511 21.7276 17.8524 21.9844C17.8584 22.2496 17.8098 22.5132 17.7097 22.7588C17.6837 22.8136 17.6298 22.8595 17.6298 22.9264Z" fill="#A8F2FD"/>
<path d="M15.2859 23.7855C15.2159 23.8577 15.1297 23.9121 15.0344 23.9442C14.696 24.113 14.3413 24.2467 13.9757 24.3433C13.6983 24.4192 13.4139 24.4571 13.1335 24.517C13.007 24.5365 12.8792 24.5455 12.7513 24.5439C12.5612 24.5694 12.3693 24.5801 12.1775 24.5758C11.9779 24.5549 11.7844 24.5679 11.5908 24.5299H11.5768C11.3273 24.5419 11.0908 24.4661 10.8494 24.4212C10.5224 24.3569 10.2051 24.2505 9.90539 24.1048C9.65083 23.9895 9.41531 23.836 9.20689 23.6498C8.94791 23.4281 8.76502 23.1308 8.68401 22.7996C8.6155 22.4755 8.66841 22.1374 8.83269 21.8497C8.92253 21.6798 9.03609 21.5236 9.16996 21.3857C9.33372 21.2138 9.51767 21.0623 9.71779 20.9346C9.8152 20.8668 9.91761 20.8064 10.0241 20.754L10.082 20.785C10.074 20.8458 10.0191 20.8638 9.98222 20.8847C9.74094 21.0154 9.51924 21.1793 9.32364 21.3717C9.05442 21.6207 8.86456 21.9434 8.7778 22.2997C8.72548 22.551 8.7607 22.8126 8.87759 23.0411C9.01438 23.3374 9.23369 23.5878 9.50924 23.7626C9.84446 23.9894 10.2156 24.1581 10.6069 24.2615C10.8065 24.3154 11.006 24.3493 11.2056 24.4042C11.3135 24.4228 11.4225 24.4348 11.5319 24.4401C11.8964 24.4796 12.2636 24.4886 12.6296 24.4671C12.8346 24.4599 13.0389 24.4392 13.2412 24.4052C13.4932 24.3648 13.7427 24.3105 13.9886 24.2425C14.3761 24.1391 14.7499 23.9901 15.1022 23.7985C15.1441 23.7797 15.1875 23.7646 15.232 23.7536L15.2859 23.7855Z" fill="#A7F2FD"/>
<path d="M10.9083 20.3919C10.9341 20.3628 10.9696 20.3441 11.0081 20.339C11.1584 20.2848 11.3139 20.2463 11.4721 20.2242C11.525 20.2242 11.5719 20.1843 11.6278 20.1773C11.8274 20.1504 12.0269 20.1135 12.2265 20.0875C12.5531 20.0465 12.8823 20.0298 13.2114 20.0376C13.399 20.0376 13.5836 20.0726 13.7702 20.0885C13.9514 20.1075 14.1313 20.1372 14.309 20.1773C14.6635 20.2463 15.0076 20.3606 15.3328 20.5176C15.6064 20.6464 15.8555 20.8217 16.0693 21.0355C16.1765 21.1414 16.2715 21.2588 16.3527 21.3858C16.4644 21.5593 16.5331 21.7571 16.5531 21.9626C16.5731 22.1681 16.5437 22.3754 16.4674 22.5672C16.3678 22.8136 16.2221 23.0388 16.0383 23.2308C16.0106 23.2616 15.9727 23.2815 15.9316 23.2867L15.8956 23.2617C15.9595 23.1849 16.0224 23.1061 16.0882 23.0302C16.3356 22.7546 16.4662 22.3935 16.4524 22.0234C16.4398 21.7431 16.3345 21.475 16.1531 21.261C15.908 20.9723 15.601 20.7424 15.255 20.5885C14.8943 20.4217 14.5137 20.302 14.1224 20.2322C13.6856 20.1549 13.2415 20.1258 12.7983 20.1454C12.5385 20.1511 12.2794 20.1748 12.0229 20.2163C11.7974 20.2522 11.5736 20.2934 11.3514 20.34C11.2303 20.3798 11.1056 20.4079 10.9792 20.4238L10.9083 20.3919Z" fill="#A7F2FD"/>
<path d="M11.2205 19.3171C11.3273 19.4748 11.4201 19.6404 11.5379 19.7911C11.5326 19.8062 11.5233 19.8196 11.511 19.8298C11.4987 19.84 11.4838 19.8466 11.468 19.849C11.1687 19.9298 10.8783 20.0306 10.5879 20.1344C10.5574 20.1431 10.5258 20.1478 10.4941 20.1484C10.2945 20.0486 10.1079 19.9338 9.91833 19.8191C10.0613 19.7288 10.2153 19.657 10.3764 19.6055C10.6483 19.4836 10.9309 19.3871 11.2205 19.3171Z" fill="#58D3E3"/>
<path d="M6.58655 19.3232L6.96574 19.1026C7.00066 19.0827 7.04457 19.0727 7.05454 19.0238L7.4966 19.2902L6.77614 19.7093C6.72426 19.5666 6.62646 19.4609 6.58655 19.3232Z" fill="#2676B7"/>
<path d="M16.632 25.1826C17.1206 25.0068 17.589 24.779 18.029 24.503C18.0413 24.4976 18.0545 24.4942 18.0679 24.493V24.6607C17.8424 24.7874 17.6198 24.9201 17.3824 25.0279C17.1668 25.1277 16.9533 25.2275 16.7297 25.3053C16.6998 25.3153 16.6679 25.3183 16.6369 25.3253L16.632 25.1826Z" fill="#A7F1FC"/>
<path d="M15.9755 24.1907C15.8641 24.2616 15.7449 24.3192 15.6202 24.3624C15.3273 24.491 15.0234 24.5929 14.7122 24.6667C14.7002 24.6567 14.6493 24.6587 14.6902 24.6318C14.79 24.5639 14.9018 24.5041 15.0085 24.4422C15.2081 24.3265 15.4137 24.2107 15.6152 24.094C15.6452 24.0734 15.6738 24.0511 15.701 24.0271C15.7992 24.0695 15.8915 24.1245 15.9755 24.1907Z" fill="#3BA2BE"/>
<path d="M11.2207 19.3172C11.1266 19.381 11.0202 19.4241 10.9083 19.4439C10.6619 19.5238 10.4234 19.6225 10.1859 19.7243C10.1025 19.7703 10.0122 19.8023 9.91846 19.8191L9.80969 19.7553C9.87214 19.6955 9.94764 19.6511 10.0302 19.6255C10.3825 19.4649 10.7487 19.3402 11.1139 19.2134C11.1275 19.2119 11.1412 19.2119 11.1548 19.2134C11.1835 19.2432 11.2059 19.2785 11.2207 19.3172Z" fill="#A7F1FD"/>
<path d="M17.3305 23.148C17.1477 23.3877 16.9293 23.598 16.6829 23.7716C16.6707 23.7778 16.6576 23.7819 16.644 23.7836C16.6454 23.7566 16.6382 23.7297 16.6233 23.7071C16.6084 23.6845 16.5866 23.6672 16.5612 23.6579C16.5186 23.643 16.4795 23.6196 16.4464 23.589C16.4875 23.5873 16.5271 23.5734 16.5602 23.5491C16.7927 23.4124 17.0282 23.2797 17.2587 23.145C17.2826 23.13 17.3036 23.116 17.3305 23.148Z" fill="#3CA3BE"/>
<path d="M10.4941 20.1484C10.6204 20.0788 10.7544 20.0242 10.8933 19.9857C11.1038 19.9119 11.3194 19.855 11.5339 19.7911C11.5383 19.7924 11.5422 19.7947 11.5455 19.7979C11.5488 19.801 11.5513 19.8048 11.5529 19.8091L11.5998 19.864C11.527 19.9189 11.4409 19.9534 11.3503 19.9638C11.1319 20.0207 10.9172 20.0914 10.7077 20.1753C10.666 20.193 10.6212 20.2022 10.576 20.2023C10.5451 20.1904 10.5172 20.172 10.4941 20.1484Z" fill="#A6F1FC"/>
<path d="M28.4198 19.1036C28.4165 19.1095 28.4115 19.1142 28.4054 19.1171C28.3993 19.12 28.3925 19.1209 28.3859 19.1196C28.3885 19.1132 28.3935 19.108 28.3998 19.1051C28.406 19.1021 28.4132 19.1016 28.4198 19.1036Z" fill="#2676B7"/>
<path d="M9.72581 16.7506C9.72581 16.6399 9.72581 16.5301 9.72581 16.4203C9.74178 16.1559 9.57913 15.9793 9.26181 16.0541C9.03172 16.1169 8.81069 16.2091 8.60422 16.3285C8.49146 16.3884 8.3817 16.4553 8.26894 16.5151C8.22406 16.5332 8.17567 16.5407 8.12743 16.5373C8.07919 16.5338 8.03238 16.5194 7.99054 16.4952C7.83687 16.4363 7.68519 16.3724 7.53052 16.3165C7.24037 16.2189 6.93819 16.1615 6.63245 16.1459C6.30016 16.122 5.96687 16.11 5.63458 16.0761C5.44898 16.0571 5.26138 16.0491 5.07778 16.0132C5.03743 16.0056 4.99773 15.9949 4.95903 15.9813C4.9261 15.9693 4.8822 15.9623 4.8832 15.9144C4.88419 15.8665 4.92211 15.8565 4.95404 15.8386C5.07357 15.7803 5.20154 15.7412 5.33323 15.7228C5.87852 15.6052 6.4166 15.4562 6.94478 15.2768C7.30245 15.1475 7.6732 15.0578 8.05041 15.0094C8.36989 14.9781 8.69202 14.9868 9.00935 15.0353C9.25698 15.0842 9.51227 15.0791 9.75774 15.0203C9.87516 14.9867 9.98232 14.9243 10.0695 14.8387C10.1566 14.7532 10.221 14.6472 10.2567 14.5304C10.3624 14.247 10.4123 13.9476 10.4962 13.6582C10.5516 13.4646 10.6182 13.2744 10.6957 13.0885C10.7955 12.849 10.8953 12.6075 11.0051 12.371C11.1148 12.1345 11.2376 11.905 11.3583 11.6725C11.4581 11.4899 11.5579 11.3123 11.6667 11.1367C11.8452 10.855 12.0384 10.5829 12.2454 10.3214C12.4121 10.1089 12.5917 9.90729 12.7703 9.70472C13.0108 9.4333 13.2692 9.17685 13.5297 8.92938C13.7685 8.69588 14.02 8.47569 14.283 8.2698C14.3918 8.18797 14.4956 8.09717 14.6024 8.01135C14.7261 7.91157 14.8608 7.82375 14.9895 7.72896C15.3376 7.48419 15.698 7.25738 16.0692 7.04941C16.1681 6.99144 16.2641 6.9285 16.3566 6.86082C16.4252 6.81067 16.4813 6.74546 16.5208 6.67021C16.5602 6.59496 16.5819 6.51168 16.5841 6.42675C16.5921 6.28106 16.6081 6.13537 16.624 5.99068C16.647 5.77151 16.649 5.55065 16.63 5.3311C16.6059 5.10433 16.5689 4.87911 16.5193 4.65654C16.4604 4.35718 16.3805 4.05783 16.3007 3.76545C16.2689 3.65563 16.2268 3.54906 16.175 3.44714C16.0253 3.14179 15.8467 2.84842 15.6761 2.56403C15.4773 2.22867 15.3243 1.86824 15.221 1.49233C15.191 1.36829 15.17 1.24222 15.1582 1.11513C15.1524 1.02326 15.167 0.931243 15.2011 0.845712C15.232 0.745926 15.3009 0.718983 15.4006 0.733951C15.5213 0.761061 15.6366 0.807927 15.7419 0.872654C16.1271 1.06325 16.5073 1.26382 16.8845 1.47137C17.1479 1.61104 17.3863 1.79347 17.59 2.01121C17.7869 2.22824 17.9571 2.46811 18.0969 2.72568C18.3613 3.21763 18.6337 3.70458 18.9341 4.17657C19.2494 4.66951 19.5408 5.17443 19.8202 5.69132C20.1096 6.22618 20.385 6.76901 20.7272 7.27493C20.9679 7.63184 21.2811 7.93409 21.6463 8.16203C22.019 8.38892 22.3396 8.69188 22.5872 9.05112C22.7065 9.23615 22.811 9.43034 22.8996 9.63188C23.0293 9.90125 23.2279 10.1316 23.4753 10.2994C23.8076 10.5359 24.1589 10.7415 24.4952 10.972C24.805 11.1832 25.1007 11.4145 25.3803 11.6645C25.6588 11.9151 25.9171 12.1874 26.1526 12.4788C26.461 12.8484 26.7104 13.2634 26.892 13.7091C26.9425 13.836 26.9663 13.9718 26.9619 14.1083C26.9636 14.189 26.939 14.2681 26.8918 14.3336C26.8447 14.3991 26.7775 14.4475 26.7004 14.4715C26.5966 14.5073 26.4879 14.5269 26.3781 14.5294C25.8828 14.5311 25.3921 14.4348 24.9342 14.246C24.582 14.1133 24.2447 13.9466 23.9034 13.793C23.5921 13.6503 23.2907 13.4856 22.9814 13.3379C22.6501 13.1803 22.3168 13.0296 21.9835 12.8799C21.5994 12.7083 21.2042 12.5646 20.8121 12.4149C20.5636 12.3211 20.3131 12.2273 20.0656 12.1415C19.7104 12.0198 19.3582 11.891 18.9969 11.7903C18.671 11.6911 18.3372 11.62 17.9991 11.5777C17.8454 11.5627 17.6927 11.5328 17.5401 11.5089C17.5267 11.5051 17.513 11.5028 17.4992 11.5019C17.2247 11.5069 16.9513 11.451 16.6769 11.4739C16.2678 11.5089 15.8587 11.5378 15.4525 11.6007C14.9961 11.6717 14.5471 11.7846 14.1114 11.9379C13.542 12.1279 12.9984 12.3876 12.4929 12.7113C12.2416 12.8706 12.0095 13.0584 11.8014 13.2711C11.4461 13.6473 11.1448 14.0594 10.9851 14.5583C10.9231 14.7588 10.88 14.9645 10.8564 15.173C10.8365 15.3181 10.8295 15.4647 10.8354 15.6111C10.8517 15.9554 10.9316 16.2937 11.0709 16.6089C11.2705 17.0799 11.5289 17.527 11.7165 18.0059C11.817 18.2758 11.884 18.557 11.9161 18.8431C11.9411 19.0347 11.9251 19.2263 11.956 19.4179C11.9628 19.5316 11.9548 19.6456 11.9321 19.7572C11.9261 19.8061 11.8862 19.818 11.8383 19.7791C11.7461 19.7109 11.6664 19.6272 11.6028 19.5317C11.488 19.3441 11.3773 19.1545 11.2655 18.9659C11.15 18.7525 11.0078 18.5546 10.8424 18.3771C10.7815 18.3153 10.7327 18.2434 10.6748 18.1776C10.4717 17.9646 10.2359 17.7854 9.97628 17.6467C9.88757 17.5976 9.82085 17.5166 9.78968 17.4202C9.75032 17.3128 9.73006 17.1993 9.72981 17.0849C9.72981 16.9741 9.72981 16.8644 9.72981 16.7546L9.72581 16.7506Z" fill="#375E8E"/>
<path d="M21.4866 5.12151C21.4915 5.39891 21.4656 5.63042 21.4496 5.86292C21.4427 5.96271 21.4107 5.97368 21.3149 5.92579C21.0908 5.81304 20.859 5.71601 20.6214 5.63541C20.4485 5.57677 20.2714 5.5314 20.0915 5.4997C20.0687 5.49726 20.0469 5.48913 20.0281 5.47605C20.0093 5.46297 19.994 5.44537 19.9838 5.42486C19.859 5.15943 19.6944 4.91495 19.5567 4.65651C19.5401 4.62627 19.53 4.59294 19.5269 4.55859C19.5238 4.52425 19.5278 4.48964 19.5387 4.45693C19.6197 4.15288 19.6715 3.84181 19.6934 3.52793C19.7353 3.12878 19.7044 2.72165 19.7213 2.31952C19.724 2.048 19.7695 1.7786 19.8561 1.52123C19.9281 1.32557 20.0519 1.15314 20.2143 1.0223C20.2503 0.994155 20.2895 0.970374 20.331 0.951448C20.4628 0.89457 20.5116 0.915525 20.5556 1.05123C20.6633 1.39516 20.7688 1.74076 20.8719 2.08801C20.9457 2.33748 21.0166 2.58694 21.0814 2.8404C21.1712 3.18466 21.2531 3.53092 21.3149 3.88117C21.3678 4.18053 21.4227 4.4739 21.4736 4.77026C21.4955 4.90896 21.4656 5.03968 21.4866 5.12151Z" fill="#375E8E"/>
<path d="M21.6582 7.8407C21.336 7.6327 21.0704 7.34816 20.8849 7.01248C20.9478 6.98155 21.0016 7.01946 21.0555 7.03743C21.8538 7.29986 22.5713 7.72695 23.2578 8.20792C23.971 8.72362 24.6387 9.2995 25.2535 9.92923C25.8091 10.4643 26.3104 11.0529 26.7503 11.6865C26.7847 11.7349 26.8142 11.7867 26.8381 11.8411C26.8539 11.8698 26.8679 11.8995 26.88 11.9299C26.9721 12.1633 27.0283 12.4092 27.0467 12.6594C26.9768 12.6674 26.9698 12.6045 26.9469 12.5656C26.6924 12.1152 26.3914 11.6928 26.0488 11.3053C25.7119 10.9252 25.3563 10.5622 24.9831 10.2176C24.6279 9.88033 24.2547 9.56301 23.8745 9.25367C23.5931 9.02516 23.3067 8.80464 23.0073 8.60207C22.6566 8.36627 22.2898 8.15521 21.9097 7.97043C21.8209 7.93051 21.7401 7.88661 21.6582 7.8407Z" fill="#B8C7DB"/>
<path d="M26.4649 10.8812C26.5573 11.0357 26.6313 11.2005 26.6854 11.3721C26.6156 11.3771 26.5936 11.3183 26.5627 11.2724C26.1867 10.7751 25.7723 10.308 25.3234 9.87535C24.6958 9.23913 24.014 8.65884 23.2857 8.14107C22.6072 7.67407 21.9057 7.25596 21.1214 6.99053C21.009 6.96735 20.9008 6.92767 20.8001 6.87278C20.6975 6.71584 20.6039 6.55327 20.5197 6.38583C20.6344 6.34292 20.7432 6.39381 20.845 6.42674C21.5644 6.66024 22.222 7.01847 22.8676 7.40664C23.8425 7.99338 24.6757 8.74278 25.4391 9.57998C25.6706 9.83344 25.8852 10.1009 26.1186 10.3533C26.1882 10.4384 26.2519 10.528 26.3092 10.6217C26.3414 10.6688 26.3707 10.7178 26.3971 10.7684C26.416 10.8103 26.4489 10.8403 26.4649 10.8812Z" fill="#B8C7DB"/>
<path d="M23.0442 9.27162C22.8797 8.96106 22.6732 8.67464 22.4305 8.42045C22.4397 8.4104 22.452 8.40372 22.4655 8.40149C22.6363 8.4667 22.7964 8.55718 22.9404 8.66991C23.4902 9.05873 24.016 9.48026 24.5151 9.93221C24.9551 10.3144 25.3702 10.7225 25.7724 11.1436C26.2333 11.6238 26.6271 12.1642 26.9429 12.7502C26.994 12.8262 27.0361 12.9079 27.0686 12.9936C27.0786 13.0156 27.0776 13.0415 27.0876 13.0645C27.0876 13.1643 27.0876 13.2561 27.0876 13.3529C27.0888 13.3613 27.0868 13.3699 27.082 13.3769C27.0772 13.3839 27.0699 13.3889 27.0616 13.3908C26.9949 13.292 26.9365 13.1879 26.887 13.0795C26.7143 12.7829 26.5178 12.5009 26.2993 12.2363C25.9873 11.8701 25.6462 11.5297 25.2794 11.2185C25.2316 11.171 25.1863 11.121 25.1437 11.0688C25.026 10.9599 24.9153 10.8435 24.8124 10.7205C24.2812 10.1962 23.7 9.72494 23.0772 9.31353C23.0672 9.30256 23.0592 9.2836 23.0442 9.27162Z" fill="#B8C7DB"/>
<path d="M16.3437 5.96779C16.3437 6.07256 16.3347 6.17834 16.3297 6.28411C16.2416 6.37044 16.1371 6.43829 16.0224 6.48368C15.5491 6.74815 15.0968 7.04839 14.6693 7.38176C14.2266 7.72341 13.8109 8.09872 13.4259 8.50435C13.0996 8.85759 12.7404 9.1809 12.4281 9.54911C11.9289 10.1363 11.494 10.7753 11.1309 11.455C11.089 11.5329 11.07 11.6306 10.9792 11.6756C10.9443 11.6616 10.9453 11.6366 10.9572 11.6087C11.0719 11.275 11.211 10.9501 11.3733 10.6368C11.3796 10.6202 11.3872 10.6041 11.3963 10.5889C11.4252 10.544 11.4462 10.4891 11.4721 10.4472C11.4981 10.4053 11.528 10.3474 11.554 10.3005C11.9269 9.70664 12.3492 9.14519 12.8163 8.6221C13.1376 8.25488 13.5197 7.95353 13.871 7.61925C14.2996 7.21296 14.7676 6.85028 15.268 6.53657C15.5783 6.33699 15.8986 6.16337 16.221 5.98774C16.2639 5.96779 16.3008 5.94384 16.3437 5.96779Z" fill="#B8C7DB"/>
<path d="M20.4449 6.24916L20.1794 5.79514C20.2045 5.78647 20.2311 5.78333 20.2574 5.78591C20.2838 5.78849 20.3093 5.79675 20.3321 5.8101C21.4697 6.19415 22.5433 6.74644 23.5173 7.44859C23.9509 7.77915 24.3595 8.14137 24.7397 8.53227C25.0486 8.83886 25.3389 9.16375 25.6088 9.50518C25.6442 9.54123 25.6726 9.58352 25.6926 9.62991C25.6986 9.65686 25.6826 9.66684 25.6607 9.67183C25.6028 9.67183 25.5749 9.62293 25.541 9.58601C25.0302 9.0092 24.4674 8.48075 23.8596 8.00739C23.5033 7.74148 23.1325 7.49563 22.7489 7.27097C22.3002 7.00214 21.8335 6.76475 21.3519 6.5605C21.0919 6.45305 20.8253 6.36239 20.5536 6.28908C20.5154 6.28203 20.4786 6.26853 20.4449 6.24916Z" fill="#B8C7DB"/>
<path d="M27.0656 13.0227C26.9339 12.7972 26.8072 12.5697 26.6665 12.3491C26.3833 11.8999 26.0538 11.4815 25.6836 11.1008C25.1024 10.4978 24.4863 9.92935 23.8385 9.39845C23.4788 9.09517 23.1005 8.81456 22.7059 8.55825C22.6281 8.50935 22.5493 8.45846 22.4705 8.41655C22.4233 8.3926 22.3773 8.36629 22.3327 8.33772L21.8588 7.98248C21.8588 7.93359 21.8817 7.93359 21.9166 7.95055C22.1023 8.02741 22.2821 8.1178 22.4545 8.22097C22.8901 8.46806 23.3043 8.7511 23.6928 9.06716C24.072 9.36652 24.4452 9.68084 24.8015 10.0121C25.0829 10.2736 25.3652 10.535 25.6327 10.8104C25.9296 11.1097 26.2066 11.428 26.4619 11.7634C26.6659 12.0342 26.8496 12.3197 27.0117 12.6175C27.0211 12.6327 27.0318 12.6471 27.0437 12.6605C27.0639 12.7311 27.0733 12.8045 27.0716 12.878C27.0806 12.9012 27.0848 12.9261 27.0837 12.951C27.0827 12.9759 27.0765 13.0003 27.0656 13.0227Z" fill="#FFCC01"/>
<path d="M20.8 6.87683C20.9578 6.90395 21.1121 6.94846 21.2601 7.00955C21.772 7.19418 22.2614 7.43621 22.7189 7.731C23.1388 7.99196 23.5436 8.27647 23.9313 8.58317C24.2846 8.86756 24.6149 9.16692 24.9442 9.46628C25.2735 9.76564 25.5758 10.078 25.8732 10.4013C26.1299 10.6756 26.3714 10.9638 26.5966 11.2644C26.6198 11.3029 26.6499 11.3367 26.6854 11.3642C26.7601 11.5104 26.8164 11.6652 26.8531 11.8252C26.8621 11.8502 26.8531 11.8552 26.8281 11.8492C26.5347 11.4174 26.2144 11.0045 25.8692 10.6128C25.49 10.1897 25.0849 9.79258 24.6717 9.40541C24.3072 9.05896 23.9217 8.73537 23.5172 8.43649C22.9055 7.99144 22.2809 7.56635 21.5784 7.27398C21.3499 7.17918 21.1164 7.09935 20.8799 7.01254C20.8458 6.97211 20.8188 6.92623 20.8 6.87683Z" fill="#FFCC01"/>
<path d="M20.4448 6.24915C20.564 6.25308 20.6816 6.27808 20.7921 6.32299C21.2386 6.47057 21.6724 6.65412 22.0893 6.87181C22.5237 7.09805 22.9463 7.34617 23.3556 7.61522C23.8721 7.95539 24.3555 8.34326 24.7995 8.77373C25.0988 9.05812 25.3743 9.36347 25.6606 9.65984C25.7754 9.72569 25.8203 9.85941 25.9211 9.93624C26.0698 10.1459 26.2032 10.366 26.3202 10.5948C26.3382 10.6268 26.3382 10.6497 26.2923 10.6497C26.0538 10.3364 25.7993 10.036 25.5359 9.74365C25.0953 9.24585 24.6209 8.77907 24.116 8.34665C23.8181 8.0963 23.5044 7.86532 23.177 7.65513C22.8776 7.46155 22.5782 7.27195 22.2609 7.10032C21.8168 6.84687 21.3493 6.63669 20.8649 6.47267C20.7522 6.43674 20.6344 6.41679 20.5197 6.38984C20.4831 6.3501 20.4574 6.30166 20.4448 6.24915Z" fill="#FFCC01"/>
<path d="M10.9871 11.6665C11.1725 11.2887 11.3846 10.9245 11.6217 10.5769C11.9233 10.1071 12.2659 9.66495 12.6455 9.25569C12.9648 8.9224 13.2931 8.5981 13.6145 8.26581C13.825 8.04828 14.0505 7.84771 14.28 7.65213C14.7431 7.25695 15.2411 6.9046 15.7678 6.59938C15.9485 6.48288 16.1361 6.37757 16.3296 6.28406C16.3356 6.32878 16.3326 6.37425 16.3207 6.41777C16.3106 6.44359 16.2953 6.46703 16.2757 6.48662C16.2562 6.5062 16.2327 6.5215 16.2069 6.53153C15.9185 6.70017 15.6321 6.8728 15.3467 7.04642C15.0253 7.24931 14.7179 7.47367 14.4267 7.71798C14.1124 7.97044 13.828 8.25783 13.5366 8.53523C13.4139 8.65098 13.3141 8.78969 13.1824 8.89845C12.8245 9.23902 12.4926 9.60593 12.1895 9.9961C12.0668 10.1428 11.957 10.2955 11.8452 10.4541C11.8226 10.483 11.8029 10.5141 11.7864 10.5469C11.3643 11.1464 11.0046 11.7873 10.7127 12.4598C10.6588 12.4598 10.6807 12.4279 10.6827 12.4029L10.8164 11.9938C10.8569 11.929 10.8878 11.8588 10.9083 11.7853C10.9282 11.7444 10.9352 11.6895 10.9871 11.6665Z" fill="#FFCC01"/>
<path d="M16.3436 5.96773C15.6309 6.32316 14.9581 6.75368 14.3369 7.25197C14.1543 7.40365 13.9776 7.5653 13.803 7.72596C13.5436 7.96544 13.2721 8.19096 13.0287 8.44641C12.7488 8.74254 12.4856 9.05402 12.2404 9.37941C12.0069 9.68576 11.7863 10.0011 11.5698 10.3184C11.5458 10.3184 11.5309 10.3184 11.5439 10.2895C11.6771 10.0069 11.8337 9.73585 12.0118 9.4792C12.0193 9.46351 12.029 9.44904 12.0408 9.43629C12.0807 9.37442 12.1226 9.31455 12.1655 9.25468C12.2563 9.10899 12.3721 8.98127 12.4649 8.84057C12.7537 8.50356 13.0626 8.18433 13.3899 7.88462C14.2461 7.07635 15.1641 6.3549 16.2238 5.82803C16.2421 5.8143 16.2635 5.80515 16.286 5.80133C16.3086 5.79751 16.3317 5.79914 16.3535 5.80607C16.3644 5.8599 16.3609 5.91564 16.3436 5.96773Z" fill="#FFCC01"/>
<path d="M16.3536 5.80706C16.1201 5.92181 15.8886 6.04056 15.6641 6.17427C15.3338 6.37384 15.0145 6.58439 14.7001 6.80392C14.4675 6.97414 14.2446 7.15737 14.0326 7.35275C13.7412 7.6102 13.4568 7.87563 13.1704 8.13806C12.9525 8.34033 12.7488 8.55738 12.5607 8.78767C12.5407 8.81842 12.5137 8.84405 12.4819 8.86251C12.433 8.86251 12.431 8.84355 12.452 8.80863C12.5804 8.60818 12.7224 8.4168 12.8771 8.23585C13.1837 7.86534 13.5219 7.52212 13.8879 7.21005C14.2085 6.94324 14.5517 6.70484 14.9137 6.49758C15.3188 6.2571 15.7369 6.03856 16.151 5.81305C16.1999 5.7871 16.2508 5.76715 16.3017 5.74619C16.3825 5.71226 16.3566 5.77413 16.3536 5.80706Z" fill="#B8C7DA"/>
<path d="M13.1685 8.89155C13.2415 8.7862 13.3273 8.69033 13.4239 8.60616C13.7686 8.24662 14.1352 7.9087 14.5216 7.59433C15.0241 7.20558 15.5555 6.85565 16.1112 6.54757C16.182 6.50666 16.2509 6.46175 16.3207 6.41785C16.3188 6.47752 16.3017 6.53573 16.2712 6.58703C16.2406 6.63833 16.1976 6.68106 16.1461 6.71122C16.0193 6.80202 15.8906 6.88884 15.7559 6.96667C14.8592 7.49216 14.0307 8.12627 13.2892 8.85462C13.2668 8.88384 13.2368 8.90629 13.2024 8.91949C13.1715 8.93345 13.1685 8.9145 13.1685 8.89155Z" fill="#B8C7DA"/>
<path d="M23.0782 9.28967C23.2067 9.34932 23.3267 9.42546 23.4355 9.51619C23.837 9.80315 24.2205 10.1144 24.584 10.4482C24.7905 10.642 24.9867 10.8465 25.1717 11.0609C25.1717 11.0888 25.1648 11.1018 25.1358 11.0948L24.601 10.7076C24.5875 10.6984 24.5748 10.6881 24.563 10.6767L24.5331 10.6488C24.4882 10.6148 24.4403 10.5849 24.3984 10.549C24.0601 10.2496 23.6999 9.96922 23.3487 9.68682C23.2777 9.63727 23.2142 9.57779 23.1601 9.5102C23.1209 9.45609 23.0906 9.39615 23.0703 9.33258C23.0678 9.32928 23.0661 9.32553 23.0652 9.32154C23.0643 9.31755 23.0642 9.31342 23.065 9.3094C23.0657 9.30538 23.0673 9.30155 23.0696 9.29816C23.0718 9.29477 23.0748 9.29188 23.0782 9.28967Z" fill="#FECC01"/>
<path d="M23.1641 9.50916C23.2548 9.56237 23.3394 9.62528 23.4165 9.69675C23.7219 9.93824 24.0212 10.1857 24.3216 10.4322C24.3588 10.4661 24.3941 10.5021 24.4274 10.5399C24.4274 10.5829 24.4084 10.5888 24.3755 10.5649C24.0786 10.3919 23.7939 10.1989 23.5233 9.98713C23.3653 9.86047 23.2418 9.6961 23.1641 9.50916Z" fill="#B7C6D7"/>
<path d="M13.1685 8.89148L13.2024 8.91942C12.9968 9.13795 12.7893 9.35349 12.5867 9.57501C12.455 9.71871 12.3303 9.86938 12.2025 10.0171C12.1776 10.0171 12.1656 10.0171 12.1736 9.98713C12.3066 9.79198 12.4558 9.60839 12.6196 9.43831C12.7643 9.28164 12.919 9.12897 13.0617 8.9743C13.092 8.94046 13.1282 8.9124 13.1685 8.89148Z" fill="#B5C1CB"/>
<path d="M12.452 8.80872C12.451 8.81966 12.4534 8.83065 12.4587 8.84026C12.464 8.84986 12.4721 8.85765 12.482 8.8626C12.3921 9.01028 12.2694 9.13202 12.1686 9.27172C12.1477 9.27172 12.1367 9.27172 12.1467 9.24678C12.2347 9.09166 12.337 8.94501 12.452 8.80872Z" fill="#B5BEC2"/>
<path d="M12.1735 9.98718L12.2025 10.0171L11.9031 10.4163C11.8892 10.4342 11.8752 10.4532 11.8492 10.4542C11.8601 10.4012 11.8869 10.3528 11.9261 10.3155C11.9988 10.199 12.0816 10.0892 12.1735 9.98718Z" fill="#B3B6A7"/>
<path d="M10.987 11.6665C10.9292 11.7753 10.9152 11.908 10.8164 11.9958C10.8524 11.8623 10.9005 11.7324 10.9601 11.6077C10.9614 11.63 10.9711 11.6509 10.987 11.6665Z" fill="#B3B8AD"/>
<path d="M25.9251 9.93623C25.82 9.86325 25.7313 9.7691 25.6647 9.65982L25.6946 9.62988C25.7842 9.72174 25.8617 9.82469 25.9251 9.93623Z" fill="#B2B6AA"/>
<path d="M21.9207 7.95046C21.909 7.94964 21.8973 7.95222 21.887 7.95789C21.8767 7.96355 21.8683 7.97206 21.8628 7.98239C21.7851 7.9532 21.7164 7.90438 21.6632 7.8407C21.757 7.8546 21.8457 7.8924 21.9207 7.95046Z" fill="#DFB719"/>
<path d="M26.2982 10.6497C26.3073 10.6439 26.3147 10.6357 26.3196 10.6261C26.3246 10.6164 26.3268 10.6057 26.3262 10.5948C26.3674 10.6415 26.3971 10.6973 26.413 10.7575C26.422 10.7824 26.413 10.7884 26.388 10.7844C26.3508 10.7448 26.3205 10.6993 26.2982 10.6497Z" fill="#E2BB22"/>
<path d="M12.1466 9.2467C12.1546 9.25469 12.1616 9.26367 12.1686 9.27165C12.1257 9.32753 12.1017 9.39938 12.0369 9.4373C12.0537 9.36425 12.0919 9.29788 12.1466 9.2467Z" fill="#AFAC8D"/>
<path d="M25.1357 11.0947L25.1717 11.0608C25.2193 11.1056 25.258 11.1591 25.2854 11.2185C25.2273 11.1884 25.1762 11.1462 25.1357 11.0947Z" fill="#E4BD23"/>
<path d="M10.6828 12.406C10.6908 12.426 10.6898 12.4509 10.7127 12.4629C10.6958 12.5241 10.6703 12.5825 10.6369 12.6365C10.6267 12.5567 10.6428 12.4758 10.6828 12.406Z" fill="#B69516"/>
<path d="M24.3755 10.5639C24.3856 10.5653 24.396 10.5637 24.4052 10.5593C24.4144 10.5548 24.4222 10.5478 24.4274 10.5389C24.4523 10.5486 24.475 10.5633 24.4939 10.5822C24.5128 10.6011 24.5275 10.6238 24.5371 10.6487C24.4743 10.6425 24.4163 10.6121 24.3755 10.5639Z" fill="#AFB6B4"/>
<path d="M11.543 10.2894L11.5689 10.3184C11.5513 10.3692 11.5242 10.4163 11.4891 10.4571C11.4867 10.4595 11.4838 10.4615 11.4806 10.4628C11.4774 10.4641 11.474 10.4648 11.4706 10.4648C11.4672 10.4648 11.4638 10.4641 11.4606 10.4628C11.4574 10.4615 11.4546 10.4595 11.4521 10.4571C11.4727 10.3964 11.5034 10.3397 11.543 10.2894Z" fill="#E2BA1B"/>
<path d="M11.4501 10.4581H11.487C11.4684 10.509 11.4407 10.556 11.4052 10.5968H11.3862C11.3996 10.5473 11.4212 10.5005 11.4501 10.4581Z" fill="#CDB654"/>
<path d="M27.0656 13.0226L27.0716 12.877C27.0989 12.9356 27.1052 13.0018 27.0895 13.0646C27.082 13.0605 27.0758 13.0544 27.0716 13.047C27.0674 13.0396 27.0653 13.0312 27.0656 13.0226Z" fill="#B19318"/>
<path d="M22.3368 8.33765C22.391 8.34555 22.4402 8.37372 22.4745 8.41648H22.4306C22.3935 8.3981 22.3613 8.37106 22.3368 8.33765Z" fill="#CCC696"/>
<path d="M26.3881 10.7844L26.413 10.7574C26.4451 10.7908 26.4636 10.8349 26.4649 10.8812C26.4304 10.8571 26.4037 10.8235 26.3881 10.7844Z" fill="#C9AF47"/>
<path d="M11.7874 10.55C11.7846 10.53 11.789 10.5097 11.7998 10.4927C11.8106 10.4757 11.8271 10.4631 11.8463 10.4572C11.8493 10.5021 11.8174 10.526 11.7874 10.55Z" fill="#A6A58E"/>
<path d="M26.8281 11.8611L26.8531 11.8372C26.8645 11.8508 26.8726 11.8669 26.8767 11.8843C26.8809 11.9016 26.881 11.9196 26.877 11.9369C26.8635 11.929 26.852 11.918 26.8435 11.9049C26.835 11.8917 26.8297 11.8767 26.8281 11.8611Z" fill="#DABB3D"/>
<path d="M23.0786 9.28991V9.33234C23.0688 9.32565 23.0609 9.31657 23.0556 9.30597C23.0503 9.29536 23.0478 9.28358 23.0483 9.27173C23.0545 9.27173 23.0606 9.27342 23.066 9.27662C23.0713 9.27983 23.0757 9.28442 23.0786 9.28991Z" fill="#CCA71E"/>
<path d="M11.962 9.22549L11.955 9.18407C11.9566 9.17785 11.9602 9.17235 11.9654 9.1685C11.9705 9.16464 11.9768 9.16265 11.9832 9.16286C11.9866 9.17421 11.9863 9.18631 11.9825 9.19752C11.9787 9.20873 11.9716 9.2185 11.962 9.22549Z" fill="#919BA8"/>
<path d="M24.535 10.6487C24.556 10.6487 24.564 10.6577 24.565 10.6766C24.546 10.6766 24.535 10.6696 24.535 10.6487Z" fill="#AFB6B4"/>
<path d="M12.0423 9.43628C12.041 9.44525 12.0376 9.45381 12.0326 9.46133C12.0275 9.46885 12.0208 9.47513 12.013 9.47972C12.0069 9.45649 12.013 9.44032 12.0423 9.43628Z" fill="#AFAC8D"/>
<path d="M11.3862 10.5939H11.4052L11.3762 10.6338L11.3862 10.5939Z" fill="#E2C033"/>
<path d="M11.5606 19.8138L11.5409 19.7952C11.5533 19.7952 11.5606 19.8003 11.5606 19.8138Z" fill="#58D3E3"/>
<path d="M24.563 10.6766C24.5839 10.6766 24.5929 10.6906 24.6009 10.7076C24.5921 10.7074 24.5835 10.7042 24.5767 10.6986C24.5698 10.693 24.565 10.6853 24.563 10.6766Z" fill="#969B97"/>
<path d="M27.2094 27.803C27.2613 27.7224 27.3064 27.6377 27.3441 27.5495C27.6719 26.8985 28.0683 26.2843 28.5266 25.7175C28.7108 25.49 28.9034 25.2694 29.1043 25.0559C29.6305 24.4931 30.242 24.0166 30.9164 23.6439C31.5023 23.3213 32.1381 23.0994 32.7974 22.9873C33.0369 22.9454 33.0688 22.9734 33.0688 23.2138C33.0688 23.6958 33.0688 24.1768 33.0688 24.6587C33.0688 24.7136 33.0688 24.7685 33.0628 24.8234C32.9166 24.8588 32.7683 24.8848 32.6188 24.9012C32.2929 24.9736 31.9748 25.0772 31.6688 25.2106C31.2772 25.376 30.9051 25.5842 30.5592 25.8312C30.4075 25.9337 30.2652 26.0496 30.1341 26.1775C30.0543 26.2583 29.9555 26.3192 29.8787 26.406C29.6248 26.6812 29.3856 26.9697 29.1622 27.2701C28.8177 27.7613 28.5172 28.2819 28.2641 28.8258C28.0645 29.2519 27.874 29.683 27.6943 30.123C27.5367 30.5082 27.369 30.8894 27.2064 31.2726C27.0437 31.6557 26.8741 32.0649 26.7074 32.46C26.6306 32.6416 26.5488 32.8212 26.467 32.9999C26.2804 33.408 26.0868 33.8141 25.8742 34.2093C25.6092 34.716 25.2919 35.1936 24.9273 35.6342C24.7886 35.7989 24.6379 35.9535 24.5022 36.1182C24.3254 36.3161 24.1354 36.5018 23.9334 36.674C23.3431 37.2091 22.6795 37.6573 21.9626 38.0051C21.6054 38.1718 21.2442 38.3264 20.8869 38.4921C20.5956 38.6268 20.3162 38.7835 20.0397 38.9461C19.6726 39.1609 19.3203 39.3999 18.985 39.6616C18.8208 39.7859 18.6635 39.9191 18.514 40.0607C18.3414 40.2304 18.1688 40.4 18.0001 40.5746C17.6105 40.9698 17.2957 41.4323 17.0711 41.9397C17.0003 42.1014 16.9514 42.273 16.8795 42.4386V41.807C16.9257 41.6251 16.9899 41.4483 17.0711 41.2791C17.3218 40.6975 17.6582 40.1566 18.069 39.6746C18.5628 39.1012 19.1244 38.5899 19.7414 38.1518C20.3191 37.7227 20.9169 37.3236 21.4986 36.9005C21.8278 36.6601 22.1442 36.4026 22.4466 36.1292C22.6661 35.9296 22.8763 35.725 23.0772 35.5155C23.5651 35.0051 24.0137 34.4588 24.4194 33.881C24.8454 33.278 25.2174 32.6385 25.531 31.9701C25.7844 31.4212 26.0089 30.8594 26.2215 30.2937C26.473 29.6201 26.7154 28.9426 26.9968 28.281C27.0657 28.1203 27.1385 27.9627 27.2094 27.803Z" fill="#62B1F8"/>
<path d="M24.8724 31.5409C24.8757 31.5742 24.8718 31.6078 24.861 31.6394C24.8502 31.6711 24.8327 31.7 24.8097 31.7242C24.7866 31.7485 24.7587 31.7675 24.7277 31.7799C24.6966 31.7924 24.6633 31.798 24.6299 31.7964C24.5765 31.8008 24.523 31.7889 24.4765 31.7623C24.4301 31.7356 24.3928 31.6955 24.3696 31.6472C24.3465 31.5989 24.3385 31.5447 24.3468 31.4917C24.3552 31.4388 24.3794 31.3897 24.4163 31.3508C24.4532 31.312 24.501 31.2852 24.5534 31.2741C24.6058 31.2631 24.6604 31.2682 24.7098 31.2888C24.7593 31.3094 24.8013 31.3446 24.8303 31.3896C24.8593 31.4346 24.874 31.4874 24.8724 31.5409Z" fill="#94CEFF"/>
<path d="M18.4281 33.4329C18.4309 33.4625 18.4274 33.4924 18.418 33.5207C18.4086 33.5489 18.3934 33.5749 18.3735 33.5969C18.3535 33.619 18.3291 33.6366 18.3019 33.6488C18.2747 33.6609 18.2453 33.6672 18.2156 33.6674C18.1677 33.6724 18.1195 33.6629 18.0772 33.6399C18.0349 33.6169 18.0006 33.5816 17.9789 33.5387C17.9571 33.4958 17.9488 33.4473 17.9552 33.3997C17.9616 33.352 17.9823 33.3074 18.0146 33.2717C18.047 33.2361 18.0893 33.2111 18.1362 33.2001C18.183 33.189 18.2321 33.1925 18.2769 33.2099C18.3217 33.2274 18.3602 33.2581 18.3872 33.2979C18.4142 33.3377 18.4284 33.3848 18.4281 33.4329Z" fill="#94CEFE"/>
<path d="M6.75312 33.1395C6.69349 33.1407 6.63567 33.119 6.59151 33.0789C6.54735 33.0389 6.5202 32.9834 6.51562 32.9239C6.51632 32.8665 6.53891 32.8115 6.57878 32.7701C6.61865 32.7288 6.67279 32.7042 6.73016 32.7014C6.78962 32.7014 6.84693 32.7236 6.89086 32.7637C6.9348 32.8037 6.96218 32.8587 6.96766 32.918C6.96768 32.9755 6.94531 33.0308 6.90526 33.0722C6.86522 33.1135 6.81065 33.1377 6.75312 33.1395Z" fill="#94CEFE"/>
<path d="M19.4499 35.7549C19.435 35.755 19.4202 35.7522 19.4064 35.7466C19.3926 35.741 19.3801 35.7327 19.3695 35.7222C19.3589 35.7117 19.3505 35.6992 19.3448 35.6855C19.3391 35.6718 19.3361 35.657 19.3361 35.6421C19.3344 35.6098 19.3451 35.578 19.3661 35.5533C19.3871 35.5286 19.4167 35.5129 19.4489 35.5094C19.4813 35.5101 19.5123 35.523 19.5356 35.5456C19.5589 35.5682 19.5729 35.5987 19.5746 35.6311C19.5731 35.6636 19.5595 35.6944 19.5364 35.7173C19.5133 35.7403 19.4824 35.7537 19.4499 35.7549Z" fill="#8CC7F8"/>
<path d="M25.938 29.659C25.938 29.5941 25.9759 29.5432 26.0258 29.5432C26.0572 29.5486 26.0857 29.5648 26.1063 29.5891C26.1269 29.6134 26.1383 29.6441 26.1386 29.6759C26.1396 29.6893 26.1377 29.7027 26.1331 29.7153C26.1285 29.7279 26.1211 29.7393 26.1117 29.7488C26.1022 29.7583 26.0908 29.7656 26.0782 29.7703C26.0656 29.7749 26.0521 29.7768 26.0388 29.7757C26.01 29.7734 25.9833 29.7599 25.9644 29.738C25.9456 29.7162 25.9361 29.6878 25.938 29.659Z" fill="#8DC8F9"/>
<path d="M12.0987 35.9734C12.1076 35.9729 12.1164 35.9741 12.1247 35.977C12.133 35.98 12.1407 35.9846 12.1472 35.9905C12.1537 35.9965 12.159 36.0037 12.1626 36.0117C12.1663 36.0197 12.1683 36.0284 12.1686 36.0373C12.1698 36.0487 12.1687 36.0602 12.1653 36.0712C12.1619 36.0821 12.1563 36.0923 12.1488 36.101C12.1413 36.1097 12.1321 36.1167 12.1218 36.1217C12.1115 36.1267 12.1002 36.1296 12.0888 36.1301C12.0701 36.1305 12.0519 36.124 12.0378 36.1118C12.0236 36.0997 12.0144 36.0827 12.0119 36.0642C12.0114 36.0525 12.0132 36.0407 12.0174 36.0297C12.0215 36.0187 12.0278 36.0087 12.0359 36.0002C12.044 35.9917 12.0538 35.985 12.0646 35.9804C12.0754 35.9757 12.087 35.9734 12.0987 35.9734Z" fill="#88C3F5"/>
<path d="M17.6698 37.8224C17.6668 37.8451 17.6556 37.8659 17.6383 37.8808C17.621 37.8957 17.5988 37.9037 17.576 37.9033C17.5231 37.9033 17.5081 37.8654 17.5111 37.8195C17.5106 37.8091 17.5124 37.7989 17.5162 37.7893C17.5201 37.7797 17.5259 37.7711 17.5334 37.764C17.5409 37.7569 17.5498 37.7515 17.5596 37.7481C17.5693 37.7448 17.5797 37.7436 17.5899 37.7446C17.6108 37.7446 17.6308 37.7527 17.6457 37.7673C17.6606 37.7818 17.6692 37.8016 17.6698 37.8224Z" fill="#8CC7F8"/>
<path d="M4.40817 27.1802C4.40593 27.1528 4.40967 27.1251 4.41914 27.0992C4.42861 27.0733 4.44359 27.0498 4.46304 27.0303C4.48248 27.0107 4.50594 26.9956 4.53178 26.986C4.55763 26.9764 4.58525 26.9726 4.61274 26.9747C4.6677 26.9775 4.71937 27.0018 4.75667 27.0423C4.79398 27.0827 4.81395 27.1362 4.81231 27.1912C4.81232 27.2179 4.80697 27.2444 4.79657 27.269C4.78616 27.2936 4.77093 27.3159 4.75176 27.3345C4.73259 27.3531 4.70987 27.3677 4.68496 27.3774C4.66005 27.387 4.63346 27.3916 4.60675 27.3908C4.57929 27.3921 4.55187 27.3874 4.52637 27.3772C4.50087 27.3669 4.47791 27.3512 4.45904 27.3312C4.44018 27.3112 4.42587 27.2873 4.41709 27.2613C4.40831 27.2352 4.40526 27.2076 4.40817 27.1802Z" fill="#93CEFE"/>
<path d="M8.00844 28.0344C8.00899 28.0575 8.00055 28.0799 7.98491 28.0968C7.96926 28.1137 7.94764 28.1239 7.92461 28.1252C7.90136 28.1255 7.87888 28.1169 7.8618 28.1011C7.84472 28.0854 7.83434 28.0636 7.83281 28.0404C7.83113 28.0288 7.8318 28.017 7.83478 28.0056C7.83776 27.9942 7.84298 27.9836 7.85014 27.9743C7.85731 27.965 7.86627 27.9572 7.87649 27.9514C7.88671 27.9456 7.89798 27.942 7.90965 27.9406C7.95056 27.9316 8.00345 27.9815 8.00844 28.0344Z" fill="#8DC8FA"/>
<path d="M27.0158 26.7163C27.0152 26.7493 27.0082 26.782 26.995 26.8123C26.9818 26.8426 26.9627 26.87 26.9389 26.8929C26.915 26.9158 26.8869 26.9338 26.8561 26.9458C26.8253 26.9578 26.7924 26.9635 26.7593 26.9627C26.7261 26.9621 26.6934 26.9548 26.6631 26.9413C26.6327 26.9277 26.6055 26.9082 26.5828 26.8839C26.5602 26.8596 26.5427 26.831 26.5314 26.7998C26.52 26.7686 26.5151 26.7355 26.5168 26.7023C26.5187 26.6361 26.5467 26.5734 26.5948 26.5279C26.6186 26.5054 26.6467 26.4878 26.6773 26.4761C26.7079 26.4644 26.7405 26.4589 26.7733 26.4598C26.806 26.4607 26.8383 26.4681 26.8682 26.4815C26.8981 26.4949 26.9251 26.514 26.9476 26.5378C26.9701 26.5616 26.9877 26.5897 26.9994 26.6203C27.0111 26.6509 27.0167 26.6835 27.0158 26.7163Z" fill="#94CEFE"/>
<path d="M22.0125 9.41142C21.8311 9.3965 21.6592 9.3244 21.5215 9.2055C21.3837 9.0866 21.2873 8.92706 21.2461 8.74984C21.2461 8.72988 21.2461 8.71292 21.2601 8.70294C21.2686 8.69932 21.278 8.69814 21.2871 8.69955C21.2963 8.70096 21.3049 8.7049 21.312 8.71092C21.3688 8.75709 21.4151 8.81494 21.4477 8.88056C21.4756 8.92447 21.5006 8.93544 21.5474 8.91149C21.5763 8.89716 21.6078 8.88904 21.6399 8.88766C21.672 8.88629 21.7041 8.89169 21.734 8.90351C21.8438 8.93744 21.8947 8.98434 21.8907 9.0971C21.8848 9.13769 21.8946 9.17901 21.9182 9.2126C21.9417 9.24618 21.9772 9.26948 22.0174 9.27771C22.026 9.28144 22.0344 9.28578 22.0424 9.29068C22.0773 9.31164 22.1242 9.3286 22.1062 9.38049C22.0883 9.43238 22.0434 9.40643 22.0125 9.41142Z" fill="#343A43"/>
</svg>
