<svg width="12" height="10" viewBox="0 0 12 10" fill="none" xmlns="http://www.w3.org/2000/svg">
<path d="M5.48894 8.99525L0.871883 2.76059C0.327001 2.02463 0.769838 0.873475 1.59679 0.873475H10.8309C11.016 0.873287 11.1972 0.936137 11.3528 1.0545C11.5084 1.17286 11.6318 1.34171 11.7083 1.54084C11.7848 1.73997 11.8111 1.96093 11.7841 2.17726C11.757 2.39359 11.6778 2.59612 11.5558 2.76059L6.93875 8.99411C6.84839 9.11629 6.73695 9.21422 6.61192 9.28131C6.48689 9.34841 6.35116 9.38312 6.21384 9.38312C6.07652 9.38312 5.94079 9.34841 5.81576 9.28131C5.69073 9.21422 5.5793 9.11629 5.48894 8.99411V8.99525Z" fill="#F22C2C"/>
</svg>
