<svg width="13" height="13" viewBox="0 0 13 13" fill="none" xmlns="http://www.w3.org/2000/svg">
<path d="M12.4624 6.18529C12.6003 6.0826 12.7025 5.93934 12.7549 5.77561C12.8072 5.61188 12.8069 5.43587 12.7542 5.27228C12.7014 5.10869 12.5988 4.96571 12.4607 4.86339C12.3225 4.76108 12.1559 4.70455 11.984 4.70174L8.64603 4.57564C8.62962 4.57451 8.61388 4.56866 8.60072 4.55878C8.58756 4.54891 8.57754 4.53545 8.57185 4.52001L7.4184 1.40457C7.36045 1.24607 7.25519 1.10921 7.11687 1.01251C6.97856 0.915812 6.81387 0.863953 6.6451 0.863953C6.47634 0.863953 6.31165 0.915812 6.17334 1.01251C6.03502 1.10921 5.92976 1.24607 5.87181 1.40457L4.72206 4.53114C4.71638 4.54658 4.70636 4.56004 4.69319 4.56991C4.68003 4.57978 4.6643 4.58564 4.64789 4.58677L1.30992 4.71287C1.13805 4.71568 0.971375 4.7722 0.833256 4.87452C0.695136 4.97684 0.592501 5.11982 0.539743 5.28341C0.486985 5.447 0.486748 5.623 0.539066 5.78674C0.591384 5.95047 0.693634 6.09372 0.831478 6.19641L3.44993 8.25483C3.46303 8.26514 3.47283 8.27907 3.4781 8.29489C3.48337 8.31071 3.48389 8.32772 3.4796 8.34384L2.57835 11.5372C2.53164 11.6998 2.53617 11.8728 2.59131 12.0328C2.64644 12.1927 2.74951 12.3318 2.8865 12.4311C3.02348 12.5304 3.18773 12.5851 3.35689 12.5877C3.52606 12.5903 3.69193 12.5408 3.83194 12.4458L6.59874 10.5914C6.61237 10.582 6.62854 10.577 6.6451 10.577C6.66167 10.577 6.67784 10.582 6.69147 10.5914L9.45827 12.4458C9.59639 12.5441 9.76167 12.5968 9.93115 12.5968C10.1006 12.5968 10.2659 12.5441 10.404 12.4458C10.541 12.3475 10.6442 12.2091 10.6993 12.0497C10.7545 11.8903 10.7588 11.7177 10.7119 11.5557L9.80319 8.35126C9.79838 8.33517 9.79864 8.31799 9.80395 8.30206C9.80926 8.28613 9.81936 8.27222 9.83286 8.26224L12.4624 6.18529Z" fill="#FFCC01"/>
</svg>
