<svg width="23" height="23" viewBox="0 0 23 23" fill="none" xmlns="http://www.w3.org/2000/svg">
<path d="M17.9428 4.24332H4.55371V16.6055H17.9428V4.24332Z" fill="white"/>
<path fill-rule="evenodd" clip-rule="evenodd" d="M22.0906 11.479C22.0906 17.5542 17.2395 22.479 11.2553 22.479C5.27106 22.479 0.419922 17.5542 0.419922 11.479C0.419922 5.40387 5.27106 0.479004 11.2553 0.479004C17.2395 0.479004 22.0906 5.40387 22.0906 11.479ZM8.18483 15.8564H6.082C5.64013 15.8564 5.42186 15.8564 5.28878 15.77C5.14503 15.6754 5.0572 15.5187 5.04655 15.3457C5.03856 15.1863 5.1477 14.9917 5.36597 14.6026L10.5581 5.31161C10.7791 4.91707 10.8908 4.7198 11.0319 4.64685C11.1836 4.56848 11.3647 4.56848 11.5164 4.64685C11.6575 4.7198 11.7693 4.91707 11.9902 5.31161L13.0576 7.2032L13.063 7.21285C13.3016 7.63611 13.4227 7.85075 13.4755 8.07602C13.534 8.32193 13.534 8.58135 13.4755 8.82726C13.4222 9.05424 13.3025 9.27044 13.0602 9.7001L10.3329 14.5945L10.3259 14.607C10.0857 15.0338 9.96394 15.2501 9.79524 15.4132C9.61157 15.5916 9.39064 15.7213 9.14841 15.7943C8.92747 15.8564 8.67993 15.8564 8.18483 15.8564ZM13.4952 15.8564H16.5083C16.9528 15.8564 17.1764 15.8564 17.3096 15.7674C17.4533 15.6728 17.5438 15.5133 17.5519 15.3404C17.5595 15.1862 17.4527 14.9992 17.2435 14.6326C17.2363 14.6202 17.2291 14.6075 17.2218 14.5945L15.7125 11.9733L15.6953 11.9438C15.4832 11.5797 15.3761 11.3959 15.2386 11.3248C15.087 11.2464 14.9085 11.2464 14.7569 11.3248C14.6185 11.3978 14.5067 11.5896 14.2857 11.976L12.7818 14.5972L12.7767 14.6063C12.5565 14.9921 12.4465 15.1849 12.4544 15.3431C12.4651 15.516 12.5529 15.6754 12.6966 15.77C12.8271 15.8564 13.0507 15.8564 13.4952 15.8564Z" fill="#E84142"/>
</svg>
