<svg width="23" height="18" viewBox="0 0 23 18" fill="none" xmlns="http://www.w3.org/2000/svg">
<path d="M17.0065 5.56726C16.6061 5.35746 16.0914 5.35746 15.6338 5.56726L12.4309 7.29807L10.2575 8.39949L7.11174 10.1303C6.71138 10.3401 6.19662 10.3401 5.73906 10.1303L3.27968 8.76663C2.87931 8.55684 2.59333 8.13725 2.59333 7.66521V5.04277C2.59333 4.62318 2.82211 4.20359 3.27968 3.94135L5.73906 2.63013C6.13943 2.42033 6.65418 2.42033 7.11174 2.63013L9.57113 3.9938C9.9715 4.20359 10.2575 4.62318 10.2575 5.09522V6.82603L12.4309 5.67216V3.8889C12.4309 3.46931 12.2021 3.04972 11.7445 2.78748L7.16894 0.322385C6.76857 0.11259 6.25382 0.11259 5.79626 0.322385L1.10626 2.83992C0.648702 3.04972 0.419922 3.46931 0.419922 3.8889V8.81908C0.419922 9.23867 0.648702 9.65826 1.10626 9.9205L5.73906 12.3856C6.13943 12.5954 6.65418 12.5954 7.11174 12.3856L10.2575 10.7072L12.4309 9.55336L15.5766 7.875C15.977 7.66521 16.4917 7.66521 16.9493 7.875L19.4087 9.18622C19.809 9.39602 20.095 9.81561 20.095 10.2876V12.9101C20.095 13.3297 19.8662 13.7493 19.4087 14.0115L17.0065 15.3227C16.6061 15.5325 16.0914 15.5325 15.6338 15.3227L13.1744 14.0115C12.7741 13.8017 12.4881 13.3821 12.4881 12.9101V11.2317L10.3147 12.3856V14.1164C10.3147 14.536 10.5434 14.9556 11.001 15.2178L15.6338 17.6829C16.0342 17.8927 16.5489 17.8927 17.0065 17.6829L21.6393 15.2178C22.0397 15.008 22.3256 14.5884 22.3256 14.1164V9.13377C22.3256 8.71418 22.0968 8.29459 21.6393 8.03235L17.0065 5.56726Z" fill="#8247E5"/>
</svg>
