<svg width="23" height="23" viewBox="0 0 23 23" fill="none" xmlns="http://www.w3.org/2000/svg">
<path fill-rule="evenodd" clip-rule="evenodd" d="M11.3435 0.526367C17.3769 0.526367 22.2671 5.45081 22.2671 11.5264C22.2671 17.6019 17.3769 22.5264 11.3435 22.5264C5.31015 22.5264 0.419922 17.6019 0.419922 11.5264C0.419922 5.45081 5.31015 0.526367 11.3435 0.526367Z" fill="#F0B90B"/>
<path d="M6.42349 11.5264L6.43136 14.435L8.88567 15.8893V17.5922L4.99502 15.2944V10.6758L6.42349 11.5264ZM6.42349 8.61771V10.3127L4.99414 9.46122V7.76627L6.42349 6.91483L7.85983 7.76627L6.42349 8.61771ZM9.91063 7.76627L11.34 6.91483L12.7763 7.76627L11.34 8.61771L9.91063 7.76627Z" fill="white"/>
<path d="M7.45605 13.8321V12.1292L8.8854 12.9807V14.6756L7.45605 13.8321ZM9.91036 16.4993L11.3397 17.3507L12.7761 16.4993V18.1942L11.3397 19.0457L9.91036 18.1942V16.4993ZM14.826 7.76627L16.2553 6.91483L17.6917 7.76627V9.46122L16.2553 10.3127V8.61771L14.826 7.76627ZM16.2553 14.435L16.2632 11.5264L17.6925 10.6749V15.2935L13.8019 17.5913V15.8885L16.2553 14.435Z" fill="white"/>
<path d="M15.2311 13.8321L13.8018 14.6756V12.9807L15.2311 12.1293V13.8321Z" fill="white"/>
<path d="M15.2304 9.2206L15.2382 10.9235L12.7769 12.3778V15.2935L11.3476 16.137L9.91824 15.2935V12.3778L7.45693 10.9235V9.2206L8.8924 8.36915L11.3388 9.83053L13.8001 8.36915L15.2365 9.2206H15.2304ZM7.45605 6.31282L11.3397 4.00706L15.2304 6.31282L13.801 7.16427L11.3397 5.70289L8.8854 7.16427L7.45605 6.31282Z" fill="white"/>
</svg>
