<svg width="23" height="23" viewBox="0 0 23 23" fill="none" xmlns="http://www.w3.org/2000/svg">
<path d="M11.2553 22.2197C17.2394 22.2197 22.0906 17.3686 22.0906 11.3844C22.0906 5.40021 17.2394 0.549072 11.2553 0.549072C5.27106 0.549072 0.419922 5.40021 0.419922 11.3844C0.419922 17.3686 5.27106 22.2197 11.2553 22.2197Z" fill="#13B5EC"/>
<path fill-rule="evenodd" clip-rule="evenodd" d="M12.0683 9.28504L14.5062 7.8629V10.7072L12.0683 9.28504ZM14.5062 15.3799L11.2556 17.2761L8.00503 15.3799V12.0616L11.2556 13.9578L14.5062 12.0616V15.3799ZM8.00503 7.8629L10.443 9.28504L8.00503 10.7072V7.8629ZM11.662 9.96225L14.0999 11.3844L11.662 12.8065V9.96225ZM10.8493 12.8065L8.41136 11.3844L10.8493 9.96225V12.8065ZM14.0999 7.1857L11.2556 8.811L8.41136 7.1857L11.2556 5.49268L14.0999 7.1857ZM7.19238 6.91481V15.7862L11.2556 18.0887L15.3189 15.7862V6.91481L11.2556 4.6123L7.19238 6.91481Z" fill="white"/>
</svg>
