<svg width="22" height="22" viewBox="0 0 22 22" fill="none" xmlns="http://www.w3.org/2000/svg">
<path d="M15.2068 12.2957C14.5925 12.2957 13.9932 12.0909 13.5088 11.7164L17.4042 7.82098C18.3431 9.03455 18.1183 10.7825 16.9048 11.7214C16.4153 12.0909 15.821 12.2957 15.2068 12.2957Z" fill="#047E5C"/>
<path d="M3.62002 9.51403C3.62002 8.89976 3.82478 8.30047 4.19933 7.81604L8.09473 11.7114C6.88116 12.6503 5.13822 12.4256 4.19933 11.212C3.82478 10.7276 3.62002 10.1283 3.62002 9.51403Z" fill="#047E5C"/>
<path d="M1.65771 5.27405L3.38067 6.99701C1.99231 8.66004 2.21205 11.1371 3.87508 12.5255C5.33336 13.744 7.45086 13.744 8.90913 12.5255L10.8019 14.4182L12.6897 12.5305C14.3527 13.9188 16.8298 13.6991 18.2181 12.0361C19.4367 10.5778 19.4367 8.46028 18.2181 7.002L19.1021 6.11805L19.9411 5.27405C20.9549 6.94208 21.4893 8.85981 21.4893 10.8125C21.4893 16.7155 16.7049 21.4999 10.8019 21.4999C4.89887 21.4999 0.114531 16.7155 0.114531 10.8125C0.109537 8.85981 0.648899 6.94208 1.65771 5.27405Z" fill="#047E5C"/>
<path d="M3.07042 3.43623C7.14061 -0.833725 13.9026 -0.993537 18.1726 3.07665C18.2974 3.19651 18.4173 3.31637 18.5321 3.43623C18.7968 3.7159 19.0465 4.00555 19.2812 4.31019L10.8013 12.7952L2.3213 4.31019C2.55103 4.00555 2.80573 3.7159 3.07042 3.43623ZM10.8013 1.52349C8.30423 1.52349 5.97698 2.48735 4.22905 4.24527L10.8013 10.8175L17.3735 4.24527C15.6256 2.48735 13.2983 1.52349 10.8013 1.52349Z" fill="#047E5C"/>
</svg>
