<svg width="23" height="22" viewBox="0 0 23 22" fill="none" xmlns="http://www.w3.org/2000/svg">
<path d="M11.2553 21.7434C17.2394 21.7434 22.0906 16.8923 22.0906 10.9081C22.0906 4.9239 17.2394 0.0727539 11.2553 0.0727539C5.27106 0.0727539 0.419922 4.9239 0.419922 10.9081C0.419922 16.8923 5.27106 21.7434 11.2553 21.7434Z" fill="#FF0420"/>
<path d="M8.09584 13.786C7.45006 13.786 6.92129 13.6343 6.50955 13.3309C6.10214 13.0231 5.89844 12.5811 5.89844 12.0133C5.89844 11.8919 5.91144 11.7489 5.93744 11.5755C6.00679 11.1855 6.10648 10.7174 6.2365 10.167C6.6049 8.67601 7.55841 7.93054 9.09269 7.93054C9.50877 7.93054 9.88584 7.99989 10.2152 8.14291C10.5446 8.27727 10.8047 8.48531 10.9954 8.7627C11.1861 9.03575 11.2814 9.36081 11.2814 9.73787C11.2814 9.85056 11.2684 9.99359 11.2424 10.167C11.1601 10.648 11.0647 11.1205 10.9477 11.5755C10.757 12.3167 10.4319 12.8758 9.96385 13.2442C9.5001 13.6083 8.87599 13.786 8.09584 13.786ZM8.21286 12.6157C8.51625 12.6157 8.77197 12.5247 8.98434 12.347C9.20105 12.1693 9.35707 11.8963 9.44809 11.5235C9.57378 11.0121 9.66913 10.57 9.73414 10.1886C9.75581 10.0759 9.76882 9.95892 9.76882 9.83756C9.76882 9.34347 9.5131 9.09642 8.99734 9.09642C8.69395 9.09642 8.4339 9.18744 8.2172 9.36514C8.00483 9.54284 7.85313 9.81589 7.76211 10.1886C7.66243 10.5527 7.56708 10.9948 7.46739 11.5235C7.44572 11.6319 7.43272 11.7446 7.43272 11.8659C7.42839 12.3687 7.69277 12.6157 8.21286 12.6157Z" fill="white"/>
<path d="M11.6582 13.7079C11.5975 13.7079 11.5542 13.6906 11.5195 13.6516C11.4935 13.6082 11.4848 13.5606 11.4935 13.5042L12.616 8.21658C12.6247 8.1559 12.655 8.10823 12.707 8.06922C12.7547 8.03022 12.8067 8.01288 12.8631 8.01288H15.0258C15.6282 8.01288 16.1093 8.13857 16.4734 8.38561C16.8418 8.63699 17.0282 8.99673 17.0282 9.46915C17.0282 9.60351 17.0108 9.74653 16.9805 9.89389C16.8461 10.518 16.5731 10.9774 16.157 11.2765C15.7496 11.5755 15.1905 11.7229 14.4797 11.7229H13.3832L13.0104 13.5042C12.9974 13.5649 12.9714 13.6126 12.9194 13.6516C12.8717 13.6906 12.8197 13.7079 12.7634 13.7079H11.6582ZM14.536 10.6004C14.7658 10.6004 14.9608 10.5397 15.1298 10.414C15.3032 10.2883 15.4159 10.1106 15.4722 9.87656C15.4896 9.78554 15.4982 9.70319 15.4982 9.63384C15.4982 9.47782 15.4505 9.35646 15.3595 9.27411C15.2685 9.18743 15.1082 9.14409 14.8871 9.14409H13.9119L13.6042 10.6004H14.536Z" fill="white"/>
</svg>
