<svg width="22" height="22" viewBox="0 0 22 22" fill="none" xmlns="http://www.w3.org/2000/svg">
<path d="M11.1073 21.5479C17.0098 21.5479 21.7947 16.763 21.7947 10.8605C21.7947 4.958 17.0098 0.173096 11.1073 0.173096C5.20482 0.173096 0.419922 4.958 0.419922 10.8605C0.419922 16.763 5.20482 21.5479 11.1073 21.5479Z" fill="#1EB5FA"/>
<path d="M18.0575 4.94971L15.6328 6.02513C15.5621 6.06382 15.503 6.12082 15.4619 6.19016C15.4208 6.25949 15.3991 6.33861 15.399 6.41923V15.0894C15.3987 15.1709 15.4211 15.2508 15.4635 15.3204C15.506 15.39 15.5669 15.4464 15.6395 15.4835L18.0642 16.5322C18.0987 16.551 18.1376 16.5605 18.177 16.5597C18.2163 16.5589 18.2548 16.5479 18.2885 16.5276C18.3223 16.5074 18.3502 16.4786 18.3694 16.4443C18.3886 16.4099 18.3985 16.3711 18.3981 16.3318V5.1501C18.3969 5.11067 18.3857 5.0722 18.3655 5.03828C18.3454 5.00435 18.317 4.97607 18.283 4.95607C18.249 4.93607 18.2105 4.925 18.1711 4.92389C18.1316 4.92277 18.0926 4.93166 18.0575 4.94971ZM6.44498 6.01177L4.09376 4.94303C4.05921 4.92416 4.02032 4.91465 3.98096 4.91545C3.9416 4.91625 3.90314 4.92732 3.86938 4.94758C3.83562 4.96783 3.80775 4.99656 3.78852 5.03092C3.76929 5.06527 3.75939 5.10406 3.75978 5.14342V16.3251C3.75981 16.3656 3.77065 16.4054 3.79119 16.4404C3.81172 16.4753 3.84121 16.5041 3.87661 16.5239C3.91201 16.5436 3.95203 16.5535 3.99255 16.5527C4.03307 16.5518 4.07262 16.5401 4.10712 16.5188L6.4717 15.2697C6.53701 15.2299 6.59098 15.174 6.62841 15.1073C6.66585 15.0406 6.68549 14.9654 6.68545 14.889V6.40587C6.6829 6.32499 6.6594 6.24615 6.61725 6.17707C6.5751 6.10799 6.51574 6.05104 6.44498 6.01177ZM13.8193 8.97084L11.2877 7.52136C11.2197 7.48195 11.1425 7.4612 11.0639 7.4612C10.9853 7.4612 10.9082 7.48195 10.8402 7.52136L8.26184 8.95748C8.19286 8.99761 8.1356 9.05512 8.09575 9.12426C8.05591 9.1934 8.03487 9.27177 8.03473 9.35158V12.2906C8.03473 12.4529 8.12156 12.6032 8.26184 12.6847L10.8402 14.1676C10.9784 14.2477 11.1494 14.2477 11.2877 14.1676L13.8193 12.6981C13.8882 12.6579 13.9455 12.6004 13.9854 12.5313C14.0252 12.4621 14.0462 12.3838 14.0464 12.304V9.36494C14.0471 9.28497 14.0264 9.20628 13.9864 9.13699C13.9465 9.06771 13.8888 9.01034 13.8193 8.97084Z" fill="white"/>
</svg>
