<svg width="23" height="18" viewBox="0 0 23 18" fill="none" xmlns="http://www.w3.org/2000/svg">
<g clip-path="url(#clip0_702_1343)">
<path d="M3.99361 13.4303C4.12637 13.2994 4.30892 13.2231 4.50253 13.2231H22.0605C22.3813 13.2231 22.5418 13.6048 22.315 13.8284L18.8465 17.2481C18.7137 17.379 18.5312 17.4553 18.3376 17.4553H0.779628C0.458783 17.4553 0.298361 17.0735 0.525165 16.8499L3.99361 13.4303Z" fill="url(#paint0_linear_702_1343)"/>
<path d="M3.99361 0.662573C4.1319 0.531678 4.31445 0.455322 4.50253 0.455322H22.0605C22.3813 0.455322 22.5418 0.8371 22.315 1.06071L18.8465 4.48035C18.7137 4.61124 18.5312 4.6876 18.3376 4.6876H0.779628C0.458783 4.6876 0.298361 4.30582 0.525165 4.08221L3.99361 0.662573Z" fill="url(#paint1_linear_702_1343)"/>
<path d="M18.8465 7.00553C18.7137 6.87463 18.5312 6.79828 18.3376 6.79828H0.779628C0.458783 6.79828 0.298361 7.18006 0.525165 7.40367L3.99361 10.8233C4.12637 10.9542 4.30892 11.0306 4.50253 11.0306H22.0605C22.3813 11.0306 22.5418 10.6488 22.315 10.4252L18.8465 7.00553Z" fill="url(#paint2_linear_702_1343)"/>
</g>
<defs>
<linearGradient id="paint0_linear_702_1343" x1="20.3832" y1="-1.58747" x2="8.50015" y2="21.4982" gradientUnits="userSpaceOnUse">
<stop stop-color="#00FFA3"/>
<stop offset="1" stop-color="#DC1FFF"/>
</linearGradient>
<linearGradient id="paint1_linear_702_1343" x1="15.0699" y1="-4.32242" x2="3.18685" y2="18.7632" gradientUnits="userSpaceOnUse">
<stop stop-color="#00FFA3"/>
<stop offset="1" stop-color="#DC1FFF"/>
</linearGradient>
<linearGradient id="paint2_linear_702_1343" x1="17.7096" y1="-2.96366" x2="5.82659" y2="20.122" gradientUnits="userSpaceOnUse">
<stop stop-color="#00FFA3"/>
<stop offset="1" stop-color="#DC1FFF"/>
</linearGradient>
<clipPath id="clip0_702_1343">
<rect width="22" height="17" fill="white" transform="translate(0.419922 0.455322)"/>
</clipPath>
</defs>
</svg>
