<svg width="22" height="23" viewBox="0 0 22 23" fill="none" xmlns="http://www.w3.org/2000/svg">
<path d="M21.3317 6.67775C20.3047 5.72558 18.8841 4.27153 17.727 3.2403L17.6585 3.19217C17.5446 3.10032 17.4162 3.02828 17.2785 2.97905C14.4886 2.45656 1.50404 0.0194037 1.25071 0.0503408C1.17973 0.0603231 1.11188 0.0861654 1.05216 0.125965L0.987119 0.177527C0.90703 0.259201 0.8462 0.357871 0.809109 0.466273L0.791992 0.51096V0.755019V0.792831C2.25373 4.87996 8.02539 18.2688 9.16192 21.4107C9.23039 21.6238 9.36048 22.0294 9.60353 22.05H9.6583C9.78839 22.05 10.343 21.3144 10.343 21.3144C10.343 21.3144 20.2568 9.24209 21.2598 7.95649C21.3896 7.79813 21.5043 7.62779 21.6021 7.44774C21.6271 7.30687 21.6153 7.16191 21.568 7.02697C21.5206 6.89203 21.4392 6.77172 21.3317 6.67775ZM12.8865 8.08367L17.1176 4.56028L19.5995 6.8565L12.8865 8.08367ZM11.2433 7.85336L3.95853 1.85844L15.7449 4.04123L11.2433 7.85336ZM11.9006 9.42428L19.3565 8.21773L10.8325 18.5301L11.9006 9.42428ZM2.9692 2.45656L10.6339 8.98772L9.52479 18.537L2.9692 2.45656Z" fill="#FF060A"/>
</svg>
