<svg width="171" height="140" viewBox="0 0 171 140" fill="none" xmlns="http://www.w3.org/2000/svg">
<g style="mix-blend-mode:multiply" opacity="0.5">
<path d="M170.624 122.48H53.7402V139.674H170.624V122.48Z" fill="white"/>
<path d="M112.071 138.478C140.969 138.316 164.378 135.04 164.357 131.159C164.335 127.279 140.891 124.264 111.993 124.425C83.0945 124.587 59.6855 127.863 59.7072 131.744C59.7289 135.624 83.173 138.639 112.071 138.478Z" fill="white"/>
<path d="M111.891 138.452C140.676 138.291 163.993 135.027 163.971 131.161C163.95 127.296 140.598 124.292 111.813 124.453C83.0287 124.614 59.7118 127.878 59.7334 131.743C59.755 135.609 83.1069 138.613 111.891 138.452Z" fill="white"/>
<path d="M111.712 138.413C140.382 138.253 163.607 135.004 163.586 131.157C163.564 127.309 140.304 124.32 111.634 124.48C82.963 124.641 59.7381 127.889 59.7596 131.737C59.7811 135.584 83.0408 138.573 111.712 138.413Z" fill="white"/>
<path d="M111.532 138.388C140.093 138.228 163.229 134.992 163.207 131.159C163.186 127.326 140.016 124.348 111.455 124.508C82.8942 124.667 59.7586 127.904 59.78 131.737C59.8014 135.569 82.9718 138.547 111.532 138.388Z" fill="white"/>
<path d="M111.353 138.362C139.8 138.203 162.843 134.979 162.822 131.161C162.801 127.343 139.722 124.377 111.275 124.536C82.8284 124.694 59.7849 127.918 59.8062 131.737C59.8275 135.555 82.9057 138.521 111.353 138.362Z" fill="white"/>
<path d="M112.161 137.476C140.495 137.193 163.433 133.88 163.395 130.076C163.357 126.273 140.357 123.419 112.024 123.702C83.6898 123.986 60.7515 127.299 60.7896 131.102C60.8276 134.906 83.8275 137.76 112.161 137.476Z" fill="#FEFFFF"/>
<path d="M110.994 138.318C139.214 138.16 162.073 134.961 162.052 131.172C162.031 127.383 139.137 124.44 110.917 124.597C82.6978 124.755 59.8384 127.954 59.8596 131.743C59.8808 135.532 82.7744 138.475 110.994 138.318Z" fill="#FEFFFF"/>
<path d="M110.815 138.292C138.921 138.135 161.688 134.948 161.667 131.174C161.646 127.4 138.845 124.468 110.739 124.625C82.633 124.782 59.8657 127.969 59.8868 131.743C59.9079 135.517 82.7093 138.449 110.815 138.292Z" fill="#FEFEFF"/>
<path d="M110.635 138.266C138.628 138.11 161.303 134.936 161.282 131.176C161.261 127.417 138.552 124.496 110.559 124.652C82.5672 124.809 59.892 127.983 59.913 131.742C59.934 135.502 82.6432 138.423 110.635 138.266Z" fill="#FEFEFF"/>
<path d="M110.456 138.228C138.334 138.072 160.917 134.913 160.896 131.172C160.875 127.431 138.258 124.524 110.38 124.68C82.5014 124.836 59.9183 127.995 59.9392 131.736C59.9601 135.477 82.577 138.383 110.456 138.228Z" fill="#FEFEFF"/>
<path d="M110.277 138.202C138.042 138.047 160.533 134.9 160.512 131.174C160.491 127.448 137.966 124.552 110.201 124.708C82.4366 124.863 59.9456 128.009 59.9664 131.736C59.9872 135.462 82.5119 138.357 110.277 138.202Z" fill="#FDFEFF"/>
<path d="M110.097 138.177C137.748 138.022 160.147 134.888 160.126 131.176C160.105 127.464 137.673 124.581 110.022 124.735C82.3707 124.89 59.9719 128.024 59.9926 131.735C60.0133 135.447 82.4458 138.331 110.097 138.177Z" fill="#FDFEFE"/>
<path d="M109.917 138.158C137.455 138.004 159.761 134.882 159.741 131.185C159.72 127.488 137.38 124.616 109.842 124.769C82.3049 124.923 59.9982 128.045 60.0188 131.742C60.0395 135.439 82.3797 138.311 109.917 138.158Z" fill="#FDFEFE"/>
<path d="M110.725 137.271C138.152 136.997 160.357 133.79 160.32 130.107C160.283 126.425 138.019 123.662 110.591 123.936C83.1634 124.21 60.9586 127.418 60.9954 131.1C61.0322 134.783 83.2967 137.546 110.725 137.271Z" fill="#FDFEFE"/>
<path d="M109.558 138.107C136.872 137.954 158.998 134.857 158.977 131.189C158.957 127.522 136.798 124.672 109.484 124.824C82.1704 124.977 60.0449 128.074 60.0654 131.742C60.0859 135.409 82.2446 138.259 109.558 138.107Z" fill="#FCFDFE"/>
<path d="M109.379 138.074C136.579 137.922 158.613 134.838 158.592 131.185C158.572 127.532 136.506 124.693 109.306 124.845C82.1056 124.997 60.0722 128.082 60.0926 131.735C60.113 135.388 82.1795 138.226 109.379 138.074Z" fill="#FCFDFE"/>
<path d="M109.2 138.042C136.286 137.891 158.227 134.822 158.207 131.187C158.187 127.552 136.212 124.728 109.126 124.88C82.0398 125.031 60.0985 128.1 60.1188 131.735C60.1391 135.369 82.1133 138.193 109.2 138.042Z" fill="#FCFDFE"/>
<path d="M109.02 138.017C135.992 137.866 157.842 134.809 157.821 131.189C157.801 127.569 135.919 124.756 108.947 124.907C81.974 125.058 60.1248 128.115 60.145 131.735C60.1652 135.355 82.0472 138.167 109.02 138.017Z" fill="#FBFDFE"/>
<path d="M157.448 131.18C157.448 134.786 135.711 137.821 108.855 137.987C81.9978 138.153 60.2016 135.33 60.1817 131.731C60.1617 128.131 81.9181 125.09 108.782 124.924C135.645 124.758 157.428 127.574 157.448 131.18Z" fill="#FBFDFE"/>
<path d="M108.661 137.972C135.406 137.823 157.071 134.791 157.051 131.2C157.031 127.609 135.334 124.82 108.589 124.969C81.8434 125.118 60.1784 128.15 60.1984 131.741C60.2185 135.332 81.916 138.121 108.661 137.972Z" fill="#FBFCFE"/>
<path d="M108.481 137.947C135.113 137.798 156.686 134.778 156.666 131.202C156.646 127.626 135.041 124.848 108.409 124.996C81.7776 125.145 60.2047 128.165 60.2246 131.741C60.2446 135.317 81.8499 138.095 108.481 137.947Z" fill="#FAFCFE"/>
<path d="M108.303 137.921C134.82 137.773 156.301 134.766 156.281 131.204C156.261 127.643 134.748 124.876 108.231 125.024C81.7127 125.172 60.2319 128.179 60.2518 131.741C60.2717 135.302 81.7848 138.069 108.303 137.921Z" fill="#FAFCFD"/>
<path d="M108.123 137.889C134.527 137.741 155.916 134.747 155.896 131.2C155.876 127.653 134.455 124.897 108.051 125.045C81.6469 125.192 60.2582 128.187 60.2781 131.734C60.2979 135.281 81.7187 138.036 108.123 137.889Z" fill="#FAFCFD"/>
<path d="M107.944 137.857C134.238 137.71 155.537 134.73 155.518 131.202C155.498 127.674 134.166 124.932 107.872 125.079C81.5782 125.226 60.2787 128.205 60.2984 131.734C60.3181 135.262 81.6496 138.003 107.944 137.857Z" fill="#F9FCFD"/>
<path d="M107.764 137.831C133.944 137.685 155.152 134.718 155.132 131.204C155.112 127.69 133.873 124.96 107.693 125.107C81.5124 125.253 60.305 128.22 60.3246 131.734C60.3442 135.247 81.5835 137.977 107.764 137.831Z" fill="#F9FBFD"/>
<path d="M107.585 137.805C133.652 137.66 154.767 134.705 154.748 131.206C154.728 127.707 133.581 124.989 107.514 125.134C81.4476 125.28 60.3322 128.234 60.3518 131.733C60.3713 135.232 81.5184 137.951 107.585 137.805Z" fill="#F8FBFD"/>
<path d="M108.39 136.929C134.344 136.67 155.355 133.635 155.32 130.15C155.285 126.666 134.218 124.052 108.264 124.311C82.3108 124.571 61.2997 127.606 61.3346 131.09C61.3694 134.575 82.437 137.189 108.39 136.929Z" fill="#F8FBFD"/>
<path d="M107.225 137.761C133.065 137.617 153.996 134.687 153.976 131.217C153.957 127.748 132.995 125.052 107.155 125.196C81.316 125.34 60.3849 128.27 60.4042 131.74C60.4236 135.209 81.3862 137.905 107.225 137.761Z" fill="#F8FAFD"/>
<path d="M153.604 131.2C153.604 134.653 132.784 137.575 107.062 137.714C81.3413 137.854 60.4615 135.178 60.4482 131.737C60.435 128.297 81.2616 125.369 106.989 125.223C132.717 125.076 153.584 127.779 153.604 131.2Z" fill="#F7FAFC"/>
<path d="M106.867 137.697C132.479 137.554 153.226 134.652 153.206 131.215C153.187 127.778 132.409 125.108 106.797 125.251C81.1854 125.394 60.4384 128.296 60.4576 131.733C60.4768 135.17 81.2549 137.84 106.867 137.697Z" fill="#F7FAFC"/>
<path d="M106.687 137.671C132.185 137.529 152.84 134.639 152.821 131.217C152.802 127.795 132.116 125.136 106.618 125.279C81.1196 125.421 60.4647 128.311 60.4838 131.733C60.5029 135.155 81.1888 137.813 106.687 137.671Z" fill="#F6FAFC"/>
<path d="M152.454 131.206C152.454 134.613 131.906 137.495 106.524 137.635C81.1413 137.774 60.5404 135.131 60.5205 131.724C60.5006 128.317 81.0682 125.442 106.451 125.296C131.833 125.149 152.434 127.779 152.454 131.206Z" fill="#F6F9FC"/>
<path d="M106.335 137.62C131.606 137.479 152.077 134.614 152.058 131.221C152.039 127.829 131.537 125.193 106.267 125.334C80.9957 125.475 60.5251 128.34 60.5441 131.732C60.563 135.125 81.0644 137.761 106.335 137.62Z" fill="#F5F9FC"/>
<path d="M106.155 137.594C131.316 137.454 151.697 134.601 151.678 131.223C151.66 127.845 131.248 125.221 106.087 125.361C80.9261 125.502 60.5446 128.354 60.5635 131.732C60.5823 135.11 80.9944 137.735 106.155 137.594Z" fill="#F5F9FC"/>
<path d="M105.976 137.575C131.023 137.435 151.313 134.595 151.294 131.232C151.275 127.869 130.955 125.256 105.908 125.396C80.8613 125.535 60.5719 128.375 60.5907 131.739C60.6094 135.102 80.9293 137.715 105.976 137.575Z" fill="#F4F9FC"/>
<path d="M105.796 137.543C130.73 137.404 150.927 134.576 150.908 131.228C150.89 127.879 130.662 125.277 105.729 125.417C80.7954 125.556 60.5982 128.383 60.6169 131.732C60.6356 135.081 80.8632 137.682 105.796 137.543Z" fill="#F4F8FB"/>
<path d="M105.617 137.511C130.436 137.372 150.541 134.56 150.523 131.23C150.504 127.899 130.369 125.312 105.549 125.451C80.7297 125.589 60.6245 128.401 60.6431 131.732C60.6617 135.062 80.797 137.649 105.617 137.511Z" fill="#F3F8FB"/>
<path d="M105.438 137.485C130.144 137.347 150.157 134.548 150.138 131.232C150.12 127.916 130.077 125.34 105.371 125.478C80.6648 125.616 60.6517 128.416 60.6702 131.732C60.6888 135.047 80.7319 137.623 105.438 137.485Z" fill="#F3F8FB"/>
<path d="M105.258 137.46C129.85 137.322 149.771 134.535 149.753 131.234C149.734 127.933 129.783 125.369 105.191 125.506C80.599 125.643 60.678 128.431 60.6965 131.732C60.7149 135.032 80.6658 137.597 105.258 137.46Z" fill="#F2F7FB"/>
<path d="M105.079 137.434C129.558 137.297 149.387 134.523 149.368 131.236C149.35 127.95 129.491 125.397 105.013 125.533C80.5342 125.67 60.7053 128.445 60.7237 131.731C60.742 135.018 80.6007 137.571 105.079 137.434Z" fill="#F2F7FB"/>
<path d="M148.995 131.226C148.995 134.494 129.277 137.263 104.911 137.396C80.5443 137.529 60.7471 134.992 60.7471 131.724C60.7471 128.457 80.4646 125.687 104.831 125.555C129.197 125.422 148.975 127.952 148.995 131.226Z" fill="#F1F7FB"/>
<path d="M104.72 137.39C128.971 137.254 148.615 134.504 148.597 131.247C148.579 127.99 128.905 125.46 104.654 125.595C80.4026 125.731 60.7579 128.481 60.7761 131.738C60.7943 134.995 80.4685 137.525 104.72 137.39Z" fill="#F1F6FA"/>
<path d="M105.524 136.52C129.662 136.278 149.203 133.454 149.171 130.212C149.138 126.97 129.544 124.537 105.407 124.778C81.2687 125.02 61.7275 127.844 61.7599 131.086C61.7923 134.328 81.3861 136.761 105.524 136.52Z" fill="#F0F6FA"/>
<path d="M147.839 131.233C147.839 134.46 128.393 137.21 104.372 137.316C80.3513 137.422 60.8529 134.945 60.833 131.724C60.8131 128.503 80.2783 125.747 104.306 125.634C128.334 125.521 147.819 128.005 147.839 131.233Z" fill="#F0F6FA"/>
<path d="M147.453 131.233C147.453 134.447 128.101 137.157 104.193 137.29C80.2847 137.422 60.8793 134.932 60.8594 131.724C60.8395 128.517 80.2117 125.8 104.126 125.668C128.041 125.535 147.44 128.025 147.453 131.233Z" fill="#EFF5FA"/>
<path d="M147.082 131.233C147.082 134.434 127.822 137.13 104.027 137.263C80.2318 137.396 60.9194 134.919 60.8994 131.724C60.8795 128.53 80.1587 125.827 103.961 125.694C127.762 125.561 147.082 128.038 147.082 131.233Z" fill="#EEF5FA"/>
<path d="M146.689 131.239C146.689 134.42 127.516 137.103 103.834 137.216C80.1515 137.329 60.932 134.879 60.9121 131.704C60.8922 128.53 80.0785 125.833 103.767 125.727C127.456 125.621 146.669 128.058 146.689 131.239Z" fill="#EEF5FA"/>
<path d="M103.643 137.223C127.216 137.091 146.311 134.419 146.293 131.253C146.276 128.088 127.152 125.629 103.579 125.761C80.0068 125.892 60.9118 128.565 60.9295 131.73C60.9471 134.895 80.0708 137.355 103.643 137.223Z" fill="#EDF4F9"/>
<path d="M145.92 131.239C145.92 134.394 126.932 137.05 103.476 137.216C80.0195 137.382 60.9727 134.905 60.9727 131.757C60.9727 128.609 79.9597 125.946 103.416 125.814C126.873 125.681 145.9 128.091 145.92 131.239Z" fill="#EDF4F9"/>
<path d="M103.284 137.172C126.629 137.042 145.54 134.394 145.522 131.258C145.505 128.122 126.566 125.685 103.22 125.816C79.8752 125.946 60.9644 128.594 60.9819 131.73C60.9994 134.866 79.9386 137.302 103.284 137.172Z" fill="#ECF3F9"/>
<path d="M103.105 137.14C126.336 137.01 145.155 134.377 145.138 131.26C145.12 128.142 126.273 125.72 103.042 125.85C79.8104 125.98 60.9917 128.612 61.0091 131.73C61.0265 134.847 79.8734 137.269 103.105 137.14Z" fill="#EBF3F9"/>
<path d="M144.764 131.246C144.764 134.354 126.056 136.977 102.925 137.104C79.7935 137.23 61.0455 134.826 61.0322 131.718C61.019 128.609 79.7403 125.993 102.871 125.867C126.003 125.741 144.75 128.145 144.764 131.246Z" fill="#EBF3F9"/>
<path d="M144.379 131.253C144.379 134.341 125.784 136.951 102.759 137.077C79.7339 137.203 61.0856 134.812 61.0723 131.718C61.059 128.623 79.6675 126.026 102.692 125.893C125.717 125.76 144.365 128.165 144.379 131.253Z" fill="#EAF2F8"/>
<path d="M102.566 137.063C125.46 136.935 144.006 134.34 143.989 131.266C143.971 128.193 125.398 125.805 102.504 125.933C79.6101 126.061 61.0647 128.656 61.0819 131.729C61.099 134.803 79.6722 137.191 102.566 137.063Z" fill="#EAF2F8"/>
<path d="M102.387 137.037C125.167 136.91 143.62 134.327 143.603 131.268C143.586 128.21 125.105 125.833 102.325 125.96C79.5443 126.087 61.091 128.67 61.1081 131.729C61.1252 134.788 79.6062 137.165 102.387 137.037Z" fill="#E9F2F8"/>
<path d="M143.229 131.259C143.229 134.301 124.886 136.871 102.22 136.997C79.5538 137.123 61.1645 134.766 61.1445 131.718C61.1246 128.669 79.4874 126.106 102.154 125.98C124.82 125.853 143.209 128.211 143.229 131.259Z" fill="#E8F1F8"/>
<path d="M142.845 131.259C142.845 134.288 124.595 136.845 102.041 136.971C79.4882 137.097 61.1918 134.746 61.1719 131.718C61.152 128.689 79.4217 126.132 101.975 126.006C124.528 125.88 142.825 128.231 142.845 131.259Z" fill="#E8F1F7"/>
<path d="M101.849 136.954C124.288 136.829 142.465 134.286 142.448 131.275C142.432 128.264 124.227 125.924 101.788 126.05C79.3488 126.175 61.1718 128.717 61.1887 131.729C61.2055 134.74 79.4097 137.079 101.849 136.954Z" fill="#E7F0F7"/>
<path d="M101.669 136.929C123.995 136.804 142.08 134.274 142.063 131.277C142.046 128.281 123.934 125.952 101.609 126.077C79.283 126.202 61.1981 128.732 61.2149 131.729C61.2316 134.725 79.3436 137.053 101.669 136.929Z" fill="#E6F0F7"/>
<path d="M102.471 136.079C124.683 135.857 142.666 133.259 142.636 130.277C142.606 127.295 124.576 125.058 102.363 125.28C80.1511 125.502 62.1687 128.1 62.1985 131.082C62.2283 134.064 80.2591 136.301 102.471 136.079Z" fill="#E6EFF7"/>
<path d="M101.311 136.877C123.409 136.754 141.309 134.249 141.293 131.281C141.276 128.314 123.349 126.009 101.251 126.132C79.1524 126.256 61.2517 128.761 61.2683 131.728C61.2849 134.696 79.2124 137.001 101.311 136.877Z" fill="#E5EFF7"/>
<path d="M101.131 136.845C123.115 136.722 140.924 134.229 140.907 131.277C140.891 128.324 123.055 126.03 101.071 126.153C79.0866 126.276 61.278 128.769 61.2945 131.722C61.311 134.674 79.1463 136.968 101.131 136.845Z" fill="#E4EFF6"/>
<path d="M100.951 136.82C122.822 136.697 140.538 134.217 140.522 131.279C140.505 128.341 122.762 126.059 100.892 126.181C79.0208 126.303 61.3043 128.783 61.3207 131.721C61.3371 134.659 79.0802 136.942 100.951 136.82Z" fill="#E4EEF6"/>
<path d="M140.155 131.273C140.155 134.195 122.542 136.665 100.786 136.785C79.0295 136.904 61.3707 134.64 61.3574 131.718C61.3441 128.795 78.9631 126.332 100.726 126.205C122.489 126.079 140.135 128.35 140.155 131.273Z" fill="#E3EEF6"/>
<path d="M139.776 131.273C139.776 134.181 122.257 136.639 100.594 136.758C78.9303 136.878 61.411 134.626 61.3712 131.718C61.3313 128.809 78.8839 126.358 100.554 126.232C122.224 126.106 139.776 128.37 139.776 131.273Z" fill="#E2EDF6"/>
<path d="M100.413 136.743C121.947 136.623 139.39 134.182 139.374 131.292C139.357 128.402 121.888 126.156 100.355 126.277C78.8214 126.397 61.3783 128.837 61.3945 131.728C61.4106 134.618 78.8799 136.863 100.413 136.743Z" fill="#E1EDF6"/>
<path d="M138.999 131.279C138.999 134.155 121.666 136.592 100.248 136.705C78.8305 136.818 61.4506 134.593 61.4307 131.718C61.4108 128.842 78.7707 126.405 100.188 126.292C121.606 126.179 138.986 128.404 138.999 131.279Z" fill="#E1ECF5"/>
<path d="M138.614 131.279C138.614 134.142 121.347 136.592 100.095 136.679C78.8434 136.765 61.5033 134.58 61.4834 131.718C61.4635 128.855 78.7504 126.438 100.035 126.318C121.32 126.199 138.6 128.444 138.614 131.279Z" fill="#E0ECF5"/>
<path d="M138.228 131.286C138.228 134.128 121.081 136.532 99.8891 136.652C78.6973 136.771 61.5033 134.56 61.4834 131.718C61.4635 128.875 78.6375 126.471 99.8294 126.352C121.021 126.232 138.215 128.444 138.228 131.286Z" fill="#DFECF5"/>
<path d="M137.844 131.286C137.844 134.115 120.79 136.506 99.7106 136.599C78.6316 136.692 61.5307 134.52 61.5108 131.691C61.4908 128.862 78.5718 126.471 99.6508 126.378C120.73 126.285 137.831 128.444 137.844 131.286Z" fill="#DFEBF5"/>
<path d="M99.5161 136.609C120.481 136.491 137.464 134.116 137.448 131.303C137.432 128.49 120.424 126.304 99.4592 126.421C78.4944 126.538 61.5118 128.914 61.5275 131.727C61.5432 134.54 78.5513 136.726 99.5161 136.609Z" fill="#DEEBF4"/>
<path d="M99.3363 136.583C120.187 136.466 137.078 134.103 137.062 131.305C137.047 128.506 120.131 126.332 99.2797 126.449C78.4286 126.565 61.5381 128.928 61.5537 131.727C61.5693 134.525 78.4852 136.699 99.3363 136.583Z" fill="#DDEAF4"/>
<path d="M136.695 131.293C136.695 134.075 119.906 136.426 99.1721 136.546C78.4384 136.665 61.6031 134.5 61.5899 131.718C61.5766 128.935 78.372 126.577 99.1123 126.464C119.853 126.352 136.675 128.51 136.695 131.293Z" fill="#DCEAF4"/>
<path d="M98.9775 136.532C119.605 136.417 136.314 134.078 136.299 131.309C136.283 128.54 119.549 126.389 98.9215 126.504C78.2941 126.619 61.5848 128.957 61.6003 131.726C61.6157 134.496 78.3501 136.647 98.9775 136.532Z" fill="#DCE9F4"/>
<path d="M98.7977 136.5C119.311 136.385 135.929 134.059 135.913 131.305C135.898 128.55 119.256 126.41 98.742 126.525C78.2283 126.639 61.6111 128.965 61.6265 131.72C61.6419 134.474 78.284 136.614 98.7977 136.5Z" fill="#DBE9F3"/>
<path d="M135.539 131.299C135.539 134.035 119.029 136.353 98.6345 136.466C78.2396 136.579 61.6832 134.474 61.6699 131.718C61.6566 128.961 78.1798 126.664 98.5747 126.551C118.97 126.438 135.526 128.556 135.539 131.299Z" fill="#DAE8F3"/>
<path d="M135.128 131.299C135.128 134.022 118.711 136.327 98.4286 136.439C78.1466 136.552 61.6832 134.447 61.6699 131.718C61.6566 128.988 78.0868 126.69 98.3689 126.577C118.651 126.464 135.128 128.576 135.128 131.299Z" fill="#D9E8F3"/>
<path d="M98.2592 136.416C118.432 136.304 134.773 134.018 134.757 131.311C134.742 128.605 118.377 126.502 98.2044 126.614C78.0318 126.727 61.691 129.013 61.7061 131.719C61.7212 134.426 78.0866 136.529 98.2592 136.416Z" fill="#D8E7F3"/>
<path d="M98.0803 136.397C118.139 136.285 134.388 134.012 134.373 131.32C134.358 128.628 118.085 126.536 98.0259 126.648C77.967 126.76 61.7182 129.034 61.7333 131.726C61.7483 134.418 78.0215 136.509 98.0803 136.397Z" fill="#D8E7F2"/>
<path d="M134.005 131.306C134.005 133.962 117.861 136.247 97.9173 136.36C77.9739 136.473 61.7895 134.367 61.7695 131.711C61.7496 129.055 77.9142 126.777 97.8575 126.664C117.801 126.551 133.985 128.629 134.005 131.306Z" fill="#D7E6F2"/>
<path d="M133.619 131.306C133.619 133.962 117.568 136.22 97.7573 136.333C77.9468 136.446 61.8354 134.374 61.8154 131.684C61.7955 128.995 77.8671 126.777 97.6776 126.664C117.488 126.551 133.6 128.643 133.619 131.306Z" fill="#D6E6F2"/>
<path d="M97.5478 136.314C117.266 136.204 133.238 133.968 133.223 131.32C133.208 128.672 117.212 126.614 97.4942 126.724C77.7764 126.834 61.804 129.07 61.8188 131.719C61.8336 134.367 77.83 136.424 97.5478 136.314Z" fill="#D5E5F2"/>
<path d="M132.849 131.312C132.849 133.969 116.983 136.167 97.3787 136.28C77.7741 136.393 61.8619 134.347 61.8486 131.711C61.8354 129.074 77.7143 126.856 97.319 126.75C116.924 126.644 132.836 128.683 132.849 131.312Z" fill="#D4E5F1"/>
<path d="M132.471 131.312C132.471 133.929 116.698 136.141 97.2061 136.254C77.7143 136.366 61.8951 134.328 61.8818 131.711C61.8686 129.094 77.6546 126.883 97.1529 126.777C116.651 126.67 132.471 128.696 132.471 131.312Z" fill="#D4E4F1"/>
<path d="M97.01 136.231C116.39 136.122 132.09 133.927 132.075 131.326C132.06 128.726 116.338 126.705 96.9574 126.814C77.5771 126.922 61.878 129.118 61.8925 131.718C61.907 134.319 77.6297 136.339 97.01 136.231Z" fill="#D3E4F1"/>
<path d="M96.8302 136.212C116.097 136.104 131.704 133.921 131.689 131.335C131.675 128.749 116.045 126.74 96.778 126.848C77.5113 126.955 61.9043 129.139 61.9187 131.725C61.9332 134.31 77.5636 136.319 96.8302 136.212Z" fill="#D2E3F0"/>
<path d="M96.6504 136.186C115.803 136.079 131.318 133.908 131.304 131.337C131.29 128.766 115.751 126.768 96.5984 126.875C77.4455 126.982 61.9306 129.153 61.9449 131.725C61.9593 134.296 77.4975 136.293 96.6504 136.186Z" fill="#D1E3F0"/>
<path d="M96.4716 136.161C115.511 136.054 130.934 133.896 130.919 131.339C130.905 128.783 115.459 126.797 96.4199 126.903C77.3807 127.009 61.9579 129.168 61.9721 131.724C61.9864 134.281 77.4324 136.267 96.4716 136.161Z" fill="#D0E2F0"/>
<path d="M130.545 131.326C130.545 133.863 115.224 136.014 96.3037 136.121C77.383 136.227 62.0221 134.255 62.0088 131.711C61.9955 129.167 77.3233 127.022 96.2505 126.916C115.178 126.81 130.532 128.782 130.545 131.326Z" fill="#CFE2F0"/>
<path d="M96.113 136.103C114.925 135.998 130.163 133.864 130.149 131.337C130.135 128.81 114.874 126.846 96.0619 126.952C77.25 127.057 62.0114 129.19 62.0256 131.717C62.0397 134.245 77.3011 136.208 96.113 136.103Z" fill="#CEE1EF"/>
<path d="M129.775 131.332C129.775 133.843 114.64 135.981 95.945 136.068C77.2502 136.154 62.0752 134.221 62.0752 131.711C62.0752 129.201 77.2104 127.062 95.945 126.976C114.68 126.889 129.762 128.822 129.775 131.332Z" fill="#CEE1EF"/>
<path d="M95.7533 136.045C114.338 135.941 129.392 133.835 129.378 131.341C129.364 128.847 114.287 126.909 95.7029 127.013C77.1184 127.117 62.064 129.223 62.078 131.717C62.0919 134.211 77.1689 136.149 95.7533 136.045Z" fill="#CDE0EF"/>
<path d="M95.5743 136.026C114.049 135.923 129.014 133.829 129 131.35C128.986 128.871 113.999 126.944 95.5242 127.047C77.0497 127.151 62.0845 129.244 62.0983 131.724C62.1122 134.203 77.0999 136.129 95.5743 136.026Z" fill="#CCE0EF"/>
<path d="M95.3945 136.001C113.755 135.898 128.628 133.817 128.615 131.352C128.601 128.888 113.705 126.973 95.3446 127.075C76.9839 127.178 62.1108 129.259 62.1245 131.724C62.1383 134.188 77.0338 136.103 95.3945 136.001Z" fill="#CBDFEE"/>
<path d="M95.2157 135.968C113.463 135.867 128.244 133.798 128.23 131.348C128.216 128.898 113.413 126.994 95.1661 127.096C76.9191 127.198 62.138 129.267 62.1517 131.717C62.1654 134.167 76.9686 136.07 95.2157 135.968Z" fill="#CADFEE"/>
<path d="M127.855 131.339C127.855 133.776 113.178 135.828 95.0479 135.935C76.9176 136.041 62.2008 134.142 62.1875 131.711C62.1742 129.28 76.8644 127.221 94.9948 127.115C113.125 127.009 127.822 128.908 127.855 131.339Z" fill="#C9DEEE"/>
<path d="M127.471 131.339C127.471 133.763 112.86 135.802 94.8693 135.908C76.8785 136.014 62.2281 134.128 62.2149 131.711C62.2016 129.294 76.8254 127.248 94.8162 127.148C112.807 127.049 127.457 128.922 127.471 131.339Z" fill="#C8DEED"/>
<path d="M94.6772 135.885C112.583 135.785 127.088 133.757 127.074 131.354C127.061 128.952 112.535 127.085 94.6286 127.185C76.7227 127.285 62.2179 129.314 62.2313 131.716C62.2447 134.119 76.7712 135.985 94.6772 135.885Z" fill="#C7DDED"/>
<path d="M94.4974 135.86C112.29 135.76 126.702 133.744 126.689 131.356C126.676 128.969 112.241 127.114 94.4491 127.213C76.6568 127.312 62.2442 129.328 62.2575 131.716C62.2709 134.104 76.7051 135.959 94.4974 135.86Z" fill="#C6DCED"/>
<path d="M126.315 131.346C126.315 133.723 112.01 135.729 94.3308 135.828C76.6521 135.928 62.3072 134.082 62.294 131.711C62.2807 129.34 76.599 127.328 94.2777 127.228C111.956 127.129 126.301 128.975 126.315 131.346Z" fill="#C6DCED"/>
<path d="M125.929 131.352C125.929 133.71 111.717 135.702 94.1513 135.802C76.5855 135.901 62.3336 134.069 62.3203 131.711C62.307 129.353 76.5324 127.361 94.0982 127.261C111.664 127.162 125.916 128.995 125.929 131.352Z" fill="#C5DBEC"/>
<path d="M93.9589 135.783C111.41 135.685 125.546 133.706 125.533 131.363C125.52 129.019 111.363 127.198 93.9115 127.296C76.4604 127.393 62.3241 129.372 62.3372 131.716C62.3503 134.059 76.5078 135.88 93.9589 135.783Z" fill="#C4DBEC"/>
<path d="M125.166 131.352C125.166 133.683 111.133 135.649 93.8001 135.749C76.4667 135.848 62.3875 134.035 62.3809 131.711C62.3742 129.387 76.4069 127.414 93.747 127.314C111.087 127.215 125.166 129.028 125.166 131.352Z" fill="#C3DAEC"/>
<path d="M124.781 131.359C124.781 133.67 110.834 135.623 93.6137 135.722C76.3933 135.822 62.4004 134.022 62.4004 131.737C62.4004 129.453 76.3468 127.467 93.5673 127.374C110.788 127.281 124.767 129.041 124.781 131.359Z" fill="#C2DAEB"/>
<path d="M94.3969 134.911C111.511 134.74 125.366 132.74 125.343 130.444C125.32 128.148 111.428 126.425 94.3137 126.596C77.1998 126.767 63.3448 128.767 63.3677 131.063C63.3907 133.359 77.2829 135.082 94.3969 134.911Z" fill="#C1D9EB"/>
<path d="M93.2414 135.674C110.241 135.579 124.012 133.653 124 131.371C123.987 129.09 110.195 127.318 93.1953 127.412C76.1953 127.507 62.4244 129.434 62.4371 131.715C62.4499 133.996 76.2414 135.769 93.2414 135.674Z" fill="#C0D8EB"/>
<path d="M123.625 131.359C123.625 133.63 109.958 135.543 93.076 135.642C76.1942 135.742 62.4869 133.976 62.4736 131.704C62.4604 129.433 76.1411 127.527 93.0229 127.427C109.905 127.328 123.612 129.108 123.625 131.359Z" fill="#BFD8EA"/>
<path d="M92.8818 135.623C109.654 135.529 123.241 133.628 123.229 131.376C123.216 129.124 109.609 127.374 92.8363 127.468C76.0637 127.561 62.477 129.463 62.4896 131.715C62.5021 133.967 76.1092 135.717 92.8818 135.623Z" fill="#BED7EA"/>
<path d="M122.855 131.366C122.855 133.604 109.373 135.49 92.717 135.589C76.061 135.689 62.5397 133.942 62.5264 131.704C62.5131 129.466 76.0079 127.58 92.6705 127.487C109.333 127.394 122.841 129.108 122.855 131.366Z" fill="#BDD7EA"/>
<path d="M92.5232 135.572C109.068 135.479 122.471 133.603 122.458 131.38C122.446 129.157 109.023 127.43 92.4782 127.523C75.933 127.615 62.5306 129.492 62.543 131.715C62.5554 133.937 75.978 135.664 92.5232 135.572Z" fill="#BCD6E9"/>
<path d="M122.085 131.372C122.085 133.577 108.802 135.443 92.359 135.536C75.9155 135.629 62.5934 133.909 62.5801 131.704C62.5668 129.499 75.8624 127.633 92.3125 127.547C108.763 127.461 122.071 129.167 122.085 131.372Z" fill="#BBD5E9"/>
<path d="M121.699 131.372C121.699 133.564 108.497 135.417 92.1795 135.503C75.8622 135.589 62.6197 133.896 62.6065 131.704C62.5932 129.513 75.8091 127.666 92.133 127.573C108.457 127.48 121.693 129.181 121.699 131.372Z" fill="#BAD5E9"/>
<path d="M91.9855 135.488C108.193 135.398 121.322 133.561 121.31 131.386C121.298 129.211 108.149 127.522 91.9415 127.612C75.7337 127.703 62.6046 129.539 62.6167 131.714C62.6289 133.889 75.7777 135.579 91.9855 135.488Z" fill="#B9D4E9"/>
<path d="M91.8057 135.463C107.9 135.373 120.937 133.549 120.925 131.389C120.913 129.228 107.856 127.55 91.762 127.64C75.6679 127.73 62.6309 129.554 62.6429 131.714C62.655 133.874 75.7116 135.553 91.8057 135.463Z" fill="#B8D4E8"/>
<path d="M120.55 131.379C120.55 133.524 107.62 135.364 91.6343 135.423C75.6491 135.483 62.6922 133.849 62.6855 131.704C62.6789 129.559 75.6159 127.72 91.5944 127.66C107.573 127.6 120.517 129.234 120.55 131.379Z" fill="#B7D3E8"/>
<path d="M120.165 131.379C120.165 133.511 107.328 135.311 91.4555 135.397C75.5832 135.483 62.7393 133.836 62.7393 131.704C62.7393 129.573 75.5832 127.773 91.4489 127.686C107.315 127.6 120.152 129.254 120.165 131.379Z" fill="#B6D2E8"/>
<path d="M91.2672 135.386C107.02 135.298 119.781 133.511 119.769 131.395C119.757 129.279 106.977 127.634 91.2244 127.722C75.4715 127.81 62.7108 129.597 62.7226 131.714C62.7344 133.83 75.5143 135.474 91.2672 135.386Z" fill="#B5D2E7"/>
<path d="M119.394 131.386C119.394 133.484 106.736 135.257 91.0966 135.37C75.4567 135.483 62.7721 133.829 62.7588 131.731C62.7455 129.632 75.4168 127.859 91.0567 127.746C106.697 127.633 119.381 129.287 119.394 131.386Z" fill="#B4D1E7"/>
<path d="M90.9085 135.328C106.434 135.242 119.011 133.483 118.999 131.399C118.987 129.316 106.392 127.697 90.8664 127.784C75.3408 127.871 62.7643 129.63 62.776 131.713C62.7876 133.797 75.383 135.415 90.9085 135.328Z" fill="#B3D1E7"/>
<path d="M118.625 131.392C118.625 133.458 106.152 135.204 90.7317 135.291C75.311 135.377 62.8389 133.776 62.8057 131.704C62.7725 129.632 75.2778 127.886 90.6985 127.799C106.119 127.713 118.618 129.32 118.625 131.392Z" fill="#B2D0E6"/>
<path d="M118.246 131.392C118.246 133.444 105.86 135.178 90.559 135.264C75.2578 135.35 62.8522 133.756 62.8389 131.704C62.8256 129.652 75.218 127.912 90.5192 127.826C105.82 127.74 118.233 129.34 118.246 131.392Z" fill="#B1CFE6"/>
<path d="M117.861 131.392C117.861 133.431 105.568 135.151 90.3795 135.237C75.1912 135.324 62.8785 133.743 62.8652 131.704C62.852 129.665 75.158 127.945 90.3396 127.859C105.521 127.773 117.861 129.353 117.861 131.392Z" fill="#B0CFE6"/>
<path d="M117.475 131.392C117.475 133.418 105.275 135.131 90.2 135.211C75.1246 135.291 62.9049 133.73 62.8916 131.704C62.8783 129.679 75.0914 127.972 90.1601 127.886C105.229 127.799 117.462 129.373 117.475 131.392Z" fill="#AFCEE5"/>
<path d="M117.09 131.399C117.09 133.391 104.983 135.105 90.0205 135.184C75.058 135.264 62.9313 133.71 62.918 131.704C62.9047 129.699 75.0248 127.999 89.9806 127.912C104.936 127.826 117.076 129.387 117.09 131.399Z" fill="#AECDE5"/>
<path d="M116.705 131.399C116.705 133.391 104.692 135.078 89.8419 135.158C74.9923 135.237 62.952 133.697 62.9453 131.704C62.9387 129.712 74.9591 128.025 89.8021 127.945C104.645 127.866 116.692 129.406 116.705 131.399Z" fill="#ADCDE5"/>
<path d="M89.6526 135.143C104.386 135.061 116.321 133.391 116.31 131.414C116.299 129.437 104.346 127.901 89.6126 127.984C74.8793 128.066 62.9445 129.735 62.9555 131.712C62.9666 133.689 74.9193 135.225 89.6526 135.143Z" fill="#ACCCE4"/>
<path d="M115.935 131.405C115.935 133.398 104.107 135.025 89.4829 135.105C74.8591 135.184 63.0047 133.663 62.998 131.704C62.9914 129.745 74.8259 128.085 89.4431 127.999C104.06 127.912 115.928 129.44 115.935 131.405Z" fill="#ABCCE4"/>
<path d="M115.549 131.405C115.549 133.351 103.814 134.998 89.3032 135.078C74.7923 135.158 63.0309 133.65 63.0176 131.704C63.0043 129.758 74.7591 128.111 89.2634 128.025C103.768 127.939 115.542 129.46 115.549 131.405Z" fill="#AACBE4"/>
<path d="M115.203 131.405C115.203 133.338 103.555 134.972 89.1569 135.051C74.7589 135.131 63.0904 133.637 63.0772 131.731C63.0639 129.825 74.7257 128.165 89.1237 128.085C103.522 128.005 115.157 129.473 115.203 131.405Z" fill="#A9CAE3"/>
<path d="M88.9343 135.041C103.213 134.961 114.779 133.341 114.769 131.423C114.758 129.505 103.174 128.014 88.8955 128.094C74.617 128.174 63.0507 129.793 63.0614 131.712C63.0721 133.63 74.6558 135.12 88.9343 135.041Z" fill="#A8CAE3"/>
<path d="M114.4 131.412C114.4 133.311 102.938 134.919 88.7657 134.998C74.5935 135.078 63.111 133.604 63.0977 131.678C63.0844 129.752 74.5669 128.165 88.7325 128.085C102.898 128.005 114.387 129.513 114.4 131.412Z" fill="#A7C9E3"/>
<path d="M114.015 131.412C114.015 133.298 102.639 134.892 88.5862 134.972C74.5335 135.051 63.1373 133.59 63.124 131.704C63.1108 129.818 74.5003 128.218 88.553 128.145C102.606 128.072 114.002 129.526 114.015 131.412Z" fill="#A6C8E2"/>
<path d="M113.63 131.419C113.63 133.285 102.34 134.865 88.3936 134.945C74.4472 135.025 63.1572 133.57 63.1572 131.698C63.1572 129.825 74.4472 128.251 88.3936 128.171C102.34 128.092 113.617 129.546 113.63 131.419Z" fill="#A4C8E2"/>
<path d="M113.245 131.419C113.245 133.272 102.055 134.846 88.2281 134.919C74.4013 134.992 63.191 133.557 63.1777 131.698C63.1645 129.838 74.3681 128.277 88.1949 128.198C102.022 128.118 113.212 129.559 113.245 131.419Z" fill="#A3C7E2"/>
<path d="M112.86 131.419C112.86 133.258 101.763 134.819 88.0486 134.892C74.3347 134.965 63.2107 133.564 63.2041 131.698C63.1975 129.832 74.3015 128.304 88.0154 128.224C101.729 128.145 112.853 129.579 112.86 131.419Z" fill="#A2C6E1"/>
<path d="M112.475 131.425C112.475 133.245 101.47 134.792 87.8691 134.866C74.268 134.939 63.2371 133.537 63.2305 131.698C63.2238 129.858 74.2348 128.331 87.8359 128.258C101.437 128.185 112.468 129.599 112.475 131.425Z" fill="#A1C6E1"/>
<path d="M87.6843 134.855C101.171 134.78 112.095 133.25 112.085 131.438C112.075 129.626 101.134 128.218 87.6476 128.294C74.1613 128.369 63.2367 129.899 63.2468 131.711C63.257 133.523 74.198 134.93 87.6843 134.855Z" fill="#A0C5E0"/>
<path d="M111.71 131.425C111.71 133.218 100.885 134.746 87.5101 134.812C74.1348 134.879 63.2898 133.484 63.2832 131.698C63.2766 129.911 74.1016 128.377 87.4769 128.311C100.852 128.244 111.697 129.632 111.71 131.425Z" fill="#9FC4E0"/>
<path d="M111.326 131.425C111.326 133.212 100.594 134.713 87.3316 134.786C74.0692 134.859 63.3172 133.458 63.3105 131.698C63.3039 129.938 74.0294 128.443 87.3116 128.344C100.594 128.244 111.313 129.646 111.326 131.425Z" fill="#9EC4E0"/>
<path d="M110.94 131.432C110.94 133.199 100.315 134.686 87.1519 134.753C73.9891 134.819 63.3434 133.458 63.3301 131.691C63.3168 129.924 73.9559 128.437 87.1187 128.37C100.281 128.304 110.927 129.665 110.94 131.432Z" fill="#9DC3DF"/>
<path d="M110.555 131.432C110.555 133.185 100.009 134.66 86.9724 134.753C73.9358 134.846 63.3697 133.471 63.3565 131.718C63.3432 129.964 73.9092 128.49 86.9392 128.397C99.9691 128.304 110.555 129.685 110.555 131.432Z" fill="#9CC2DF"/>
<path d="M86.7871 134.714C99.7049 134.642 110.169 133.177 110.159 131.442C110.15 129.707 99.6698 128.359 86.7521 128.431C73.8343 128.504 63.3702 129.968 63.3798 131.703C63.3895 133.438 73.8693 134.786 86.7871 134.714Z" fill="#9AC2DF"/>
<path d="M109.785 131.439C109.785 133.159 99.4249 134.606 86.6141 134.68C73.8034 134.753 63.4033 133.418 63.4033 131.698C63.4033 129.978 73.7702 128.53 86.5743 128.457C99.3784 128.384 109.778 129.719 109.785 131.439Z" fill="#99C1DE"/>
<path d="M109.4 131.439C109.4 133.145 99.1327 134.58 86.4348 134.653C73.7369 134.726 63.4498 133.404 63.4365 131.698C63.4233 129.991 73.7104 128.556 86.4016 128.483C99.0928 128.41 109.393 129.732 109.4 131.439Z" fill="#98C0DE"/>
<path d="M109.021 131.439C109.021 133.132 98.8403 134.553 86.2553 134.626C73.6703 134.699 63.4762 133.385 63.4629 131.698C63.4496 130.011 73.6438 128.583 86.2221 128.51C98.8004 128.437 109.008 129.772 109.021 131.439Z" fill="#97BFDE"/>
<path d="M86.0696 134.612C98.5363 134.542 108.635 133.13 108.626 131.457C108.616 129.785 98.5024 128.485 86.0358 128.555C73.5691 128.625 63.4705 130.037 63.4798 131.709C63.4891 133.382 73.6029 134.681 86.0696 134.612Z" fill="#96BFDD"/>
<path d="M108.25 131.445C108.25 133.106 98.2488 134.507 85.8963 134.573C73.5437 134.64 63.5223 133.358 63.5156 131.698C63.509 130.037 73.5106 128.636 85.8631 128.57C98.2156 128.503 108.237 129.772 108.25 131.445Z" fill="#95BEDD"/>
<path d="M107.899 131.445C107.899 133.092 97.9906 134.48 85.7509 134.547C73.5113 134.613 63.5828 133.338 63.5762 131.698C63.5695 130.057 73.4781 128.663 85.7177 128.596C97.9574 128.53 107.853 129.805 107.899 131.445Z" fill="#94BDDC"/>
<path d="M107.48 131.452C107.48 133.079 97.6648 134.454 85.5646 134.52C73.4644 134.587 63.6023 133.325 63.5957 131.698C63.5891 130.071 73.4047 128.696 85.5115 128.623C97.6183 128.55 107.474 129.818 107.48 131.452Z" fill="#92BDDC"/>
<path d="M107.095 131.452C107.095 133.066 97.3726 134.427 85.3587 134.494C73.3449 134.56 63.6023 133.311 63.5957 131.698C63.5891 130.084 73.3183 128.722 85.3255 128.656C97.3327 128.59 107.089 129.838 107.095 131.452Z" fill="#91BCDC"/>
<path d="M106.71 131.452C106.71 133.052 97.0802 134.401 85.1792 134.467C73.2783 134.533 63.6287 133.291 63.6221 131.698C63.6154 130.104 73.2517 128.749 85.146 128.683C97.0403 128.616 106.703 129.858 106.71 131.452Z" fill="#90BBDB"/>
<path d="M106.324 131.459C106.324 133.039 96.7877 134.374 84.9997 134.44C73.2117 134.507 63.6551 133.278 63.6484 131.698C63.6418 130.117 73.1851 128.776 84.9732 128.709C96.7612 128.643 106.318 129.871 106.324 131.459Z" fill="#8FBADB"/>
<path d="M105.94 131.459C105.94 133.026 96.4961 134.347 84.821 134.414C73.1459 134.48 63.6822 133.265 63.669 131.698C63.6557 130.13 73.1193 128.802 84.7944 128.742C96.4696 128.683 105.907 129.891 105.94 131.459Z" fill="#8EBADB"/>
<path d="M105.561 131.459C105.561 133.013 96.2037 134.321 84.6415 134.387C73.0793 134.454 63.7086 133.245 63.6953 131.698C63.682 130.15 73.0527 128.835 84.6149 128.769C96.1772 128.703 105.548 129.905 105.561 131.459Z" fill="#8DB9DA"/>
<path d="M105.176 131.459C105.176 132.999 95.9113 134.294 84.462 134.361C73.0126 134.427 63.735 133.232 63.7217 131.704C63.7084 130.177 73.0193 128.869 84.4354 128.802C95.8516 128.736 105.162 129.925 105.176 131.459Z" fill="#8BB8DA"/>
<path d="M104.791 131.465C104.791 132.986 95.6199 134.268 84.2834 134.334C72.947 134.401 63.7557 133.218 63.749 131.678C63.7424 130.137 72.9204 128.869 84.2569 128.802C95.5933 128.736 104.785 129.944 104.791 131.465Z" fill="#8AB8D9"/>
<path d="M84.0954 134.317C95.3151 134.254 104.404 132.982 104.395 131.474C104.387 129.967 95.2846 128.795 84.0649 128.858C72.8453 128.921 63.7568 130.194 63.7652 131.701C63.7737 133.209 72.8758 134.38 84.0954 134.317Z" fill="#89B7D9"/>
<path d="M104.021 131.465C104.021 132.959 95.035 134.221 83.9244 134.281C72.8138 134.341 63.8084 133.185 63.8018 131.698C63.7951 130.21 72.7872 128.942 83.8979 128.882C95.0085 128.822 104.014 129.978 104.021 131.465Z" fill="#88B6D9"/>
<path d="M83.7367 134.266C94.729 134.205 103.633 132.96 103.625 131.485C103.617 130.011 94.6991 128.865 83.7069 128.927C72.7147 128.988 63.8104 130.233 63.8186 131.707C63.8269 133.182 72.7445 134.327 83.7367 134.266Z" fill="#87B5D8"/>
<path d="M103.25 131.472C103.25 132.933 94.4502 134.168 83.5654 134.228C72.6806 134.288 63.8611 133.152 63.8545 131.691C63.8479 130.23 72.6607 129.001 83.5389 128.942C94.417 128.882 103.25 130.011 103.25 131.472Z" fill="#85B5D8"/>
<path d="M102.864 131.472C102.864 132.92 94.1512 134.128 83.3859 134.201C72.6206 134.274 63.8875 133.139 63.8809 131.691C63.8742 130.243 72.594 129.035 83.3593 128.968C94.1246 128.902 102.858 130.031 102.864 131.472Z" fill="#84B4D8"/>
<path d="M102.486 131.479C102.486 132.906 93.8529 134.135 83.227 134.175C72.6012 134.215 63.9677 133.126 63.9279 131.691C63.888 130.257 72.5614 129.035 83.1872 128.995C93.813 128.955 102.473 130.044 102.486 131.479Z" fill="#83B3D7"/>
<path d="M102.101 131.479C102.101 132.893 93.5673 134.088 83.0279 134.135C72.4884 134.181 63.9412 133.092 63.9346 131.678C63.9279 130.263 72.4618 129.068 83.0013 129.021C93.5408 128.975 102.095 130.064 102.101 131.479Z" fill="#82B2D7"/>
<path d="M101.716 131.479C101.716 132.88 93.2749 134.062 82.8484 134.135C72.4218 134.208 63.9676 133.106 63.9609 131.704C63.9543 130.303 72.3952 129.128 82.8218 129.048C93.2484 128.968 101.709 130.077 101.716 131.479Z" fill="#81B2D6"/>
<path d="M101.33 131.485C101.33 132.866 92.9823 134.035 82.6687 134.095C72.355 134.155 63.9938 133.079 63.9805 131.691C63.9672 130.303 72.3284 129.141 82.6421 129.081C92.9558 129.021 101.324 130.097 101.33 131.485Z" fill="#7FB1D6"/>
<path d="M100.945 131.485C100.945 132.853 92.6899 134.009 82.4892 134.068C72.2884 134.128 64.0201 133.059 64.0069 131.691C63.9936 130.323 72.2618 129.167 82.4626 129.108C92.6634 129.048 100.938 130.117 100.945 131.485Z" fill="#7EB0D6"/>
<path d="M100.594 131.485C100.594 132.813 92.4317 133.982 82.3438 134.042C72.2559 134.102 64.0674 133.046 64.0674 131.691C64.0674 130.336 72.2293 129.194 82.3172 129.141C92.4051 129.088 100.554 130.13 100.594 131.485Z" fill="#7DAFD5"/>
<path d="M100.175 131.492C100.175 132.82 92.1061 133.956 82.1311 134.015C72.1561 134.075 64.0672 133.033 64.0606 131.691C64.0539 130.349 72.1362 129.22 82.1045 129.167C92.0729 129.114 100.168 130.15 100.175 131.492Z" fill="#7CAFD5"/>
<path d="M99.7901 131.492C99.7901 132.82 91.8207 133.929 81.952 133.989C72.0832 134.049 64.0674 133.013 64.0674 131.691C64.0674 130.369 72.0368 129.247 81.9055 129.194C91.7742 129.141 99.7835 130.164 99.7901 131.492Z" fill="#7AAED4"/>
<path d="M81.7625 133.972C91.5077 133.917 99.4018 132.811 99.3945 131.502C99.3872 130.193 91.4812 129.175 81.7361 129.23C71.9909 129.284 64.0967 130.39 64.1041 131.699C64.1114 133.009 72.0173 134.026 81.7625 133.972Z" fill="#79ADD4"/>
<path d="M99.0266 131.492C99.0266 132.82 91.2298 133.883 81.5935 133.936C71.9573 133.989 64.1473 132.986 64.1406 131.691C64.134 130.396 71.9373 129.307 81.567 129.254C91.1966 129.201 99.0199 130.203 99.0266 131.492Z" fill="#78ACD4"/>
<path d="M98.6406 131.498C98.6406 132.773 90.9368 133.856 81.4135 133.909C71.8901 133.962 64.1465 132.966 64.1465 131.691C64.1465 130.416 71.8502 129.333 81.367 129.28C90.8837 129.227 98.6339 130.217 98.6406 131.498Z" fill="#77ACD3"/>
<path d="M81.2238 133.895C90.6316 133.842 98.2524 132.777 98.2454 131.515C98.2383 130.253 90.6061 129.273 81.1983 129.326C71.7906 129.378 64.1698 130.444 64.1768 131.705C64.1839 132.967 71.8161 133.947 81.2238 133.895Z" fill="#75ABD3"/>
<path d="M97.8704 131.498C97.8704 132.747 90.3526 133.803 81.055 133.856C71.7574 133.909 64.2264 132.94 64.2197 131.691C64.2131 130.442 71.7375 129.387 81.0285 129.34C90.3194 129.294 97.8638 130.257 97.8704 131.498Z" fill="#74AAD2"/>
<path d="M97.485 131.505C97.485 132.734 90.0602 133.776 80.8822 133.83C71.7041 133.883 64.2793 132.92 64.2793 131.691C64.2793 130.462 71.7041 129.42 80.8822 129.367C90.0602 129.314 97.4784 130.27 97.485 131.505Z" fill="#73A9D2"/>
<path d="M97.1006 131.505C97.1006 132.72 89.7621 133.75 80.697 133.803C71.6318 133.856 64.2801 132.906 64.2734 131.691C64.2668 130.476 71.5787 129.446 80.6771 129.393C89.7754 129.34 97.094 130.29 97.1006 131.505Z" fill="#72A8D2"/>
<path d="M96.715 131.505C96.715 132.707 89.4696 133.723 80.5173 133.776C71.565 133.829 64.3063 132.893 64.293 131.691C64.2797 130.489 71.5385 129.473 80.4974 129.42C89.4563 129.367 96.7084 130.303 96.715 131.505Z" fill="#70A8D1"/>
<path d="M96.3363 131.512C96.3363 132.694 89.1771 133.697 80.3378 133.75C71.4984 133.803 64.326 132.88 64.3193 131.691C64.3127 130.502 71.4785 129.499 80.3178 129.453C89.1572 129.406 96.3296 130.323 96.3363 131.512Z" fill="#6FA7D1"/>
<path d="M80.1538 133.728C88.8793 133.679 95.9475 132.691 95.941 131.521C95.9344 130.351 88.8557 129.442 80.1301 129.491C71.4045 129.54 64.3364 130.528 64.3429 131.698C64.3494 132.868 71.4282 133.777 80.1538 133.728Z" fill="#6EA6D0"/>
<path d="M95.5665 131.512C95.5665 132.667 88.5933 133.644 79.9797 133.697C71.3662 133.75 64.3797 132.847 64.3731 131.704C64.3664 130.562 71.3462 129.572 79.9598 129.519C88.5734 129.466 95.5598 130.356 95.5665 131.512Z" fill="#6CA5D0"/>
<path d="M95.1811 131.518C95.1811 132.654 88.3009 133.624 79.8002 133.67C71.2996 133.717 64.4061 132.833 64.3994 131.678C64.3928 130.522 71.2796 129.573 79.7803 129.526C88.281 129.48 95.1745 130.376 95.1811 131.518Z" fill="#6BA5CF"/>
<path d="M94.7957 131.518C94.7957 132.641 88.0085 133.597 79.6207 133.643C71.233 133.69 64.4324 132.813 64.4258 131.691C64.4191 130.569 71.213 129.612 79.6008 129.566C87.9886 129.519 94.7891 130.389 94.7957 131.518Z" fill="#6AA4CF"/>
<path d="M94.4103 131.518C94.4103 132.627 87.7161 133.57 79.4412 133.617C71.1663 133.663 64.4588 132.8 64.4522 131.691C64.4455 130.582 71.1464 129.639 79.4213 129.592C87.6961 129.546 94.4037 130.436 94.4103 131.518Z" fill="#68A3CF"/>
<path d="M94.025 131.518C94.025 132.614 87.4237 133.544 79.2617 133.59C71.0997 133.637 64.4852 132.787 64.4785 131.691C64.4719 130.595 71.0798 129.665 79.2418 129.619C87.4037 129.572 94.0183 130.436 94.025 131.518Z" fill="#67A2CE"/>
<path d="M93.6397 131.525C93.6397 132.601 87.1314 133.517 79.0824 133.564C71.0333 133.61 64.5117 132.767 64.4719 131.691C64.432 130.615 70.9802 129.699 79.0292 129.652C87.0783 129.606 93.6331 130.436 93.6397 131.525Z" fill="#66A1CE"/>
<path d="M93.2882 131.525C93.2882 132.588 86.8662 133.517 78.93 133.517C70.9939 133.517 64.5652 132.734 64.5586 131.671C64.552 130.609 70.9739 129.679 78.9101 129.679C86.8463 129.679 93.2882 130.436 93.2882 131.525Z" fill="#65A1CD"/>
<path d="M92.8764 131.525C92.8764 132.574 86.5474 133.464 78.7242 133.517C70.9009 133.57 64.5652 132.747 64.5586 131.691C64.552 130.635 70.8876 129.758 78.7042 129.699C86.5208 129.639 92.8698 130.476 92.8764 131.525Z" fill="#63A0CD"/>
<path d="M92.4914 131.532C92.4914 132.568 86.2554 133.438 78.545 133.484C70.8347 133.531 64.5986 132.72 64.5986 131.684C64.5986 130.648 70.8347 129.778 78.545 129.738C86.2554 129.699 92.4848 130.496 92.4914 131.532Z" fill="#629FCC"/>
<path d="M92.1057 131.532C92.1057 132.554 85.9626 133.411 78.3651 133.458C70.7677 133.504 64.6113 132.707 64.6113 131.684C64.6113 130.662 70.7544 129.805 78.3452 129.765C85.936 129.725 92.099 130.516 92.1057 131.532Z" fill="#619ECC"/>
<path d="M78.1805 133.44C85.6591 133.398 91.7171 132.55 91.7115 131.545C91.7059 130.54 85.6387 129.759 78.1602 129.801C70.6817 129.843 64.6237 130.691 64.6293 131.696C64.6349 132.701 70.702 133.482 78.1805 133.44Z" fill="#5F9DCC"/>
<path d="M91.3357 131.538C91.3357 132.528 85.3587 133.358 78.0069 133.404C70.6552 133.451 64.6648 132.674 64.6582 131.684C64.6516 130.695 70.6352 129.865 77.987 129.818C85.3387 129.772 91.329 130.549 91.3357 131.538Z" fill="#5E9CCB"/>
<path d="M90.9503 131.538C90.9503 132.515 85.0795 133.331 77.8274 133.378C70.5753 133.424 64.6912 132.661 64.6846 131.684C64.6779 130.708 70.5554 129.891 77.8075 129.851C85.0596 129.812 90.9437 130.562 90.9503 131.538Z" fill="#5D9CCB"/>
<path d="M90.5655 131.538C90.5655 132.501 84.7877 133.311 77.6485 133.351C70.5092 133.391 64.7314 132.647 64.7314 131.684C64.7314 130.721 70.5092 129.918 77.6485 129.878C84.7877 129.838 90.5655 130.582 90.5655 131.538Z" fill="#5B9BCA"/>
<path d="M90.1869 131.545C90.1869 132.488 84.4955 133.285 77.4691 133.325C70.4428 133.365 64.7314 132.627 64.7314 131.684C64.7314 130.741 70.4163 129.944 77.4426 129.904C84.4689 129.865 90.1803 130.602 90.1869 131.545Z" fill="#5A9ACA"/>
<path d="M89.8018 131.545C89.8018 132.475 84.2033 133.258 77.2898 133.298C70.3764 133.338 64.7713 132.634 64.7647 131.684C64.758 130.735 70.3565 129.971 77.2699 129.938C84.1834 129.905 89.7951 130.615 89.8018 131.545Z" fill="#5899C9"/>
<path d="M89.4164 131.545C89.4164 132.461 83.9109 133.232 77.1103 133.272C70.3098 133.311 64.7977 132.608 64.791 131.684C64.7844 130.761 70.2965 130.004 77.0904 129.964C83.8843 129.925 89.4097 130.635 89.4164 131.545Z" fill="#5798C9"/>
<path d="M76.9236 133.255C83.6099 133.217 89.0262 132.459 89.0211 131.56C89.0161 130.661 83.5917 129.963 76.9054 130.001C70.2191 130.038 64.8029 130.797 64.8079 131.695C64.8129 132.594 70.2373 133.292 76.9236 133.255Z" fill="#5697C9"/>
<path d="M88.6397 131.552C88.6397 132.435 83.3268 133.179 76.7455 133.218C70.1641 133.258 64.8445 132.554 64.8379 131.684C64.8313 130.814 70.1508 130.057 76.7322 130.017C83.3136 129.978 88.6397 130.668 88.6397 131.552Z" fill="#5497C8"/>
<path d="M88.2612 131.552C88.2612 132.422 83.0346 133.152 76.5728 133.192C70.111 133.232 64.8711 132.528 64.8711 131.684C64.8711 130.841 70.0977 130.084 76.5595 130.051C83.0213 130.017 88.2545 130.688 88.2612 131.552Z" fill="#5396C8"/>
<path d="M87.8758 131.552C87.8758 132.408 82.7422 133.125 76.3933 133.165C70.0443 133.205 64.8975 132.534 64.8975 131.684C64.8975 130.834 70.0311 130.11 76.38 130.077C82.7289 130.044 87.8758 130.701 87.8758 131.552Z" fill="#5295C7"/>
<path d="M87.49 131.558C87.49 132.395 82.4494 133.099 76.2001 133.139C69.9508 133.179 64.9102 132.521 64.9102 131.684C64.9102 130.848 69.9508 130.144 76.2001 130.104C82.4494 130.064 87.49 130.721 87.49 131.558Z" fill="#5094C7"/>
<path d="M87.1049 131.558C87.1049 132.382 82.1572 133.072 76.0341 133.112C69.9109 133.152 64.95 132.508 64.9434 131.684C64.9367 130.861 69.8977 130.17 76.0208 130.137C82.1439 130.104 87.1049 130.735 87.1049 131.558Z" fill="#4F93C6"/>
<path d="M86.7271 131.558C86.7271 132.368 81.8658 133.046 75.8555 133.079C69.8453 133.112 64.9774 132.488 64.9707 131.684C64.9641 130.881 69.832 130.197 75.8423 130.164C81.8525 130.13 86.7204 130.755 86.7271 131.558Z" fill="#4E92C6"/>
<path d="M86.3417 131.565C86.3417 132.355 81.5734 133.019 75.676 133.052C69.7787 133.086 65.0037 132.475 64.9971 131.684C64.9904 130.894 69.7654 130.223 75.6628 130.19C81.5601 130.157 86.3351 130.775 86.3417 131.565Z" fill="#4C92C5"/>
<path d="M85.9827 131.565C85.9827 132.342 81.3339 132.999 75.5229 133.026C69.7119 133.052 65.0565 132.461 65.0498 131.698C65.0432 130.934 69.7318 130.263 75.5096 130.23C81.2874 130.197 85.9827 130.788 85.9827 131.565Z" fill="#4B91C5"/>
<path d="M85.5709 131.565C85.5709 132.329 80.9819 132.973 75.317 132.999C69.6521 133.026 65.0565 132.441 65.0498 131.671C65.0432 130.901 69.6388 130.263 75.3037 130.237C80.9686 130.21 85.5643 130.808 85.5709 131.565Z" fill="#4990C5"/>
<path d="M85.1865 131.571C85.1865 132.315 80.6905 132.946 75.1385 132.973C69.5865 132.999 65.0838 132.428 65.0772 131.684C65.0705 130.941 69.5732 130.31 75.1252 130.276C80.6772 130.243 85.1799 130.821 85.1865 131.571Z" fill="#488FC4"/>
<path d="M74.9503 132.954C80.3896 132.923 84.7957 132.307 84.7916 131.577C84.7875 130.847 80.3748 130.28 74.9356 130.31C69.4963 130.341 65.0902 130.957 65.0943 131.687C65.0984 132.417 69.5111 132.984 74.9503 132.954Z" fill="#478EC4"/>
<path d="M84.4158 131.571C84.4158 132.289 80.1057 132.9 74.7795 132.9C69.4533 132.9 65.1299 132.375 65.1299 131.664C65.1299 130.954 69.44 130.336 74.7662 130.336C80.0924 130.336 84.4158 130.861 84.4158 131.571Z" fill="#458DC3"/>
<path d="M84.0304 131.578C84.0304 132.242 79.8133 132.867 74.6 132.906C69.3867 132.946 65.1562 132.395 65.1562 131.698C65.1562 131 69.3734 130.403 74.5867 130.369C79.8 130.336 84.0304 130.874 84.0304 131.578Z" fill="#448CC3"/>
<path d="M83.6516 131.578C83.6516 132.242 79.5208 132.84 74.4204 132.867C69.3201 132.893 65.1826 132.368 65.1826 131.684C65.1826 131 69.3068 130.416 74.4072 130.389C79.5076 130.363 83.645 130.894 83.6516 131.578Z" fill="#428CC2"/>
<path d="M83.2663 131.578C83.2663 132.242 79.2284 132.813 74.2409 132.84C69.2534 132.867 65.209 132.349 65.209 131.684C65.209 131.02 69.2402 130.436 74.2277 130.436C79.2152 130.436 83.2596 130.907 83.2663 131.578Z" fill="#418BC2"/>
<path d="M82.8818 131.585C82.8818 132.249 78.937 132.787 74.0624 132.813C69.1878 132.84 65.2363 132.335 65.2363 131.684C65.2363 131.033 69.1745 130.476 74.0491 130.449C78.9237 130.422 82.8752 130.927 82.8818 131.585Z" fill="#3F8AC1"/>
<path d="M82.4965 131.585C82.4965 132.249 78.6446 132.76 73.863 132.787C69.0814 132.813 65.2295 132.322 65.2295 131.678C65.2295 131.034 69.088 130.502 73.863 130.476C78.638 130.449 82.4898 130.947 82.4965 131.585Z" fill="#3E89C1"/>
<path d="M82.1109 131.585C82.1109 132.209 78.352 132.734 73.7032 132.76C69.0544 132.787 65.2889 132.302 65.2822 131.678C65.2756 131.053 69.0478 130.529 73.6899 130.502C78.3321 130.476 82.1109 130.961 82.1109 131.585Z" fill="#3D88C0"/>
<path d="M81.7265 131.585C81.7265 132.196 78.0606 132.714 73.5247 132.734C68.9888 132.754 65.3162 132.289 65.3096 131.678C65.3029 131.067 68.9821 130.555 73.5114 130.535C78.0407 130.516 81.7265 130.98 81.7265 131.585Z" fill="#3B87C0"/>
<path d="M73.3348 132.724C77.7544 132.699 81.3345 132.197 81.3312 131.603C81.3279 131.009 77.7424 130.547 73.3228 130.572C68.9031 130.597 65.323 131.098 65.3263 131.692C65.3296 132.287 68.9152 132.748 73.3348 132.724Z" fill="#3A86C0"/>
<path d="M80.9557 131.591C80.9557 132.169 77.4757 132.661 73.1656 132.681C68.8555 132.7 65.3955 132.255 65.3955 131.678C65.3955 131.1 68.8821 130.615 73.1856 130.589C77.489 130.562 80.9557 131.014 80.9557 131.591Z" fill="#3885BF"/>
<path d="M72.9761 132.659C77.1683 132.636 80.5642 132.162 80.5611 131.601C80.558 131.039 77.157 130.604 72.9647 130.627C68.7725 130.65 65.3766 131.124 65.3797 131.685C65.3828 132.247 68.7838 132.683 72.9761 132.659Z" fill="#3784BF"/>
<path d="M72.7963 132.634C76.8748 132.611 80.1786 132.149 80.1756 131.603C80.1725 131.056 76.8638 130.632 72.7852 130.655C68.7067 130.677 65.4029 131.139 65.4059 131.685C65.409 132.232 68.7177 132.656 72.7963 132.634Z" fill="#3584BE"/>
<path d="M79.8072 131.598C79.8072 132.129 76.5929 132.581 72.6281 132.601C68.6633 132.621 65.4424 132.209 65.4424 131.678C65.4424 131.146 68.6501 130.695 72.6215 130.675C76.5929 130.655 79.8005 131.1 79.8072 131.598Z" fill="#3483BE"/>
<path d="M79.4218 131.598C79.4218 132.116 76.3004 132.554 72.4486 132.574C68.5967 132.594 65.4688 132.196 65.4688 131.678C65.4688 131.16 68.5834 130.721 72.4419 130.701C76.3005 130.682 79.4151 131.1 79.4218 131.598Z" fill="#3282BD"/>
<path d="M79.0364 131.605C79.0364 132.103 76.0081 132.528 72.2691 132.548C68.5301 132.568 65.4951 132.182 65.4951 131.678C65.4951 131.173 68.5168 130.755 72.2624 130.728C76.008 130.701 79.0364 131.1 79.0364 131.605Z" fill="#3181BD"/>
<path d="M78.6774 131.605C78.6774 132.089 75.742 132.501 72.1159 132.521C68.4899 132.541 65.5479 132.163 65.5479 131.678C65.5479 131.193 68.4832 130.781 72.1093 130.761C75.7354 130.741 78.6774 131.1 78.6774 131.605Z" fill="#2F80BC"/>
<path d="M78.2656 131.605C78.2656 132.076 75.4232 132.475 71.9101 132.495C68.3969 132.515 65.5479 132.149 65.5479 131.678C65.5479 131.206 68.3903 130.808 71.9034 130.788C75.4166 130.768 78.2656 131.133 78.2656 131.605Z" fill="#2E7FBC"/>
<path d="M77.8812 131.611C77.8812 132.063 75.1318 132.448 71.7315 132.468C68.3313 132.488 65.5752 132.136 65.5752 131.678C65.5752 131.219 68.3246 130.834 71.7249 130.814C75.1252 130.794 77.8812 131.153 77.8812 131.611Z" fill="#2C7EBB"/>
<path d="M77.5019 131.611C77.5019 132.05 74.8455 132.422 71.5249 132.441C68.2043 132.461 65.5479 132.116 65.5479 131.678C65.5479 131.239 68.2043 130.861 71.5249 130.848C74.8455 130.834 77.4953 131.166 77.5019 131.611Z" fill="#2B7DBB"/>
<path d="M71.3674 132.422C74.54 132.405 77.1099 132.045 77.1075 131.62C77.1052 131.194 74.5314 130.864 71.3588 130.882C68.1862 130.899 65.6162 131.259 65.6186 131.684C65.6209 132.11 68.1948 132.44 71.3674 132.422Z" fill="#2A7CBA"/>
<path d="M76.7315 131.618C76.7315 132.023 74.2544 132.375 71.1928 132.388C68.1313 132.402 65.6541 132.089 65.6475 131.678C65.6408 131.266 68.1246 130.921 71.1862 130.901C74.2477 130.881 76.7249 131.206 76.7315 131.618Z" fill="#287BBA"/>
<path d="M76.3465 131.618C76.3465 132.01 73.9624 132.349 71.0336 132.362C68.1049 132.375 65.7207 132.07 65.7207 131.698C65.7207 131.326 68.1049 130.967 71.0336 130.947C73.9624 130.927 76.3465 131.22 76.3465 131.618Z" fill="#277BB9"/>
<path d="M75.9617 131.618C75.9617 131.997 73.6705 132.322 70.8348 132.335C67.999 132.348 65.7012 132.056 65.7012 131.671C65.7012 131.286 67.9924 130.967 70.8281 130.954C73.6639 130.941 75.9617 131.239 75.9617 131.618Z" fill="#257AB9"/>
<path d="M75.5764 131.618C75.5764 131.983 73.3781 132.282 70.6553 132.282C67.9324 132.282 65.7275 132.016 65.7275 131.651C65.7275 131.286 67.9258 130.987 70.6486 130.987C73.3715 130.987 75.5764 131.253 75.5764 131.618Z" fill="#2479B8"/>
<path d="M75.191 131.625C75.191 131.97 73.0857 132.289 70.4758 132.289C67.8658 132.289 65.7539 132.03 65.7539 131.684C65.7539 131.339 67.8658 131.02 70.4691 131.02C73.0724 131.02 75.191 131.273 75.191 131.625Z" fill="#2278B8"/>
<path d="M74.8056 131.625C74.8056 131.957 72.8132 132.242 70.2963 132.256C67.7793 132.269 65.7803 132.01 65.7803 131.678C65.7803 131.346 67.7726 131.06 70.2896 131.047C72.8066 131.034 74.8056 131.293 74.8056 131.625Z" fill="#2177B7"/>
<path d="M74.4268 131.625C74.4268 131.943 72.4943 132.216 70.1167 132.229C67.7392 132.242 65.8066 131.997 65.8066 131.678C65.8066 131.359 67.7326 131.087 70.1101 131.073C72.4876 131.06 74.4202 131.306 74.4268 131.625Z" fill="#1F76B7"/>
<path d="M74.0288 131.631C74.0288 131.937 72.1892 132.189 69.9245 132.202C67.6599 132.216 65.8203 131.977 65.8203 131.678C65.8203 131.379 67.6533 131.113 69.9179 131.1C72.1825 131.087 74.0288 131.326 74.0288 131.631Z" fill="#1E75B6"/>
<path d="M73.6571 131.631C73.6571 131.923 71.9104 132.163 69.7587 132.176C67.607 132.189 65.8604 131.963 65.8604 131.678C65.8604 131.392 67.6003 131.14 69.7521 131.127C71.9038 131.113 73.6571 131.339 73.6571 131.631Z" fill="#1C74B6"/>
<path d="M73.2717 131.631C73.2717 131.91 71.618 132.136 69.5792 132.149C67.5404 132.163 65.8867 131.95 65.8867 131.678C65.8867 131.405 67.5337 131.173 69.5725 131.16C71.6114 131.146 73.2717 131.359 73.2717 131.631Z" fill="#1A73B6"/>
<path d="M72.8871 131.638C72.8871 131.897 71.3264 132.109 69.4005 132.123C67.4746 132.136 65.9139 131.93 65.9072 131.678C65.9006 131.425 67.4679 131.2 69.3938 131.186C71.3198 131.173 72.8871 131.379 72.8871 131.638Z" fill="#1972B5"/>
<path d="M72.5007 131.638C72.5007 131.884 71.033 132.089 69.22 132.096C67.407 132.103 65.9393 131.917 65.9326 131.678C65.926 131.439 67.4003 131.226 69.2134 131.213C71.0264 131.2 72.5007 131.392 72.5007 131.638Z" fill="#1771B5"/>
<path d="M72.1163 131.638C72.1163 131.87 70.7416 132.063 69.0415 132.07C67.3413 132.076 65.96 131.904 65.96 131.671C65.96 131.439 67.3347 131.253 69.0348 131.246C70.7349 131.239 72.1163 131.412 72.1163 131.638Z" fill="#1670B4"/>
<path d="M71.7309 131.645C71.7309 131.857 70.4492 132.036 68.8619 132.043C67.2747 132.05 65.9863 131.89 65.9863 131.671C65.9863 131.452 67.2747 131.279 68.8553 131.273C70.4359 131.266 71.7309 131.425 71.7309 131.645Z" fill="#146FB4"/>
<path d="M71.3725 131.645C71.3725 131.844 70.1837 132.01 68.716 132.016C67.2483 132.023 66.0596 131.87 66.0596 131.671C66.0596 131.472 67.255 131.306 68.716 131.299C70.1771 131.293 71.3725 131.445 71.3725 131.645Z" fill="#136EB3"/>
<path d="M70.9678 131.645C70.9678 131.83 69.8653 131.983 68.5039 131.99C67.1425 131.997 66.04 131.857 66.04 131.671C66.04 131.485 67.1425 131.339 68.5039 131.326C69.8653 131.312 70.9611 131.465 70.9678 131.645Z" fill="#116EB3"/>
<path d="M70.5824 131.645C70.5824 131.817 69.5729 131.957 68.3244 131.963C67.0759 131.97 66.0664 131.844 66.0664 131.671C66.0664 131.498 67.0759 131.366 68.3244 131.359C69.5729 131.352 70.5824 131.479 70.5824 131.645Z" fill="#106DB2"/>
<path d="M70.197 131.651C70.197 131.804 69.2805 131.93 68.1449 131.937C67.0092 131.943 66.0928 131.824 66.0928 131.671C66.0928 131.518 67.0092 131.392 68.1449 131.386C69.2805 131.379 70.197 131.498 70.197 131.651Z" fill="#0E6CB2"/>
<path d="M69.8116 131.651C69.8116 131.791 68.9881 131.903 67.9654 131.91C66.9426 131.917 66.1191 131.81 66.1191 131.671C66.1191 131.532 66.9426 131.419 67.9654 131.412C68.9881 131.405 69.8116 131.512 69.8116 131.651Z" fill="#0D6BB1"/>
<path d="M69.4262 131.651C69.4262 131.777 68.6957 131.877 67.7859 131.884C66.876 131.89 66.1455 131.797 66.1455 131.671C66.1455 131.545 66.876 131.445 67.7859 131.445C68.6957 131.445 69.4262 131.532 69.4262 131.651Z" fill="#0B6AB1"/>
<path d="M69.0418 131.658C69.0418 131.764 68.3777 131.85 67.6073 131.857C66.837 131.864 66.1729 131.777 66.1729 131.671C66.1729 131.565 66.837 131.478 67.6073 131.472C68.3777 131.465 69.0418 131.552 69.0418 131.658Z" fill="#0969B0"/>
<path d="M68.6564 131.658C68.6564 131.751 68.1052 131.824 67.4278 131.831C66.7504 131.837 66.1992 131.764 66.1992 131.671C66.1992 131.578 66.7438 131.505 67.4278 131.498C68.1119 131.492 68.6564 131.565 68.6564 131.658Z" fill="#0868B0"/>
<path d="M68.2709 131.658C68.2709 131.738 67.8126 131.797 67.2481 131.804C66.6836 131.811 66.2254 131.751 66.2188 131.671C66.5446 131.538 66.8982 131.488 67.2481 131.525C67.8126 131.525 68.2709 131.585 68.2709 131.658Z" fill="#0667AF"/>
<path d="M67.8921 131.664C67.8921 131.724 67.5202 131.777 67.0686 131.777C66.617 131.777 66.2451 131.731 66.2451 131.671C66.2451 131.611 66.617 131.558 67.0686 131.558C67.5202 131.558 67.8921 131.605 67.8921 131.664Z" fill="#0566AF"/>
<path d="M67.5077 131.664C67.5077 131.711 67.2288 131.751 66.8901 131.751C66.5514 131.751 66.2725 131.718 66.2725 131.671C66.2725 131.625 66.5514 131.585 66.8901 131.585C67.2288 131.585 67.5077 131.618 67.5077 131.664Z" fill="#0365AE"/>
<path d="M67.1223 131.664C67.1223 131.664 66.9364 131.724 66.7106 131.724C66.4848 131.724 66.2988 131.724 66.2988 131.671C66.2988 131.618 66.4848 131.618 66.7106 131.611C66.8501 131.596 66.9912 131.615 67.1223 131.664Z" fill="#0264AE"/>
<path d="M66.7237 131.671C66.928 131.697 67.1147 131.8 67.2457 131.959C67.3768 132.118 67.4425 132.321 67.4293 132.526C67.4162 132.732 67.3253 132.925 67.1751 133.066C67.025 133.206 66.8267 133.285 66.6208 133.285C66.4148 133.285 66.2166 133.206 66.0664 133.066C65.9162 132.925 65.8253 132.732 65.8122 132.526C65.7991 132.321 65.8647 132.118 65.9958 131.959C66.1269 131.8 66.3135 131.697 66.5178 131.671C66.644 131.644 66.7237 131.651 66.7237 131.671Z" fill="#0063AD"/>
</g>
<g opacity="0.5">
<path d="M46.442 65.2462L39.688 61.4475L36.3408 62.3906L43.0949 66.1826L46.442 65.2462Z" fill="#7BDAFF"/>
<path d="M44.8281 44.1606L45.8044 47.6539L52.5651 51.446L51.5822 47.9594L44.8281 44.1606Z" fill="#7BDAFF"/>
<path d="M9.29167 47.2023L16.0457 50.9944L15.1093 47.6472L8.34863 43.8552L9.29167 47.2023Z" fill="#7BDAFF"/>
<path d="M47.02 51.964L48.9525 58.8509L44.0049 60.2389L50.7589 64.0309L55.7066 62.6429L53.774 55.7627L47.02 51.964Z" fill="#7BDAFF"/>
<path d="M13.894 43.3371L12.506 38.3895L34.9929 32.0671L28.2389 28.275L5.75195 34.5974L7.13995 39.5384L13.894 43.3371Z" fill="#7BDAFF"/>
<path d="M29.7858 64.2301L20.4949 66.8401L17.8915 57.5491L11.1309 53.757L16.7028 73.5941L36.5399 68.0222L29.7858 64.2301Z" fill="#7BDAFF"/>
<path d="M32.5557 27.0664L39.3097 30.8584L41.4216 32.0406L48.1756 35.8393L44.7488 23.6395L32.5557 27.0664Z" fill="#7BDAFF"/>
<path d="M42.6299 36.3573L43.6128 39.8505L50.3668 43.6426L49.3906 40.1494L42.6299 36.3573Z" fill="#7BDAFF"/>
</g>
<path d="M73.3649 65.6049H60.3018L65.0037 60.903H78.0735L73.3649 65.6049ZM62.7391 64.6021H72.9863L75.6893 61.9058H65.3955L62.7391 64.6021Z" fill="white"/>
<path d="M75.9352 39.2994H62.8654L58.0107 34.4447H71.0805L75.9352 39.2994ZM63.2772 38.2966H73.5244L70.6621 35.4409H60.4215L63.2772 38.2966Z" fill="white"/>
<path d="M27.7006 65.6049H14.6308L9.93555 60.903H23.0053L27.7006 65.6049ZM15.0492 64.6021H25.2899L22.5869 61.9058H12.3463L15.0492 64.6021Z" fill="white"/>
<path d="M81.8395 57.1375H68.7697L74.7467 51.1605L66.6445 43.0583H79.7143L87.8231 51.1605L81.8395 57.1375ZM71.2136 56.1347H81.4609L86.4285 51.1671L79.2893 44.101H69.0486L76.148 51.2003L71.2136 56.1347Z" fill="white"/>
<path d="M19.2333 57.1375H6.16355L0.186523 51.1605L25.549 25.8179H38.6188L13.2696 51.1671L19.2333 57.1375ZM6.58195 56.1347H16.8226L11.855 51.1671L36.2081 26.834H25.9608L1.64094 51.1671L6.58195 56.1347Z" fill="white"/>
<path d="M44.0049 94.9721L20.9004 71.8477H33.9702L44.0249 81.9023L54.0795 71.8477H67.1493L44.0049 94.9721ZM23.2912 72.8505L44.0049 93.5576L64.7319 72.8505H54.4714L44.0049 83.3169L33.5186 72.8505H23.2912Z" fill="white"/>
<path d="M58.6884 22.0523H29.3213L44.0049 7.36877L58.6884 22.0523ZM31.732 21.0495H56.3042L44.0314 8.77669L31.732 21.0495Z" fill="white"/>
<path d="M67.3092 30.6725H54.2394L49.3848 25.8179H62.4545L67.3092 30.6725ZM54.691 29.6764H64.9317L62.076 26.834H51.7955L54.691 29.6764Z" fill="white"/>
<path d="M44.6893 57.2305L44.7623 57.0512C44.7623 57.0113 44.7623 56.9648 44.8154 56.925L44.8752 56.7921C45.4528 55.2761 46.503 53.9861 47.8704 53.113L48.2356 52.9004L92.552 27.3055L136.862 1.71716L137.227 1.50465C137.767 1.15529 138.391 0.955819 139.034 0.926647C139.677 0.897474 140.316 1.03965 140.886 1.33862L140.979 1.3851L141.066 1.43159L146.916 4.80529L143.543 6.24642L155.244 68.288C155.505 69.9689 155.275 71.6894 154.58 73.2423L154.527 73.3751C154.527 73.4149 154.494 73.4548 154.474 73.5013C153.892 75.0184 152.84 76.3098 151.472 77.1871L63.1184 128.218L63.9353 132.116L58.3899 128.902L58.3036 128.855C57.711 128.503 57.2055 128.021 56.8249 127.446C56.4443 126.871 56.1984 126.218 56.1054 125.535L44.1447 62.032C43.8739 60.4121 44.0625 58.7486 44.6893 57.2305Z" fill="white"/>
<path d="M67.8934 132.109L157.243 80.5011C159.946 78.9404 161.587 74.7565 160.909 71.1503L149.075 8.531C148.411 4.92486 145.655 3.27122 142.952 4.83188L53.6016 56.4336C50.8987 57.9942 49.2583 62.1848 49.9424 65.7843L61.7702 128.443C62.4476 132.01 65.1904 133.67 67.8934 132.109Z" fill="url(#paint0_linear_1_5455)"/>
<path d="M53.9862 56.2276L98.2959 30.6327L112.182 104.25L68.258 131.897C65.3558 133.577 62.4868 132.216 61.8559 128.862L49.9019 65.3327C49.2444 61.9789 51.084 57.9012 53.9862 56.2276Z" fill="url(#paint1_linear_1_5455)"/>
<path d="M142.606 5.03772L98.2959 30.6327L112.096 103.785L156.877 80.7135C158.364 79.7486 159.542 78.3767 160.271 76.7613C160.999 75.1458 161.249 73.3549 160.988 71.6019L149.034 8.07937C148.41 4.72559 145.508 3.36416 142.606 5.03772Z" fill="url(#paint2_linear_1_5455)"/>
<path d="M160.43 76.3835C159.751 78.1766 158.503 79.6976 156.877 80.7135L68.2579 131.897C67.6252 132.323 66.8884 132.568 66.1267 132.607C65.365 132.645 64.6071 132.476 63.9346 132.116L103.635 58.9572L160.43 76.3835Z" fill="url(#paint3_linear_1_5455)"/>
<path d="M50.4404 60.5577C51.1146 58.7639 52.361 57.2421 53.9868 56.2277L142.606 5.03776C143.24 4.61426 143.977 4.37081 144.739 4.33339C145.5 4.29596 146.257 4.46596 146.93 4.82525L107.235 77.9708L50.4404 60.5577Z" fill="url(#paint4_linear_1_5455)"/>
<defs>
<linearGradient id="paint0_linear_1_5455" x1="152.626" y1="42.1724" x2="46.5572" y2="62.5702" gradientUnits="userSpaceOnUse">
<stop stop-color="#7BDAFF"/>
<stop offset="1" stop-color="#59BDEF"/>
</linearGradient>
<linearGradient id="paint1_linear_1_5455" x1="44.0136" y1="182.722" x2="97.4975" y2="81.3817" gradientUnits="userSpaceOnUse">
<stop offset="0.77" stop-color="#59BDEF"/>
<stop offset="0.85" stop-color="#55B8EB"/>
<stop offset="0.93" stop-color="#49ABE1"/>
<stop offset="1" stop-color="#3A9BD5"/>
</linearGradient>
<linearGradient id="paint2_linear_1_5455" x1="194.319" y1="93.2511" x2="119.077" y2="61.4461" gradientUnits="userSpaceOnUse">
<stop offset="0.77" stop-color="#59BDEF"/>
<stop offset="0.85" stop-color="#55B8EB"/>
<stop offset="0.93" stop-color="#49ABE1"/>
<stop offset="1" stop-color="#3A9BD5"/>
</linearGradient>
<linearGradient id="paint3_linear_1_5455" x1="124.807" y1="183.508" x2="71.297" y2="90.7576" gradientUnits="userSpaceOnUse">
<stop offset="0.77" stop-color="#3A9BD5"/>
<stop offset="0.84" stop-color="#3896D2"/>
<stop offset="0.92" stop-color="#3189C9"/>
<stop offset="1" stop-color="#2573BA"/>
</linearGradient>
<linearGradient id="paint4_linear_1_5455" x1="125.873" y1="-2.02071" x2="26.7212" y2="73.8606" gradientUnits="userSpaceOnUse">
<stop stop-color="#7BDAFF"/>
<stop offset="1" stop-color="#59BDEF"/>
</linearGradient>
</defs>
</svg>
