<svg width="100" height="99" viewBox="0 0 100 99" fill="none" xmlns="http://www.w3.org/2000/svg">
<path d="M0.970703 14.764C0.970703 11.0487 2.4466 7.48552 5.07373 4.85839C7.70085 2.23127 11.264 0.755371 14.9793 0.755371H85.0223C88.7376 0.755371 92.3007 2.23127 94.9278 4.85839C97.555 7.48552 99.0309 11.0487 99.0309 14.764V84.8069C99.0309 88.5223 97.555 92.0854 94.9278 94.7125C92.3007 97.3396 88.7376 98.8155 85.0223 98.8155H14.9793C11.264 98.8155 7.70085 97.3396 5.07373 94.7125C2.4466 92.0854 0.970703 88.5223 0.970703 84.8069V14.764Z" fill="#FF9F2E"/>
<path d="M49.1496 18.2661C49.3668 17.3766 50.6345 17.3766 50.8517 18.2661L55.0788 35.6788C55.1115 35.8125 55.1753 35.9367 55.265 36.0411C55.3547 36.1455 55.4678 36.2274 55.5951 36.2799C55.7223 36.3324 55.8602 36.3542 55.9975 36.3435C56.1347 36.3328 56.2675 36.2898 56.3851 36.2181L71.6859 26.8989C72.4704 26.4191 73.367 27.3192 72.8872 28.1001L63.568 43.401C63.4963 43.5186 63.4533 43.6514 63.4426 43.7886C63.4319 43.9259 63.4536 44.0638 63.5062 44.191C63.5587 44.3183 63.6405 44.4314 63.745 44.5211C63.8494 44.6108 63.9736 44.6746 64.1073 44.7073L81.52 48.9344C82.413 49.1516 82.413 50.4193 81.52 50.6365L64.1143 54.8636C63.9803 54.8959 63.8558 54.9594 63.7509 55.0489C63.646 55.1384 63.5638 55.2514 63.5109 55.3788C63.458 55.5061 63.4359 55.6441 63.4464 55.7816C63.457 55.919 63.4998 56.0521 63.5715 56.1699L72.8907 71.4708C73.3705 72.2552 72.4704 73.1518 71.6895 72.672L56.3886 63.3528C56.271 63.2811 56.1382 63.2381 56.001 63.2274C55.8637 63.2167 55.7258 63.2385 55.5986 63.291C55.4713 63.3435 55.3582 63.4254 55.2685 63.5298C55.1788 63.6342 55.115 63.7584 55.0823 63.8921L50.8517 81.3048C50.6345 82.1978 49.3668 82.1978 49.1496 81.3048L44.9225 63.8991C44.8902 63.7651 44.8267 63.6406 44.7372 63.5357C44.6477 63.4308 44.5347 63.3486 44.4073 63.2957C44.28 63.2428 44.142 63.2207 44.0045 63.2312C43.8671 63.2418 43.734 63.2846 43.6162 63.3563L28.3153 72.6755C27.5309 73.1553 26.6343 72.2552 27.1141 71.4743L36.4333 56.1734C36.505 56.0558 36.548 55.923 36.5587 55.7858C36.5694 55.6485 36.5476 55.5106 36.4951 55.3834C36.4426 55.2561 36.3607 55.143 36.2563 55.0533C36.1519 54.9636 36.0277 54.8998 35.894 54.8671L18.4813 50.6365C17.5883 50.4193 17.5883 49.1516 18.4813 48.9344L35.887 44.7073C36.021 44.675 36.1455 44.6115 36.2504 44.522C36.3552 44.4325 36.4375 44.3195 36.4904 44.1921C36.5433 44.0648 36.5654 43.9268 36.5549 43.7893C36.5443 43.6519 36.5015 43.5188 36.4298 43.401L27.1141 28.1001C26.6343 27.3157 27.5344 26.4191 28.3153 26.8989L43.6162 36.2181C43.7338 36.2898 43.8666 36.3328 44.0038 36.3435C44.1411 36.3542 44.279 36.3324 44.4062 36.2799C44.5335 36.2274 44.6466 36.1455 44.7363 36.0411C44.826 35.9367 44.8898 35.8125 44.9225 35.6788L49.1496 18.2661Z" fill="white"/>
</svg>
