<svg width="17" height="19" viewBox="0 0 17 19" fill="none" xmlns="http://www.w3.org/2000/svg">
<path d="M1.62553 7.35558C1.35972 8.04078 0.795604 8.36419 0.668605 8.91501C0.522408 9.55296 1.12639 10.2042 1.7289 10.1835C2.33141 10.1629 3.66047 9.43925 4.11973 9.18525C4.64692 8.89434 5.88 8.31841 5.88 8.31841L9.31783 7.43828L11.6865 9.74641L11.4783 11.6588C11.4783 11.6588 11.3542 12.1579 11.084 12.6364C10.8138 13.1148 10.0237 13.8429 9.54525 13.7173C9.06679 13.5933 8.83199 12.7589 8.11134 12.4075C7.25927 11.991 5.97008 11.9497 5.92873 12.3041C5.88738 12.6585 6.55191 12.7826 6.71878 12.9686C6.88565 13.1562 7.11307 13.9256 7.36264 14.1751C7.61221 14.4247 8.15269 14.7776 8.15269 14.7776C8.15269 14.7776 7.61221 15.4643 7.57086 16.0048C7.52951 16.5453 7.63288 17.0858 7.55018 17.2733C7.46749 17.4609 6.96835 18.0014 7.21792 18.1874C7.46749 18.3735 8.8187 17.418 9.19231 16.69C9.56592 15.962 9.7328 15.4628 9.89967 15.3181C10.0665 15.1734 12.3112 14.7983 13.8706 12.8033C15.43 10.8082 15.4507 8.37453 15.4094 7.33491C15.368 6.29528 14.925 5.34575 15.2986 4.76391C15.6722 4.18208 16.0768 4.06246 16.2895 3.99453C16.573 3.90445 16.9201 3.82766 16.8433 3.51017C16.7857 3.2665 16.5243 2.60936 15.0549 2.26232C14.0183 2.01866 12.955 2.30367 12.955 2.30367C12.955 2.30367 9.53934 0.0147361 5.80321 1.05731C2.22804 2.05558 1.10424 4.42574 1.14707 5.75628C1.17069 6.52418 1.77025 6.98197 1.62553 7.35558Z" fill="#36B4E1"/>
<path d="M8.46402 7.39697L7.05078 8.18703C7.05078 8.18703 7.12166 9.10851 7.54992 9.76713C7.83345 10.2042 8.25727 10.5779 8.67223 10.7241C9.16399 10.8968 9.68823 10.8954 9.71186 10.7654C9.7532 10.5365 9.38697 10.2515 9.21272 9.76713C9.06062 9.34478 9.04585 7.81341 9.04585 7.81341L8.46402 7.39697Z" fill="#006DA6"/>
<path d="M5.6582 8.41593C5.6582 8.41593 7.5499 6.35737 9.71184 6.64828C11.8738 6.9392 12.401 8.51192 12.2695 10.2441C12.1898 11.3015 11.1044 12.8299 11.0852 12.635C11.0719 12.4961 11.4455 10.2308 10.7382 9.46146C9.92301 8.57394 8.94394 8.31109 8.00769 8.26974C7.07144 8.22839 5.6582 8.41593 5.6582 8.41593Z" fill="#DDECF5"/>
<path d="M5.35727 4.71514C5.55663 5.02378 5.48132 5.39739 5.20074 5.57756C4.92016 5.75772 4.46385 5.6573 4.26449 5.34866C4.06513 5.04002 4.13602 4.57633 4.4417 4.4449C4.88915 4.25145 5.15792 4.40651 5.35727 4.71514Z" fill="#2D2B30"/>
<path d="M0.689026 9.40389C0.689026 9.40389 1.19555 9.41866 1.44807 9.33153C2.08159 9.11002 2.84063 8.40709 3.18471 8.08369C3.46972 7.8164 3.87139 7.34532 4.12096 7.09576C4.37052 6.84619 4.60975 6.57594 4.72346 6.61729C4.83717 6.65864 4.95236 6.94956 4.92134 7.07508C4.89033 7.19913 4.04859 7.94783 3.64249 8.32292C3.23639 8.69653 2.56152 9.31086 2.08306 9.55009C1.87484 9.65493 1.50123 9.81738 1.07445 9.77898C0.814548 9.75535 0.678689 9.49692 0.689026 9.40389ZM8.2883 4.52919C8.38872 4.68425 8.74609 4.48932 8.95283 4.37266C9.21273 4.22646 10.2317 3.61362 11.2196 3.53092C12.2075 3.44822 12.9444 3.79083 13.1113 3.86318C13.2782 3.93554 13.6621 4.10242 13.6621 4.19545C13.6621 4.28848 12.7244 4.72707 12.3316 4.9855C11.9373 5.24541 11.292 5.557 10.8667 5.65003C10.5196 5.72682 9.84773 5.62936 9.83739 5.82724C9.82705 6.02512 9.77537 6.13883 10.5964 6.13883C11.4175 6.13883 12.8307 5.28676 13.1438 5.07854C13.4569 4.87032 14.5674 4.3195 14.4847 4.12161C14.3665 3.84103 13.0404 3.0052 11.3038 3.04064C9.79604 3.07166 8.97498 3.73766 8.60137 4.01824C8.50981 4.08617 8.17311 4.35198 8.2883 4.52919Z" fill="#006DA6"/>
</svg>
