<svg width="17" height="14" viewBox="0 0 17 14" fill="none" xmlns="http://www.w3.org/2000/svg">
<path d="M12.2075 0.369873C7.85849 1.53141 6.75098 5.36718 6.75098 5.36718L11.181 6.2856C10.8028 4.50278 12.2075 0.369873 12.2075 0.369873Z" fill="#B2C1C0"/>
<path d="M7.80469 4.23262L11.3433 3.74639C11.3433 3.74639 11.3973 3.44925 11.4514 3.23315C9.07427 3.26017 7.80469 4.23262 7.80469 4.23262Z" fill="#879191"/>
<path d="M14.4499 1.01819C14.4499 1.01819 15.2602 1.82856 15.4763 2.61192C16.7459 3.47632 16.854 4.74591 16.854 5.58329C16.854 8.52765 12.2078 11.364 12.2078 11.364L0.646484 8.87882C0.646484 7.71728 5.83288 3.74645 11.1813 3.74645C13.0452 3.74645 15.5033 5.07006 16.0706 4.44877C16.3947 4.09761 15.7194 3.01711 15.3953 3.01711C15.3953 3.01711 15.4223 3.71943 15.0711 4.15163C15.2062 2.5579 14.4499 1.01819 14.4499 1.01819Z" fill="#B2C1C0"/>
<path d="M5.42773 13.3899C5.42773 13.3899 5.42773 8.79779 9.9118 6.96094C9.9118 6.96094 12.478 12.1473 5.42773 13.3899Z" fill="#FF717F"/>
<path d="M6.99491 8.82476C6.99491 8.82476 6.04947 11.553 6.02246 12.7416C6.02246 12.7416 10.4795 11.3639 9.39902 7.177L6.99491 8.82476Z" fill="#ED4C5C"/>
<path opacity="0.5" d="M8.10249 8.06836C8.10249 8.06836 7.15705 9.68911 6.99497 11.1748C6.8329 12.6605 9.29103 10.4184 9.50713 7.5011L8.10249 8.06836Z" fill="#3E4347"/>
<path d="M4.40137 11.499L5.29278 12.0663L5.1307 11.0128L5.94108 11.6071L5.779 10.5266L6.72444 11.2289L6.40029 9.90528L7.42676 10.7697L7.15664 9.33802L8.21012 10.2024L7.85896 8.79777L8.85842 9.50009L8.53427 8.20349L9.4527 9.0949L9.15556 7.63623C9.15556 7.63623 6.88651 9.06789 4.40137 11.499Z" fill="white"/>
<path d="M5.29278 12.0662L4.40137 11.499L4.72552 11.2018L5.29278 12.0662ZM5.10369 11.0128L5.91407 11.607L5.37382 10.5806L5.10369 11.0128ZM5.75199 10.5265L6.69743 11.2289L6.02211 10.0133L5.75199 10.5265ZM6.40029 9.90524L7.42676 10.7696L6.75145 9.52707L6.40029 9.90524ZM7.12963 9.33798L8.18311 10.2024L7.42676 8.85176L7.12963 9.33798ZM7.83195 8.79773L8.83141 9.50006L8.10208 8.36553L7.83195 8.79773ZM8.53427 8.20346L9.4527 9.09487L8.83141 7.85229L8.53427 8.20346Z" fill="#B2C1C0"/>
<path d="M9.66857 9.52708L9.07429 9.25696L9.42546 10.2834C9.56052 9.98629 9.64156 9.71617 9.66857 9.52708ZM9.37143 10.3915L8.50703 10.0403L8.88521 11.1208C9.10131 10.8507 9.23637 10.6076 9.37143 10.3915ZM8.77716 11.2289L7.91276 10.7426L8.15587 11.7961C8.37197 11.607 8.58807 11.418 8.77716 11.2289ZM8.04782 11.8772L7.15641 11.2559L7.37251 12.3094C7.64263 12.1743 7.85873 12.0392 8.04782 11.8772ZM7.29147 12.3904L6.37305 11.6881C6.37305 11.6881 6.50811 12.5525 6.53512 12.7686C6.83226 12.6605 7.07537 12.5255 7.29147 12.3904Z" fill="white"/>
<path d="M6.58899 12.7686L5.64355 12.0122C5.69758 12.4444 5.83264 13.0927 5.83264 13.0927C6.10277 12.9847 6.34588 12.8766 6.58899 12.7686Z" fill="white"/>
<path d="M9.56009 9.93233L9.04685 9.23L9.39801 10.2565C9.47905 10.1754 9.53307 10.0404 9.56009 9.93233ZM9.10087 10.7967L8.5066 10.0134L8.88477 11.0939C8.96581 11.0128 9.04685 10.9048 9.10087 10.7967ZM8.42556 11.5801L7.88531 10.7427L8.12842 11.7962C8.23647 11.7422 8.34452 11.6611 8.42556 11.5801ZM7.69623 12.1203L7.15598 11.2559L7.37208 12.3094C7.50714 12.2554 7.61519 12.2014 7.69623 12.1203ZM6.88585 12.6336L6.39963 11.7151L6.5617 12.8227C6.66975 12.7416 6.7778 12.6876 6.88585 12.6336ZM6.1295 12.9847L5.67029 12.0123L5.85938 13.0928C5.94041 13.0658 6.02145 13.0117 6.1295 12.9847ZM4.34668 11.6071C4.34668 11.6071 10.7216 7.36614 10.2354 6.66382L6.58871 8.12249L4.34668 11.6071Z" fill="#B2C1C0"/>
<path d="M6.77813 7.36608C7.27044 7.36608 7.66954 6.96698 7.66954 6.47466C7.66954 5.98235 7.27044 5.58325 6.77813 5.58325C6.28582 5.58325 5.88672 5.98235 5.88672 6.47466C5.88672 6.96698 6.28582 7.36608 6.77813 7.36608Z" fill="#3E4347"/>
<path d="M4.40137 7.14993C4.40137 7.14993 5.48187 7.36603 6.02211 6.47462C6.56236 5.58321 7.31871 5.52918 8.34519 5.47516C8.34519 5.47516 6.69743 5.06997 5.88705 5.69126C5.07668 6.31254 5.1307 6.96084 4.40137 7.14993Z" fill="#76807F"/>
<path opacity="0.5" d="M11.9912 6.20447C11.9912 6.20447 12.3694 5.96136 12.4234 5.69123C12.5044 5.3941 12.7476 4.82684 12.3964 4.50269C12.3964 4.50269 12.8826 4.77281 12.6935 5.47513C12.5315 6.15045 12.2883 6.15045 11.9912 6.20447ZM12.4504 6.42057C12.4504 6.42057 12.8286 6.23148 12.9366 5.93435C13.0447 5.66422 13.3148 5.09696 13.0177 4.7458C13.0177 4.7458 13.4769 5.04293 13.2338 5.71825C12.9907 6.42057 12.7476 6.39356 12.4504 6.42057ZM13.0447 6.63667C13.0447 6.63667 13.4229 6.42057 13.5039 6.15045C13.5849 5.88032 13.8821 5.31306 13.5309 4.9619C13.5309 4.9619 13.9901 5.25903 13.774 5.93435C13.5849 6.60966 13.3418 6.60966 13.0447 6.63667Z" fill="#3E4347"/>
<path d="M13.9639 8.8248C13.9639 8.8248 15.0174 8.6087 15.2605 8.8248L14.8553 9.22999L13.9639 8.8248Z" fill="#879191"/>
<path d="M13.9637 8.82471C16.2598 8.82471 16.8541 13.876 16.8541 13.876C16.8541 13.876 14.6661 10.9047 11.8838 10.9047L13.9637 8.82471Z" fill="#B2C1C0"/>
<path d="M0.646484 8.8787C0.646484 8.58156 3.86097 8.06832 6.13001 8.82467C8.39906 9.58102 8.99333 5.47513 10.1279 5.79928C11.3704 6.15044 10.398 10.0132 12.9372 11.0397C10.5871 13.1467 7.10246 14.4433 5.4547 13.3898C11.9107 11.2558 10.0198 7.33899 10.0198 7.33899C10.0198 7.33899 7.29155 10.6345 4.40122 11.634C3.34773 12.0121 0.646484 9.82413 0.646484 8.8787Z" fill="#E8E8E8"/>
<path d="M4.13086 9.14886C4.13086 9.14886 4.56306 8.87874 4.94123 9.14886C5.10331 9.25691 4.91422 9.50003 4.59007 9.50003C4.29293 9.47301 4.40098 9.2299 4.13086 9.14886Z" fill="#3E4347"/>
</svg>
