<svg width="17" height="17" viewBox="0 0 17 17" fill="none" xmlns="http://www.w3.org/2000/svg">
<path d="M2.60007 3.38508C0.528528 3.53142 0.416491 0.864939 4.33824 1.21843C8.25999 1.57191 12.5531 2.77322 13.5838 2.03652C14.4019 1.45165 14.2313 0.386611 14.0255 0.171683C13.8198 -0.0427877 13.5079 0.151105 13.6656 0.483557C13.823 0.816466 13.6373 1.70819 12.6313 1.79828C11.6257 1.88836 7.8754 1.18001 5.50891 0.846648C3.09211 0.507336 1.14999 0.67562 0.727908 2.02738C0.307656 3.37502 1.61689 3.79848 2.30923 3.86433C3.00157 3.92972 2.60007 3.38508 2.60007 3.38508Z" fill="#BE1931"/>
<path d="M3.34329 3.05535C1.26627 3.05535 1.34263 0.38796 5.22963 1.01674C9.11662 1.64552 13.3141 3.14635 14.3947 2.48373C15.2521 1.95785 15.1565 0.883208 14.9663 0.654561C14.7761 0.425915 14.4519 0.5974 14.5854 0.94037C14.7189 1.28334 14.4711 2.15997 13.4614 2.17872C12.4517 2.19838 8.76084 1.22755 6.42362 0.728643C4.03701 0.219218 2.08756 0.250772 1.57128 1.56915C1.05683 2.88387 2.33359 3.39832 3.01953 3.51264C3.70547 3.62697 3.34329 3.05535 3.34329 3.05535Z" fill="#DD2E44"/>
<path d="M15.8252 6.04522C14.6633 4.24897 12.7316 3.01382 10.6784 2.62283C7.33239 1.98582 2.7622 2.24602 1.47629 4.10355C1.21929 4.47487 1.2577 6.23956 2.84817 6.84731C3.65438 7.15552 5.83978 6.77323 7.34839 6.63604L7.24779 7.43036C7.23351 7.55018 7.26717 7.67078 7.34143 7.76589C7.4157 7.861 7.52454 7.92291 7.64425 7.93811C7.76395 7.95331 7.88482 7.92059 7.9805 7.84707C8.07618 7.77354 8.13893 7.66518 8.15506 7.54559L8.27578 6.59351C8.63979 6.60266 8.99465 6.63924 9.34402 6.6996L9.0701 7.59544C9.03772 7.71047 9.05166 7.8336 9.10892 7.93848C9.16618 8.04336 9.26223 8.12167 9.3765 8.15663C9.49076 8.19159 9.61418 8.18043 9.72033 8.12555C9.82647 8.07066 9.90692 7.97641 9.94445 7.86296L10.2362 6.90813C10.5755 7.0101 10.9125 7.13677 11.2509 7.28585L10.774 8.06096C10.7132 8.16414 10.6953 8.28705 10.7242 8.40328C10.753 8.5195 10.8263 8.61977 10.9283 8.68253C11.0303 8.7453 11.1528 8.76555 11.2696 8.73893C11.3864 8.71232 11.488 8.64097 11.5527 8.54021L12.0741 7.69239C12.1143 7.71388 12.1536 7.73308 12.1939 7.75549C13.478 8.46796 14.2636 10.4704 14.2307 11.2103C14.2142 11.5817 14.3079 11.8533 14.5087 12.0202C14.8709 12.3184 15.4589 12.1771 15.8888 12.0737C16.0342 12.0385 16.1847 12.0024 16.2542 12.0037L16.3923 11.5501L16.4371 11.4198C17.343 8.78029 16.6045 7.24881 15.8252 6.04522Z" fill="#DD2E44"/>
<path d="M10.7099 3.8762C10.4314 4.39935 10.7716 4.30423 11.1786 3.90638C11.4512 3.63978 11.8833 3.3494 12.3406 3.14225C12.0846 3.03094 11.823 2.9331 11.5568 2.84912C11.1978 3.19483 10.8608 3.59359 10.7099 3.8762ZM13.445 5.29198C14.0262 5.00389 14.7377 5.19366 15.4369 5.51194C15.1239 5.11396 14.7722 4.74801 14.387 4.41947C14.0591 4.43959 13.7326 4.53836 13.4569 4.74094C12.9973 5.07797 12.4439 5.78723 13.445 5.29198ZM15.2115 7.07908C14.6646 7.23868 13.9018 7.71564 15.0112 7.59308C15.6564 7.52174 16.2601 7.94428 16.8084 8.48343C16.7483 8.03932 16.628 7.60547 16.4508 7.19386C16.0703 7.02467 15.6317 6.95653 15.2115 7.07908ZM16.3273 11.0269C16.1434 10.9332 15.4109 11.8368 14.6417 10.6894C14.6403 10.6871 14.638 10.6871 14.6367 10.6848C14.6019 10.1489 14.3509 7.84002 11.9441 6.57332C11.6735 6.43081 11.3927 6.30853 11.1041 6.20748C10.6831 6.06256 10.2507 5.95349 9.81131 5.88143C9.55575 5.83756 9.29855 5.80385 9.04031 5.78037C8.99321 5.77626 8.94474 5.77534 8.89718 5.77168C8.43659 5.74126 7.97452 5.74081 7.51387 5.77031C7.20977 5.78815 6.9043 5.81467 6.6002 5.84714C4.78474 6.04057 3.01319 6.41509 1.80273 6.05383C2.03412 6.37668 2.36978 6.66478 2.84765 6.84724C3.52947 7.10744 5.19676 6.87467 6.60751 6.71371L6.60843 6.81797C6.60952 6.93925 6.65875 7.05513 6.74528 7.14012C6.83181 7.22511 6.94856 7.27224 7.06984 7.27115C7.19112 7.27006 7.307 7.22083 7.39199 7.1343C7.47697 7.04777 7.52411 6.93102 7.52302 6.80974L7.52119 6.62179C7.76276 6.59983 8.00526 6.58976 8.24782 6.59161C8.39873 6.59481 8.54781 6.60441 8.69597 6.61676L8.65161 6.80242C8.63771 6.86085 8.63546 6.92145 8.64497 6.98075C8.65449 7.04006 8.67559 7.09691 8.70708 7.14805C8.73857 7.1992 8.77982 7.24364 8.82848 7.27885C8.87715 7.31405 8.93227 7.33933 8.9907 7.35323C9.10871 7.38131 9.23303 7.36136 9.33633 7.29777C9.38748 7.26628 9.43192 7.22503 9.46713 7.17636C9.50233 7.1277 9.52761 7.07258 9.54151 7.01415L9.60416 6.75029C9.9645 6.82574 10.3203 6.92681 10.6751 7.0553L10.554 7.29538C10.4995 7.40369 10.4902 7.52912 10.528 7.64429C10.5658 7.75945 10.6476 7.85497 10.7556 7.90999C10.864 7.96454 10.9895 7.97395 11.1048 7.93615C11.2201 7.89836 11.3157 7.81644 11.3707 7.70832L11.5202 7.41199C11.7434 7.51809 11.967 7.63012 12.1934 7.75588C13.4701 8.46468 14.2539 10.448 14.2297 11.1975C14.2196 11.2559 14.215 11.3152 14.216 11.3744C14.2205 11.6067 14.1647 11.8747 14.049 12.1715C13.8154 12.7733 13.3457 13.4519 12.8514 13.8996C12.6612 14.0729 12.5231 14.2659 12.4421 14.4731C12.2958 14.8522 12.3658 15.2436 12.6182 15.4475C12.6671 15.4873 12.7206 15.5166 12.7764 15.5376C14.3006 14.1571 13.7235 14.9125 14.1016 16.0484C14.2535 16.3274 14.4775 16.3946 14.5887 16.4092C14.9115 16.4509 15.2302 16.2272 15.4022 15.8381L15.4246 15.7841C15.6825 15.1201 16.4192 11.8253 16.4892 11.3411C16.4986 11.2783 16.4881 11.2142 16.459 11.1578C16.43 11.1014 16.3839 11.0556 16.3273 11.0269Z" fill="#BE1931"/>
<path d="M12.7773 15.5372C12.9557 15.6044 13.161 15.5793 13.3462 15.4576C13.5922 15.2962 13.7546 15.2724 13.8186 15.3008C13.8858 15.33 13.9439 15.4608 13.9736 15.6492C14.0006 15.8171 14.0468 15.946 14.1026 16.048C13.7239 14.9121 14.9929 12.9699 12.7773 15.5372Z" fill="#292F33"/>
<path d="M3.76198 4.56083C4.01454 4.56083 4.21927 4.35609 4.21927 4.10353C4.21927 3.85098 4.01454 3.64624 3.76198 3.64624C3.50942 3.64624 3.30469 3.85098 3.30469 4.10353C3.30469 4.35609 3.50942 4.56083 3.76198 4.56083Z" fill="#292F33"/>
</svg>
