<svg width="17" height="16" viewBox="0 0 17 16" fill="none" xmlns="http://www.w3.org/2000/svg">
<path d="M7.91804 6.00419C7.91804 6.00419 7.49346 5.7152 7.01136 5.73438C6.52925 5.75355 5.9321 6.12061 5.9321 6.12061C5.9321 6.12061 5.10349 6.15896 4.46661 6.13978C3.82974 6.12061 2.32591 5.94667 1.55481 6.29455C0.783722 6.64106 0.590606 7.29711 0.707023 7.81756C0.822071 8.33802 0.945336 9.15978 3.52158 10.6321C4.65014 11.2772 5.88554 11.5142 6.95246 11.5977C7.0004 11.7936 7.11682 13.1878 7.34007 13.9288C7.62905 14.893 8.03857 14.9313 8.18786 14.9697C8.78501 15.1245 8.533 14.3356 8.51519 13.7357C8.48643 12.7358 8.70831 11.7894 8.82336 11.7881C9.04797 11.7867 9.76976 12.0387 9.94233 12.0387C11.3311 14.3712 12.5556 14.6643 12.9692 14.3712C13.2965 14.1397 12.95 13.6768 12.6035 12.8482C12.3871 12.3304 12.2474 12.0867 12.4734 12.0688C14.3265 11.9209 16.4932 11.195 16.8068 8.375C17.0164 6.48356 15.8865 5.03998 15.7851 4.7688C15.8426 4.4894 16.2535 3.73474 16.4316 3.18279C16.7301 2.25282 16.7781 1.83783 16.6343 1.81865C16.4809 1.79811 15.9399 2.26241 15.3619 2.62809C14.8812 2.93352 14.7017 3.76624 14.7017 3.76624C14.7017 3.76624 13.9156 3.28414 13.202 3.5923C12.3542 3.95936 11.9105 4.03606 11.8913 4.17028C11.8721 4.30587 12.7596 4.61403 13.376 4.78661C14.0142 4.96603 14.725 5.11394 14.725 5.11394C14.725 5.11394 15.3414 6.7342 14.3196 7.19576C13.2979 7.65869 12.546 7.06017 11.5818 6.57943C10.6176 6.09733 9.72593 5.50428 8.97812 5.59605C8.2988 5.6837 7.91804 6.00419 7.91804 6.00419Z" fill="#6BA4AE"/>
<path d="M8.42859 2.70346C8.42859 2.70346 8.37106 2.29395 8.85317 2.15836C9.33527 2.02277 9.86531 2.00359 9.89407 1.5119C9.92694 0.953097 9.38321 0.836679 8.93945 0.972271C8.3423 1.15443 7.89855 1.82006 7.89855 1.82006C7.89855 1.82006 7.37809 0.817505 6.54948 0.817505C5.87015 0.817505 5.79893 1.32289 5.85508 1.55984C5.94137 1.92552 6.36047 2.09536 6.80422 2.14329C7.29044 2.19671 7.33974 2.66922 7.33974 2.66922C7.33974 2.66922 6.4988 2.1159 6.39471 2.66922C6.28925 3.23761 7.2425 3.11298 7.45479 3.63343C7.58216 3.9457 7.61914 5.58102 7.97524 5.56185C8.34093 5.54267 8.18753 3.7115 8.43817 3.49921C8.68881 3.28692 9.49826 3.03628 9.34486 2.67059C9.11065 2.11316 8.42859 2.70346 8.42859 2.70346Z" fill="#36B4E1"/>
<path d="M10.5435 1.12977C10.7099 1.12977 10.8448 0.993026 10.8448 0.824345C10.8448 0.655664 10.7099 0.518921 10.5435 0.518921C10.3771 0.518921 10.2422 0.655664 10.2422 0.824345C10.2422 0.993026 10.3771 1.12977 10.5435 1.12977Z" fill="#36B4E1"/>
<path d="M10.5346 2.37194C10.6518 2.37194 10.7468 2.27996 10.7468 2.1665C10.7468 2.05304 10.6518 1.96106 10.5346 1.96106C10.4173 1.96106 10.3223 2.05304 10.3223 2.1665C10.3223 2.27996 10.4173 2.37194 10.5346 2.37194Z" fill="#36B4E1"/>
<path d="M4.94651 1.15161C5.13864 1.15161 5.2944 0.994022 5.2944 0.799623C5.2944 0.605223 5.13864 0.447632 4.94651 0.447632C4.75439 0.447632 4.59863 0.605223 4.59863 0.799623C4.59863 0.994022 4.75439 1.15161 4.94651 1.15161Z" fill="#36B4E1"/>
<path d="M4.6864 2.21999C4.83088 2.21999 4.948 2.09981 4.948 1.95155C4.948 1.80329 4.83088 1.68311 4.6864 1.68311C4.54193 1.68311 4.4248 1.80329 4.4248 1.95155C4.4248 2.09981 4.54193 2.21999 4.6864 2.21999Z" fill="#36B4E1"/>
<path d="M5.50481 3.49968C5.62386 3.42329 5.65978 3.26693 5.58503 3.15042C5.51028 3.03391 5.35318 3.00138 5.23412 3.07776C5.11507 3.15414 5.07915 3.31051 5.1539 3.42702C5.22865 3.54353 5.38575 3.57606 5.50481 3.49968Z" fill="#36B4E1"/>
<path d="M8.38112 9.45558C8.477 9.84181 6.18289 9.82127 4.25447 9.47475C2.32606 9.12824 0.879745 8.35715 0.879745 8.35715C0.877005 8.38865 0.678411 7.8997 0.667454 7.54771C0.659237 7.26694 0.763327 7.05054 0.763327 7.05054C0.763327 7.05054 1.42348 7.61482 2.50411 7.99968C3.58336 8.38591 4.85026 8.82419 5.89253 8.97348C7.64838 9.22411 8.31401 9.18851 8.38112 9.45558Z" fill="#FDEACB"/>
<path d="M8.64586 9.29586C8.909 9.25525 9.09118 9.02052 9.05276 8.77158C9.01434 8.52264 8.76988 8.35376 8.50674 8.39436C8.24359 8.43497 8.06142 8.6697 8.09984 8.91864C8.13825 9.16758 8.38272 9.33647 8.64586 9.29586Z" fill="#2C292A"/>
<path d="M16.1702 10.276C16.1702 10.276 15.4375 11.0566 13.7405 11.0375C12.5955 11.0238 10.8096 10.8252 10.8096 10.8252C10.8096 10.8252 11.4259 11.1142 11.7738 11.5004C12.1203 11.8866 12.5887 12.8111 12.5887 12.8111C12.5887 12.8111 14.1884 12.3537 14.9417 11.7168C15.6936 11.0799 16.1702 10.276 16.1702 10.276ZM1.3291 9.03235C1.3291 9.03235 2.848 9.97738 4.31349 10.2472C5.77898 10.517 7.10887 10.6718 7.90051 10.7101C8.69215 10.7485 9.46187 10.7293 9.46187 10.7293C9.46187 10.7293 10.4453 12.2331 10.6959 12.6577C10.9465 13.0823 11.4286 13.9876 11.9683 14.1999C12.5079 14.4122 12.9955 14.3547 12.9955 14.3547C12.9955 14.3547 12.2819 14.8943 11.467 14.3355C11.1177 14.0958 10.296 13.0919 10.296 13.0919C10.296 13.0919 9.29341 13.0823 8.67571 13.0193C8.09911 12.9604 7.45676 12.8317 7.45676 12.8317C7.45676 12.8317 7.41978 13.4603 7.46634 13.7863C7.51428 14.1232 7.74575 14.719 8.27579 14.8464C8.39631 14.8751 8.54423 14.8696 8.53601 14.8847C8.47301 15.0107 7.92516 15.2408 7.41704 14.7395C6.75688 14.0876 6.89658 12.7632 6.89658 12.7632C6.89658 12.7632 5.96114 12.5618 4.85312 11.8853C4.22173 11.499 2.93018 10.6896 2.33714 10.1253C1.86873 9.68155 1.3291 9.03235 1.3291 9.03235Z" fill="#A4CED5"/>
<path d="M7.52293 11.1046C7.95025 11.217 8.51042 11.0663 8.5159 11.1718C8.52549 11.3553 7.89136 11.4265 7.48458 11.3745C6.96413 11.3073 6.61214 10.9403 6.61625 10.8252C6.6272 10.613 6.99289 10.9649 7.52293 11.1046Z" fill="#D9EBF3"/>
<path d="M4.57249 10.565C4.50401 10.6828 4.94913 10.9992 5.23812 11.0759C5.52711 11.1526 5.78734 11.2211 5.99004 11.3457C6.19274 11.4703 6.41462 11.9826 6.88714 12.1264C7.35966 12.2716 7.78424 11.9429 8.2951 11.962C8.80597 11.9812 9.12372 11.9716 9.05661 11.8949C8.9895 11.8182 8.60327 11.6922 8.28552 11.673C7.96776 11.6539 7.35966 11.9045 6.96521 11.7785C6.56939 11.6525 6.49269 11.2005 6.09687 11.0362C5.70105 10.8718 5.37371 10.8814 5.19019 10.8143C5.00666 10.7485 4.64097 10.4486 4.57249 10.565Z" fill="#D9EBF3"/>
<path d="M3.46414 10.3623C3.36964 10.3829 3.53673 10.8294 4.13388 11.1677C4.73104 11.506 5.21862 11.569 5.47885 11.7224C5.85549 11.9442 5.92534 12.34 6.51975 12.5701C7.29085 12.8687 7.92772 12.666 8.44817 12.6564C8.96862 12.6468 9.83696 12.8783 9.86572 12.7427C9.9027 12.5701 9.0371 12.377 8.41941 12.3661C7.99483 12.3592 7.50314 12.5592 6.79915 12.3757C6.09517 12.1921 6.10476 11.7484 5.55554 11.4594C5.11316 11.2266 4.64886 11.1129 4.27359 10.9389C3.89831 10.7677 3.59837 10.3336 3.46414 10.3623Z" fill="#D9EBF3"/>
</svg>
