<svg width="17" height="16" viewBox="0 0 17 16" fill="none" xmlns="http://www.w3.org/2000/svg">
<path d="M12.0612 4.01032C12.0612 4.01032 16.3568 3.26824 16.6064 3.59426C16.856 3.92029 16.9188 4.90245 16.7851 5.45764C16.65 6.0142 16.1508 6.87223 14.6912 7.27601C13.4648 7.61431 13.0529 7.61567 12.4186 7.99353C11.9125 8.295 11.1772 10.4639 11.0613 10.7722C10.9453 11.0805 10.1009 12.2891 8.3344 12.0395C6.60879 11.794 5.55024 10.1748 5.91582 8.58147C6.28141 6.98818 12.0612 4.01032 12.0612 4.01032Z" fill="#A92813"/>
<path d="M8.93138 7.98522C8.93138 7.98522 6.53054 8.04252 5.78164 7.25542C5.03274 6.46833 4.24565 4.7209 4.03421 3.31859C3.82277 1.91628 3.13117 1.09099 2.80515 0.879554C2.47912 0.668116 2.14219 0.610823 2.10399 0.822261C2.0658 1.0337 2.65919 1.74031 2.76695 2.07043C3.03568 2.89571 2.88699 4.81639 3.11207 5.70033C3.34261 6.60474 3.5254 6.9144 4.03421 7.50506C4.41344 7.94567 5.01365 8.3699 5.01365 8.3699C5.01365 8.3699 2.69056 8.92646 2.03715 8.23486C1.38374 7.54325 1.46149 6.9676 1.51879 6.67977C1.57608 6.39194 2.03715 5.60485 1.90347 5.52709C1.76842 5.4507 0.924033 6.10275 0.809447 6.9676C0.694861 7.83244 0.979961 8.5527 1.46286 9.08061C2.09171 9.76676 3.28259 9.88271 3.97419 9.82541C4.6658 9.76812 5.3615 9.54168 5.3615 9.54168C5.3615 9.54168 5.3424 12.364 3.99738 12.3449C2.97975 12.3299 2.8638 11.9998 2.76832 11.8266C2.67283 11.6533 2.57325 11.5101 2.62372 12.0612C2.65782 12.4254 3.08479 13.5494 4.42435 13.2616C5.55929 13.0174 6.26181 11.9739 6.49371 11.6533C6.7488 11.3027 7.3381 10.5007 7.3381 10.5007C7.3381 10.5007 7.11029 12.0598 7.1594 13.1634C7.17986 13.6245 7.2999 14.7062 8.14565 15.0704C8.99004 15.4347 10.0704 14.979 10.2628 14.2492C10.4551 13.5194 10.0663 13.1116 10.0077 13.0543C9.94901 12.997 9.68165 13.8796 9.68165 13.8796C9.68165 13.8796 8.99004 14.3406 8.72131 14.0146C8.45258 13.6886 8.7786 11.1527 8.8168 10.6152C8.85499 10.0778 9.41155 10.5961 9.60389 10.8649C9.79623 11.1336 10.1086 11.8007 10.5833 12.2672C11.3663 13.0379 12.2162 13.3721 13.4234 13.2794C14.6811 13.1825 15.4669 12.6887 15.8884 12.0557C16.3112 11.4214 16.4026 10.7926 16.2676 10.678C16.1325 10.5634 15.2118 11.6724 15.0194 11.8252C14.8271 11.9794 12.9064 11.8252 12.6377 11.8252C12.369 11.8252 12.3117 11.345 12.3117 11.345C12.3117 11.345 13.4057 11.0572 13.7904 10.7694C14.175 10.4816 15.2309 9.87589 15.3073 8.1571C15.3659 6.83118 15.3073 3.27221 15.4423 2.69655C15.5773 2.1209 16.0889 1.63391 15.9729 1.44157C15.857 1.24923 15.3454 1.5698 15.2691 1.62709C15.1927 1.68438 14.3851 2.06906 14.366 2.76067C14.3469 3.45227 14.1164 8.38764 13.7317 8.79005C13.347 9.19383 12.0989 10 11.4086 9.90453C10.717 9.81041 8.93138 7.98522 8.93138 7.98522Z" fill="#FFA8A8"/>
<path d="M16.21 10.6548C15.9794 10.6357 15.7871 10.9427 15.5566 11.1159C15.326 11.2891 14.865 11.7298 13.655 11.6916C12.445 11.6534 11.6388 10.3274 11.6388 10.3274C11.6388 10.3274 12.0235 10.3656 12.4641 10.2511C12.9061 10.1365 13.6072 9.76134 14.0478 8.9647C14.573 8.018 14.4557 5.68128 14.4612 4.64319C14.468 3.2095 14.9345 2.44696 15.1146 2.20415C15.4215 1.7881 15.9085 1.55074 15.9276 1.41706C15.9467 1.28201 15.3192 1.35976 14.9604 1.5712C14.5621 1.80583 14.3657 2.07047 14.3657 2.07047C14.3657 2.07047 13.4435 1.97498 12.9443 1.97498C12.445 1.97498 11.486 2.04864 10.6498 2.24371C9.62266 2.48379 8.85467 3.069 8.64323 3.10856C8.64323 3.10856 7.96117 2.43059 6.83851 3.20405C5.66673 4.01024 6.51248 5.71947 6.51248 5.71947C6.51248 5.71947 6.45519 5.96638 6.14827 6.0455C5.70629 6.16008 5.0447 5.72902 4.80461 4.96102C4.60272 4.31307 4.65047 3.41548 4.45949 2.37876C4.26715 1.34203 3.71059 0.880959 3.21133 0.650424C2.71206 0.419889 2.07775 0.631326 2.1746 0.76501C2.27009 0.900057 2.99989 1.14969 3.44186 1.95588C3.88384 2.76207 3.6724 4.64455 4.15257 5.9882C4.63273 7.33186 5.51668 7.77383 5.51668 7.77383C5.51668 7.77383 5.01741 8.00436 4.74868 8.06166C4.47995 8.11895 3.75015 8.254 3.07764 8.11486C2.37785 7.97026 1.90587 7.45735 1.82948 6.89125C1.764 6.40971 2.07911 5.56669 1.90587 5.52713C1.73263 5.48757 1.11332 6.37152 1.09422 7.10132C1.07512 7.83112 1.63714 8.67551 2.48153 9.07928C3.32591 9.48306 5.0938 9.11748 5.0938 9.11748C5.0938 9.11748 4.94921 9.33847 4.93011 9.76134C4.91101 10.1842 4.66138 11.1295 4.20986 11.4037C3.9002 11.592 3.62465 11.6534 3.5278 11.4037C3.43231 11.1541 3.92203 11.0586 3.90293 10.809C3.88384 10.5593 3.48006 10.4966 3.09674 10.7326C2.83756 10.8908 2.40514 11.4624 2.67387 12.0762C2.9426 12.6901 3.60965 12.907 4.34491 12.7106C5.44165 12.4173 6.70755 10.3875 7.10997 10.041C7.51374 9.69586 7.78247 9.79135 7.78247 9.79135C7.78247 9.79135 7.59013 11.577 7.62833 12.7869C7.66652 13.9969 8.43998 14.7867 9.29937 14.6503C10.2597 14.4962 10.317 13.7091 10.1642 13.2862C10.0292 12.9165 9.52036 12.7774 9.37712 12.8824C9.19024 13.0202 9.31437 13.2467 9.38667 13.3094C9.55991 13.4581 9.41532 13.8046 9.14659 13.7268C8.87786 13.6504 9.12749 12.7474 9.24208 12.3054C9.35666 11.8634 9.62676 10.8267 9.93368 10.7503C10.2406 10.6739 10.553 11.2128 10.8367 11.5374C11.3223 12.094 12.1135 12.5264 13.2417 12.5455C14.7326 12.5714 15.6561 11.652 15.8676 11.4215C16.0749 11.1923 16.4391 10.6739 16.21 10.6548ZM12.7519 6.64161C13.1939 6.33469 13.5718 6.19418 13.5718 6.19418C13.5718 6.19418 13.5841 7.76837 12.9825 8.58138C12.4846 9.25389 12.003 9.09975 12.003 9.09975C12.003 9.09975 12.4982 8.82965 12.5405 8.31265C12.5978 7.60195 11.8489 7.46827 11.8489 7.46827C11.8489 7.46827 12.3673 6.90898 12.7519 6.64161Z" fill="#FF615E"/>
<path d="M15.3382 5.69073C15.3382 5.69073 16.9192 5.22011 16.7651 4.06743C16.6109 2.91476 15.446 2.65967 15.446 2.65967C15.446 2.65967 15.2796 3.26124 15.3055 4.04834C15.3178 4.39346 15.3382 5.69073 15.3382 5.69073Z" fill="#FF615E"/>
<path d="M11.9882 8.64692C11.8122 8.92793 11.5121 8.98659 11.2938 8.85017C11.0756 8.71376 11.0415 8.43958 11.2174 8.15857C11.3934 7.87756 11.7535 7.7507 11.9732 7.88711C12.1928 8.02352 12.1641 8.36591 11.9882 8.64692ZM8.95983 6.99634C9.20537 6.98134 9.12352 6.73716 9.07441 6.41114C9.02667 6.08511 8.84934 5.22709 9.35269 4.71145C9.77557 4.27903 10.3021 4.28448 10.6963 4.53821C10.9937 4.73055 11.1288 4.80694 11.2434 4.66371C11.3197 4.56822 11.2052 4.38543 11.0128 4.22174C10.7686 4.01439 9.92835 3.58742 9.13989 4.24083C8.39509 4.85878 8.51513 6.0551 8.61198 6.46843C8.7102 6.88176 8.80568 7.00589 8.95983 6.99634ZM6.54944 3.12635C6.05017 3.64472 5.94787 4.05941 6.00243 4.7592C6.05017 5.38396 6.27116 5.86276 6.51124 5.76728C6.71177 5.68679 6.62583 5.31575 6.55899 5.12341C6.49215 4.93107 6.3762 4.00893 6.86591 3.50967C7.35563 3.0104 7.91219 3.07724 8.16182 3.13454C8.41146 3.19183 8.51649 3.24912 8.64199 3.10589C8.76749 2.96266 8.50694 2.73076 8.25731 2.67347C8.00768 2.61617 7.20967 2.44157 6.54944 3.12635Z" fill="#A52914"/>
<path d="M11.2353 6.19957C11.2353 6.59789 10.9365 6.99758 10.5436 6.97712C10.159 6.95802 9.97754 6.58698 9.97754 6.19002C9.97754 5.79306 10.2081 5.46977 10.6119 5.44112C11.0716 5.40838 11.2353 5.80125 11.2353 6.19957Z" fill="#2C2B2D"/>
<path d="M15.1689 4.85559C15.1953 4.69119 15.0894 4.5375 14.9325 4.51231C14.7755 4.48712 14.6269 4.59996 14.6005 4.76435C14.5741 4.92875 14.68 5.08243 14.8369 5.10763C14.9939 5.13282 15.1425 5.01998 15.1689 4.85559Z" fill="#FCD4B0"/>
<path d="M15.3865 2.99373C15.4438 2.84141 15.3827 2.67753 15.2501 2.6277C15.1175 2.57788 14.9636 2.66097 14.9064 2.8133C14.8491 2.96562 14.9102 3.1295 15.0428 3.17933C15.1754 3.22916 15.3293 3.14606 15.3865 2.99373Z" fill="#FCD4B0"/>
<path d="M14.8842 7.31267C15.0785 7.31267 15.2361 7.1496 15.2361 6.94845C15.2361 6.74729 15.0785 6.58423 14.8842 6.58423C14.6898 6.58423 14.5322 6.74729 14.5322 6.94845C14.5322 7.1496 14.6898 7.31267 14.8842 7.31267Z" fill="#FCD4B0"/>
<path d="M14.8775 9.24642C14.9624 9.05497 14.885 8.83489 14.7046 8.75485C14.5241 8.67481 14.309 8.76513 14.2241 8.95658C14.1392 9.14802 14.2166 9.36811 14.397 9.44815C14.5774 9.52818 14.7926 9.43787 14.8775 9.24642Z" fill="#FCD4B0"/>
<path d="M15.1552 12.6836C15.3015 12.6214 15.3749 12.4647 15.3191 12.3337C15.2634 12.2027 15.0996 12.1469 14.9533 12.2091C14.8071 12.2713 14.7337 12.428 14.7894 12.559C14.8451 12.69 15.0089 12.7458 15.1552 12.6836Z" fill="#FCD4B0"/>
<path d="M13.3582 13.1961C13.5383 13.1961 13.6843 13.0587 13.6843 12.8892C13.6843 12.7197 13.5383 12.5823 13.3582 12.5823C13.1782 12.5823 13.0322 12.7197 13.0322 12.8892C13.0322 13.0587 13.1782 13.1961 13.3582 13.1961Z" fill="#FCD4B0"/>
<path d="M11.6077 12.8811C11.781 12.8811 11.9214 12.7351 11.9214 12.555C11.9214 12.375 11.781 12.229 11.6077 12.229C11.4344 12.229 11.2939 12.375 11.2939 12.555C11.2939 12.7351 11.4344 12.8811 11.6077 12.8811Z" fill="#FCD4B0"/>
<path d="M8.35529 15.1481C8.54288 15.1481 8.69495 14.9991 8.69495 14.8153C8.69495 14.6314 8.54288 14.4824 8.35529 14.4824C8.1677 14.4824 8.01562 14.6314 8.01562 14.8153C8.01562 14.9991 8.1677 15.1481 8.35529 15.1481Z" fill="#FCD4B0"/>
<path d="M7.37853 13.2158C7.50932 13.2069 7.6057 13.0577 7.5938 12.8826C7.5819 12.7074 7.46623 12.5727 7.33544 12.5816C7.20466 12.5905 7.10828 12.7396 7.12018 12.9148C7.13208 13.0899 7.24775 13.2247 7.37853 13.2158Z" fill="#FCD4B0"/>
<path d="M5.8025 12.556C5.94526 12.4241 5.96566 12.214 5.84806 12.0867C5.73046 11.9595 5.51941 11.9632 5.37665 12.0951C5.23389 12.227 5.21349 12.4372 5.33109 12.5644C5.44869 12.6917 5.65975 12.6879 5.8025 12.556Z" fill="#FCD4B0"/>
<path d="M3.91249 13.4212C4.10686 13.4212 4.26443 13.2776 4.26443 13.1006C4.26443 12.9236 4.10686 12.78 3.91249 12.78C3.71812 12.78 3.56055 12.9236 3.56055 13.1006C3.56055 13.2776 3.71812 13.4212 3.91249 13.4212Z" fill="#FCD4B0"/>
<path d="M3.55398 9.86084C3.72726 9.86084 3.86773 9.73503 3.86773 9.57984C3.86773 9.42464 3.72726 9.29883 3.55398 9.29883C3.3807 9.29883 3.24023 9.42464 3.24023 9.57984C3.24023 9.73503 3.3807 9.86084 3.55398 9.86084Z" fill="#FCD4B0"/>
<path d="M2.21214 9.27099C2.2935 9.13006 2.24046 8.94711 2.09366 8.86235C1.94686 8.7776 1.76189 8.82314 1.68053 8.96407C1.59916 9.10499 1.65221 9.28795 1.79901 9.3727C1.94581 9.45746 2.13077 9.41192 2.21214 9.27099Z" fill="#FCD4B0"/>
<path d="M1.09461 8.20306C1.22543 8.15282 1.28418 7.98894 1.22584 7.83703C1.1675 7.68512 1.01416 7.60269 0.883343 7.65293C0.75253 7.70317 0.693779 7.86705 0.75212 8.01896C0.810461 8.17087 0.963801 8.25329 1.09461 8.20306Z" fill="#FCD4B0"/>
<path d="M3.48506 5.67168C3.65156 5.67168 3.78653 5.53121 3.78653 5.35794C3.78653 5.18466 3.65156 5.04419 3.48506 5.04419C3.31857 5.04419 3.18359 5.18466 3.18359 5.35794C3.18359 5.53121 3.31857 5.67168 3.48506 5.67168Z" fill="#FCD4B0"/>
<path d="M3.31711 3.86825C3.47984 3.86825 3.61176 3.73083 3.61176 3.56132C3.61176 3.39181 3.47984 3.25439 3.31711 3.25439C3.15438 3.25439 3.02246 3.39181 3.02246 3.56132C3.02246 3.73083 3.15438 3.86825 3.31711 3.86825Z" fill="#FCD4B0"/>
<path d="M3.17598 2.23106C3.31084 2.17875 3.37357 2.0162 3.31609 1.868C3.2586 1.71979 3.10268 1.64205 2.96782 1.69435C2.83296 1.74666 2.77023 1.90921 2.82771 2.05741C2.8852 2.20562 3.04112 2.28336 3.17598 2.23106Z" fill="#FCD4B0"/>
</svg>
