<svg width="22" height="21" viewBox="0 0 22 21" fill="none" xmlns="http://www.w3.org/2000/svg">
<path id="Vector" d="M20.5282 7.54187L14.2484 6.62921L11.4412 0.938065C11.3645 0.782245 11.2384 0.656105 11.0826 0.579432C10.6918 0.386512 10.2169 0.547279 10.0215 0.938065L7.21428 6.62921L0.934485 7.54187C0.761351 7.5666 0.603058 7.64822 0.481864 7.77189C0.335348 7.92248 0.254611 8.12508 0.257394 8.33517C0.260176 8.54526 0.346251 8.74565 0.496704 8.89231L5.04022 13.3221L3.96679 19.5771C3.94162 19.7226 3.95772 19.8723 4.01327 20.0091C4.06882 20.1459 4.1616 20.2644 4.28108 20.3512C4.40056 20.438 4.54196 20.4896 4.68925 20.5001C4.83655 20.5106 4.98384 20.4796 5.11442 20.4106L10.7314 17.4575L16.3483 20.4106C16.5017 20.4923 16.6797 20.5195 16.8504 20.4898C17.2808 20.4156 17.5701 20.0075 17.4959 19.5771L16.4225 13.3221L20.966 8.89231C21.0897 8.77112 21.1713 8.61282 21.196 8.43969C21.2628 8.00686 20.9611 7.60618 20.5282 7.54187V7.54187Z" fill="white"/>
</svg>
