<svg width="9" height="6" viewBox="0 0 9 6" fill="none" xmlns="http://www.w3.org/2000/svg">
<path d="M4.10337 0.273477L0.847964 4.66943C0.463777 5.18834 0.776014 6 1.35908 6H7.86989C8.00038 6.00013 8.12814 5.95582 8.23786 5.87236C8.34758 5.78891 8.43462 5.66985 8.48856 5.52945C8.54249 5.38905 8.56103 5.23326 8.54195 5.08073C8.52288 4.9282 8.467 4.7854 8.38101 4.66943L5.1256 0.274279C5.06189 0.188133 4.98332 0.119089 4.89516 0.071782C4.80701 0.024475 4.71131 0 4.61448 0C4.51766 0 4.42196 0.024475 4.33381 0.071782C4.24565 0.119089 4.16708 0.188133 4.10337 0.274279V0.273477Z" fill="#00A82F"/>
</svg>
