<svg width="10" height="11" viewBox="0 0 10 11" fill="none" xmlns="http://www.w3.org/2000/svg">
<g id="Group">
<path id="Vector" d="M4.61067 9.53442C3.5407 9.53442 2.51455 9.10937 1.75796 8.35278C1.00138 7.5962 0.576334 6.57005 0.576334 5.50008C0.576334 4.4301 1.00138 3.40395 1.75796 2.64737C2.51455 1.89078 3.5407 1.46574 4.61067 1.46574C5.68065 1.46574 6.7068 1.89078 7.46338 2.64737C8.21997 3.40395 8.64501 4.4301 8.64501 5.50008C8.64501 6.57005 8.21997 7.5962 7.46338 8.35278C6.7068 9.10937 5.68065 9.53442 4.61067 9.53442ZM4.61067 10.1107C5.8335 10.1107 7.00624 9.62498 7.87091 8.76031C8.73558 7.89565 9.22134 6.7229 9.22134 5.50008C9.22134 4.27725 8.73558 3.10451 7.87091 2.23984C7.00624 1.37517 5.8335 0.889404 4.61067 0.889404C3.38785 0.889404 2.2151 1.37517 1.35043 2.23984C0.485766 3.10451 0 4.27725 0 5.50008C0 6.7229 0.485766 7.89565 1.35043 8.76031C2.2151 9.62498 3.38785 10.1107 4.61067 10.1107V10.1107Z" fill="#F3F5F8" fill-opacity="0.5"/>
<path id="Vector_2" d="M3.02875 4.22399C3.02796 4.24261 3.03099 4.26118 3.03764 4.27858C3.0443 4.29598 3.05444 4.31184 3.06745 4.32517C3.08046 4.3385 3.09606 4.34903 3.11329 4.35612C3.13052 4.3632 3.14902 4.36668 3.16764 4.36635H3.64312C3.72265 4.36635 3.78605 4.30122 3.79642 4.22226C3.84829 3.84419 4.10765 3.5687 4.56987 3.5687C4.96523 3.5687 5.32717 3.76638 5.32717 4.24186C5.32717 4.60783 5.11162 4.77612 4.77101 5.03201C4.38313 5.31384 4.07595 5.64293 4.09785 6.17719L4.09958 6.30225C4.10018 6.34007 4.11563 6.37613 4.14258 6.40265C4.16954 6.42917 4.20584 6.44404 4.24366 6.44403H4.71107C4.74928 6.44403 4.78593 6.42885 4.81295 6.40183C4.83997 6.37481 4.85515 6.33816 4.85515 6.29995V6.23943C4.85515 5.82563 5.01249 5.70517 5.43725 5.383C5.78824 5.11616 6.15421 4.81992 6.15421 4.19806C6.15421 3.32722 5.41881 2.90649 4.61367 2.90649C3.88345 2.90649 3.0835 3.24653 3.02875 4.22399V4.22399ZM3.9261 7.54541C3.9261 7.85259 4.17104 8.07967 4.5082 8.07967C4.85918 8.07967 5.10067 7.85259 5.10067 7.54541C5.10067 7.22727 4.85861 7.00365 4.50762 7.00365C4.17104 7.00365 3.9261 7.22727 3.9261 7.54541Z" fill="#F3F5F8" fill-opacity="0.5"/>
</g>
</svg>
